<svg width="316" height="316" viewBox="0 0 316 316" fill="none" xmlns="http://www.w3.org/2000/svg">
<path d="M2.35645 251.465H313.904V2.25977H2.35645V251.465Z" fill="#D10214"/>
<path d="M279.261 90.7732C269.692 90.7732 261.923 98.5431 261.923 108.075C261.923 117.644 269.693 125.414 279.261 125.414C288.794 125.414 296.563 117.644 296.563 108.075C296.563 98.5426 288.793 90.7732 279.261 90.7732ZM259.153 133.471C259.333 134.083 258.757 134.478 257.642 135.342L256.959 135.702L257.21 136.17C257.354 136.422 257.103 136.889 256.635 137.105L255.592 137.644C255.124 137.86 254.62 137.824 254.477 137.537L254.261 137.105L252.966 137.752L253.182 138.184C253.325 138.471 253.038 138.903 252.57 139.119L251.527 139.623C251.023 139.838 250.52 139.767 250.376 139.48L250.196 139.083C246.203 140.954 241.743 142.932 237.138 145.09L237.39 145.702C237.534 145.953 237.246 146.385 236.778 146.637L235.735 147.105C235.268 147.32 234.764 147.249 234.62 146.962L234.369 146.386L232.858 147.105L233.145 147.68C233.289 148.005 233.002 148.436 232.534 148.652L231.491 149.12C231.023 149.335 230.519 149.299 230.375 148.976L230.124 148.4C228.002 149.263 225.736 149.587 224.081 146.494C223.362 145.055 223.326 141.746 222.786 139.983C222.499 139.048 221.419 138.904 221.419 138.904C201.131 135.019 194.261 139.336 181.239 136.134C177.174 135.127 174.944 131.35 169.908 131.314C158.936 130.99 155.663 131.134 143.757 130.667C143.253 132.429 143.181 132.789 143.181 132.789L101.31 132.574L107.677 135.739L109.764 154.192C109.764 154.192 108.073 154.696 107.569 154.768C107.965 158.473 108.361 163.437 108.577 167.897C108.756 171.926 108.973 176.135 108.937 178.833C108.9 179.66 108.9 181.638 107.75 183.797C106.994 185.236 105.663 186.423 104.584 187.214C104.224 187.501 102.606 188.581 100.735 189.696C98.7927 190.811 96.6345 191.962 95.4834 192.538C95.5911 193.042 95.9512 193.545 96.0589 193.941C70.5914 206.243 39.0444 210.452 28.8283 230.02C27.6413 232.286 23.4686 231.099 23.3607 228.653C23.3239 227.538 23.3239 225.703 23.3975 224.732L23.0016 224.696C22.6774 224.696 22.426 224.228 22.4619 223.724L22.4987 222.573C22.5356 222.034 22.8229 221.638 23.1461 221.638L23.578 221.675C23.7217 220.523 23.938 219.409 24.2254 218.33L23.8294 218.186C23.5421 218.078 23.4334 217.574 23.6139 217.071L23.974 215.992C24.1895 215.488 24.5495 215.2 24.8737 215.308L25.2696 215.416C27.0682 211.171 30.5933 209.301 32.212 205.308L31.9607 205.2C31.6365 205.093 31.5288 204.588 31.7093 204.085L32.0693 203.005C32.2848 202.538 32.6808 202.215 32.969 202.323L33.2563 202.396C33.5077 201.821 33.7959 201.173 34.1192 200.562L33.7591 200.31C33.4718 200.13 33.4718 199.627 33.7591 199.195L34.3705 198.224C34.6578 197.792 35.1257 197.576 35.3777 197.756L35.5213 197.83L35.7009 197.867C35.7746 197.867 35.8087 197.83 35.8805 197.793C36.0601 197.613 36.2406 197.432 36.4201 197.289C38.0747 195.994 40.1251 196.21 41.8158 197.215C43.3985 198.186 49.6576 201.748 55.6646 196.316C65.5925 187.431 77.2111 175.309 85.9529 174.913C83.5788 169.769 79.4781 159.085 79.0105 155.129L76.0607 154.518C74.55 151.244 70.8089 136.064 69.7658 124.661C69.7658 124.661 68.5428 112.359 69.7289 108.042C69.0457 107.969 67.8225 108.978 67.4628 108.978C65.88 105.057 71.0599 71.9278 76.2039 62.2873L84.0816 59.1578C83.2546 59.05 77.5708 58.7977 62.607 57.5751C54.2616 64.9492 44.5857 72.9348 39.6931 77.2868C38.8662 77.8982 37.4629 82.6105 37.4629 82.6105C37.4629 82.6105 34.9809 84.8048 32.7147 86.3875C29.6571 88.5459 22.2472 90.1645 20.6642 87.6465C20.2682 87.0351 20.34 86.7468 20.701 86.3875C21.8521 85.2005 26.1687 83.1141 27.6435 80.3803C25.3054 81.5673 22.6435 82.8263 20.5572 82.6105C19.6575 82.5737 19.2263 80.3444 20.3776 79.9487C23.5071 78.6177 26.0251 78.0421 27.8597 75.4163C29.6582 72.9342 31.8166 71.2436 34.6943 71.1717C34.6943 71.1717 48.615 53.0061 56.8162 44.373C59.0824 41.9989 63.291 42.7903 63.291 42.7903L64.0102 40.0205C64.0102 40.0205 92.1399 36.6751 105.234 41.0277C104.91 33.042 108.507 22.5024 120.917 22.5024C127.32 22.5024 136.745 28.1497 138.004 35.0205C138.4 37.1428 137.177 38.5457 136.529 41.2075C135.414 45.2723 136.961 49.733 136.492 51.1356C136.132 52.3226 134.801 52.2147 133.686 53.7975C132.463 55.4881 131.096 58.6536 131.096 58.6536L129.406 62.4666L120.629 61.8191C117.427 68.7256 110.845 82.8626 108.542 96.8192C115.449 97.4307 146.636 101.927 146.636 101.927L147.391 104.482C147.391 104.482 160.557 106.064 171.311 111.172C173.721 111.747 179.765 110.848 183.722 112.683C184.009 112.503 184.657 111.856 184.909 111.676C198.937 115.992 210.52 123.33 224.082 126.604C224.082 126.604 230.377 128.151 232.535 128.582C237.535 129.554 240.736 129.769 243.362 129.985C247.715 130.309 250.125 130.237 253.29 130.417C255.52 130.561 258.254 130.198 259.153 133.471Z" fill="white"/>
<path d="M297.678 285.536L292.822 300.68H302.463L297.678 285.536ZM304.153 306.724H291.023L288.685 313.738H280.34L292.318 280.249H303.002L314.909 313.738H306.492L304.153 306.724ZM276.851 294.386V312.588C273.722 313.667 269.585 314.35 265.268 314.35C253.614 314.35 248.146 309.171 248.146 296.976C248.146 284.854 253.614 279.638 265.268 279.638C269.405 279.638 273.326 280.286 276.312 281.509V287.984C273.038 286.869 269.405 286.221 265.916 286.221C258.901 286.221 256.707 289.063 256.707 296.977C256.707 305.25 259.009 307.984 265.628 307.984C267.139 307.984 268.614 307.876 270.017 307.696V300.214H263.794V294.387L276.851 294.386ZM233.829 280.249H242.211V313.738H233.829V280.249ZM205.879 280.249H214.224V307.371H228.613V313.738H205.879L205.879 280.249ZM175.304 312.443V305.932C179.332 307.263 182.93 307.731 186.49 307.731C190.339 307.731 192.03 306.724 192.03 304.134C192.03 301.867 191.311 301.22 188.217 300.572L182.641 299.421C176.85 298.234 174.907 295.861 174.907 290.141C174.907 282.803 179.224 279.638 187.929 279.638C191.886 279.638 195.591 280.285 198.613 281.436V287.983C195.016 286.76 191.671 286.22 188.433 286.22C184.296 286.22 182.894 287.3 182.894 289.925C182.894 292.084 183.865 292.695 186.563 293.271L191.958 294.422C198.289 295.789 200.016 297.911 200.016 303.883C200.016 311.077 195.592 314.351 186.563 314.351C182.606 314.351 178.793 313.702 175.304 312.443ZM146.562 280.249H170.016V286.652H154.908V293.703H167.462V299.997H154.908V307.372H170.34V313.739H146.563L146.562 280.249ZM125.411 307.372C130.303 307.372 131.922 304.818 131.922 296.976C131.922 289.206 130.303 286.652 125.411 286.652H119.08V307.372H125.411ZM110.699 280.249H125.663C137.39 280.249 140.448 285.069 140.448 296.976C140.448 308.559 137.102 313.739 125.663 313.739H110.699V280.249ZM103.829 280.249V313.739H93.6485L79.4037 289.53V313.739H71.6339V280.249H81.814L96.023 304.494V280.249H103.829ZM35.483 302.839V280.249H43.8283V302.588C43.8283 306.293 45.519 307.696 50.0514 307.696C54.5478 307.696 56.2384 306.293 56.2384 302.588V280.249H64.6197V302.839C64.6197 310.717 60.0514 314.35 50.0516 314.35C40.0519 314.35 35.483 310.717 35.483 302.839ZM21.886 303.81C21.886 300.717 20.6629 299.422 17.8212 299.422H10.3032V308.091H17.8212C20.8068 308.091 21.886 306.832 21.886 303.81ZM10.3033 294.241H17.3178C20.1236 294.241 21.3826 293.019 21.3826 290.141C21.3826 287.12 20.1955 285.933 17.3178 285.933H10.3033V294.241ZM30.0154 304.601C30.0154 310.573 27.2456 313.739 19.6916 313.739H2.35352V280.249H19.0442C26.85 280.249 29.5476 283.343 29.5476 288.99C29.5476 293.343 27.9289 295.285 23.2885 296.436L22.4257 296.689L23.1808 296.832C28.3967 297.983 30.0154 299.925 30.0154 304.601Z" fill="#191917"/>
</svg>
