<svg width="512" height="512" viewBox="0 0 512 512" fill="none" xmlns="http://www.w3.org/2000/svg">
<g clip-path="url(#clip0_1_23397)">
<g clip-path="url(#clip1_1_23397)">
<path d="M256.114 512.122C397.503 512.122 512.123 397.503 512.123 256.114C512.123 114.724 397.503 0.10498 256.114 0.10498C114.724 0.10498 0.104996 114.724 0.104996 256.114C0.104996 397.503 114.724 512.122 256.114 512.122Z" fill="#E1020C"/>
<path d="M256.114 503.765C392.888 503.765 503.765 392.888 503.765 256.114C503.765 119.34 392.888 8.46283 256.114 8.46283C119.34 8.46283 8.46287 119.34 8.46287 256.114C8.46287 392.888 119.34 503.765 256.114 503.765Z" fill="white"/>
<path d="M256.114 490.658C385.649 490.658 490.659 385.649 490.659 256.114C490.659 126.578 385.649 21.569 256.114 21.569C126.578 21.569 21.569 126.578 21.569 256.114C21.569 385.649 126.578 490.658 256.114 490.658Z" fill="#E1020C"/>
<path d="M256.114 453.145C364.931 453.145 453.145 364.931 453.145 256.114C453.145 147.297 364.931 59.0828 256.114 59.0828C147.296 59.0828 59.0827 147.297 59.0827 256.114C59.0827 364.931 147.296 453.145 256.114 453.145Z" fill="white"/>
<path d="M220.703 252.276V246.943C220.703 246.943 200.222 246.943 182.302 215.797C182.302 215.797 193.609 215.583 198.089 207.05C198.089 207.05 190.409 205.343 180.595 212.17C180.595 212.17 179.956 196.596 169.289 192.97C169.289 192.97 165.235 203.21 178.035 213.877C178.035 213.877 163.315 218.143 162.462 224.117C162.462 224.117 168.862 225.61 179.742 217.717C179.742 217.717 194.463 249.505 220.703 252.276Z" stroke="#E1020C" stroke-width="0.175216" stroke-miterlimit="10"/>
<path d="M439.373 263.999L371.958 244.798C363.425 241.812 372.385 241.385 372.385 241.385L403.106 238.825C427.426 237.545 429.986 218.344 429.986 218.344H374.092C366.412 218.344 373.238 213.224 373.238 213.224L399.265 190.611C410.785 178.664 401.825 164.156 401.825 164.156C398.838 169.276 360.865 194.024 360.865 194.024C351.478 201.704 357.024 189.757 357.024 189.757C376.225 156.904 364.278 139.41 364.278 139.41C353.184 129.17 354.464 139.41 354.464 139.41C345.504 164.584 336.971 164.584 336.971 164.584C322.037 173.117 324.17 182.931 324.17 182.931C323.744 193.171 318.197 189.331 318.197 189.331C313.504 189.331 307.317 196.584 307.317 196.584C274.676 230.504 276.551 192.327 276.551 192.327C276.551 192.327 276.596 176.957 277.236 175.037C277.876 173.117 292.383 180.371 292.597 161.81C292.597 161.81 282.143 167.997 279.37 161.384C279.37 161.384 274.676 147.09 287.263 139.837C287.263 139.837 292.597 140.477 291.103 126.824C291.103 126.824 287.263 134.504 280.436 133.01C280.436 133.01 264.863 133.437 262.09 130.877C262.09 130.877 255.263 126.184 248.649 126.824C248.649 126.824 218.356 126.824 201.716 139.837L203.423 146.024L215.583 140.264C215.583 140.264 222.836 137.491 224.116 142.184C224.116 142.184 226.036 146.878 226.036 149.864C226.036 149.864 221.769 153.064 200.863 151.144C200.863 151.144 196.383 151.571 194.463 143.891C194.463 143.891 185.929 147.944 192.756 155.624C192.756 155.624 203.636 163.518 226.89 154.771C226.89 154.771 230.09 159.038 226.037 160.958C226.037 160.958 219.391 163.754 209.397 160.958L208.97 166.291C208.97 166.291 218.143 172.905 234.143 169.704C234.143 169.704 238.836 173.544 237.13 180.371L225.396 180.158L231.583 186.985C231.583 186.985 232.65 187.411 233.503 186.985L237.983 183.784C237.983 183.784 239.105 189.249 238.836 192.105C238.836 192.105 237.556 230.505 204.916 196.585C204.916 196.585 198.729 189.331 194.036 189.331C194.036 189.331 188.489 193.171 188.063 182.931C188.063 182.931 190.196 173.118 175.262 164.584C175.262 164.584 166.729 164.584 157.769 139.411C157.769 139.411 159.049 129.171 147.956 139.411C147.956 139.411 136.009 156.904 155.209 189.758C155.209 189.758 160.756 201.704 151.369 194.024C151.369 194.024 113.394 169.277 110.408 164.157C110.408 164.157 101.448 178.664 112.968 190.611L138.997 213.224C138.997 213.224 145.824 218.344 138.144 218.344H82.2495C82.2495 218.344 84.8096 237.545 109.129 238.826L139.85 241.385C139.85 241.385 148.81 241.812 140.277 244.799L72.8625 263.999C72.8625 263.999 63.0489 268.692 76.2759 276.372C76.2759 276.372 83.5293 283.626 112.116 279.359C112.116 279.359 127.903 278.506 157.343 266.986C157.343 266.986 167.157 262.719 159.477 269.972L96.3287 313.493C96.3287 313.493 86.8353 316.586 97.3954 323.626C97.3954 323.626 104.115 330.346 122.996 323.626C122.996 323.626 160.757 304.426 178.358 290.025C178.358 290.025 189.238 283.625 183.158 293.225C183.158 293.225 178.998 302.185 167.157 314.985L172.277 320.105C172.277 320.105 154.997 341.866 149.878 344.107L140.598 336.747C140.598 336.747 138.358 334.827 134.838 335.787C134.838 335.787 132.918 337.707 128.437 335.787C128.437 335.787 119.157 334.827 117.557 344.107C117.557 344.107 121.397 339.627 127.158 342.507L130.677 344.107C130.677 344.107 133.451 347.413 137.718 349.333C137.718 349.333 142.838 350.613 139.851 352.107L129.611 357.227C129.611 357.227 127.264 357.654 127.691 361.28C127.691 361.28 116.811 365.12 123.851 375.787C123.851 375.787 125.984 365.974 131.104 368.107C131.104 368.107 136.011 370.027 145.611 360.854C145.611 360.854 145.611 362.774 144.757 365.121C143.904 367.467 140.704 374.294 141.771 378.561H143.904C143.904 378.561 147.655 387.948 154.1 392.001C154.1 392.001 152.224 381.121 152.864 378.987L154.998 378.347C154.998 378.347 160.331 374.507 156.064 366.4C156.064 366.4 154.998 363.627 157.131 360.427L165.238 371.094C165.238 371.094 168.011 371.947 169.505 371.094L176.331 379.841C176.331 379.841 178.465 373.227 178.038 370.88L174.198 366.4C174.198 366.4 177.398 362.774 173.985 360.427L164.385 352.96C164.385 352.96 161.611 349.974 164.171 344.853L180.385 326.081L185.505 330.347C185.505 330.347 202.145 303.893 214.091 302.614C214.091 302.614 226.251 304.107 220.065 314.561C220.065 314.561 217.931 324.374 195.531 346.988C195.531 346.988 178.891 360.002 187.211 381.548L189.984 372.374C189.984 372.374 190.838 369.601 192.118 373.015C192.118 373.015 197.451 387.521 202.358 392.001V371.094C202.358 371.094 201.931 367.468 204.278 371.308L212.385 383.254C212.385 383.254 213.451 350.188 228.598 345.068C228.598 345.068 233.505 341.441 236.705 349.334C236.705 349.334 240.545 354.028 234.358 370.241L227.958 382.401C227.958 382.401 218.678 401.388 234.518 415.629C234.518 415.629 236.118 401.229 240.278 395.949C240.278 395.949 241.558 393.709 243.478 396.269C243.478 396.269 250.518 409.389 256.119 414.67C261.719 409.39 268.759 396.269 268.759 396.269C270.679 393.709 271.959 395.949 271.959 395.949C276.119 401.229 277.719 415.629 277.719 415.629C293.559 401.389 284.279 382.401 284.279 382.401L277.879 370.241C271.692 354.028 275.532 349.334 275.532 349.334C278.732 341.441 283.639 345.068 283.639 345.068C298.786 350.188 299.853 383.254 299.853 383.254L307.959 371.308C310.306 367.468 309.879 371.094 309.879 371.094V392.001C314.786 387.521 320.119 373.015 320.119 373.015C321.399 369.601 322.253 372.374 322.253 372.374L325.026 381.548C333.346 360.002 316.706 346.988 316.706 346.988C294.306 324.375 292.172 314.561 292.172 314.561C285.985 304.108 298.146 302.614 298.146 302.614C310.093 303.894 326.732 330.347 326.732 330.347L331.852 326.081L348.066 344.853C350.626 349.974 347.853 352.96 347.853 352.96L338.252 360.427C334.839 362.774 338.039 366.4 338.039 366.4L334.199 370.88C333.772 373.227 335.906 379.841 335.906 379.841L342.732 371.094C344.226 371.947 346.999 371.094 346.999 371.094L355.106 360.427C357.239 363.627 356.173 366.4 356.173 366.4C351.906 374.507 357.239 378.347 357.239 378.347L359.373 378.987C360.013 381.121 358.137 392.001 358.137 392.001C364.582 387.948 368.333 378.561 368.333 378.561H370.466C371.533 374.294 368.333 367.467 367.48 365.121C366.626 362.774 366.626 360.854 366.626 360.854C376.226 370.027 381.133 368.107 381.133 368.107C386.253 365.974 388.386 375.787 388.386 375.787C395.427 365.12 384.546 361.28 384.546 361.28C384.973 357.654 382.626 357.227 382.626 357.227L372.386 352.107C369.4 350.613 374.52 349.333 374.52 349.333C378.787 347.413 381.56 344.107 381.56 344.107L385.08 342.507C390.84 339.627 394.68 344.107 394.68 344.107C393.08 334.827 383.8 335.787 383.8 335.787C379.32 337.707 377.4 335.787 377.4 335.787C373.88 334.827 371.64 336.747 371.64 336.747L362.36 344.107C357.239 341.867 339.96 320.105 339.96 320.105L345.08 314.985C333.24 302.185 329.08 293.225 329.08 293.225C323 283.625 333.88 290.025 333.88 290.025C351.481 304.425 389.242 323.626 389.242 323.626C408.121 330.346 414.842 323.626 414.842 323.626C425.403 316.586 415.909 313.493 415.909 313.493L352.761 269.972C345.081 262.719 354.895 266.986 354.895 266.986C384.334 278.506 400.121 279.359 400.121 279.359C428.708 283.626 435.962 276.372 435.962 276.372C449.188 268.692 439.374 263.999 439.374 263.999L439.373 263.999ZM220.703 252.265C194.462 249.491 179.742 217.705 179.742 217.705C168.862 225.599 162.462 224.105 162.462 224.105C163.315 218.132 178.036 213.865 178.036 213.865C165.235 203.198 169.289 192.958 169.289 192.958C179.956 196.585 180.596 212.158 180.596 212.158C190.409 205.332 198.089 207.038 198.089 207.038C193.609 215.572 182.302 215.785 182.302 215.785C200.224 246.932 220.703 246.932 220.703 246.932L220.703 252.265ZM238.836 137.917C247.583 135.57 252.276 137.917 252.276 137.917L240.756 146.024C237.982 142.184 238.836 137.917 238.836 137.917ZM255.796 307.306C255.796 307.306 232.65 281.493 232.436 229.012H279.156C279.156 229.012 280.223 277.866 255.796 307.306ZM331.74 217.705C331.74 217.705 317.02 249.493 290.78 252.265V246.932C290.78 246.932 311.261 246.932 329.18 215.785C329.18 215.785 317.873 215.572 313.393 207.038C313.393 207.038 321.073 205.332 330.887 212.158C330.887 212.158 331.527 196.585 342.194 192.958C342.194 192.958 346.247 203.198 333.447 213.865C333.447 213.865 348.167 218.132 349.02 224.105C349.02 224.105 342.62 225.599 331.74 217.705Z" fill="#E1020C"/>
<path d="M253.713 273.706H268.747V279.628H244.742V239.311H267.625V245.548H253.713V255.15H267.625V261.703H253.678L253.713 273.706Z" fill="#E1020C"/>
<path d="M230.34 114.987H276.9V108.587C276.9 108.587 282.98 93.5471 287.78 89.2276L267.299 98.1877L253.859 86.5076L240.419 98.1877L219.778 89.2276C219.778 89.2276 230.018 104.908 230.338 107.788L230.34 114.987Z" fill="#E1020C"/>
</g>
</g>
<defs>
<clipPath id="clip0_1_23397">
<rect width="512" height="512" fill="white"/>
</clipPath>
<clipPath id="clip1_1_23397">
<rect width="512" height="512" fill="white" transform="translate(0.104996 0.10498)"/>
</clipPath>
</defs>
</svg>
