<svg width="512" height="512" viewBox="0 0 512 512" fill="none" xmlns="http://www.w3.org/2000/svg">
<g clip-path="url(#clip0_1_23510)">
<path d="M256 494C397.412 494 511.85 387.297 511.85 256C511.85 124.703 397.412 18 256 18C114.588 18 0.149902 124.703 0.149902 256C0.149902 387.297 114.589 494 256 494Z" fill="white"/>
<path d="M213.359 257.984C208.4 205.822 180.039 165.363 150.091 167.742C120.143 170.121 99.9126 214.35 104.871 266.71C105.863 277.023 107.648 286.742 110.226 295.865C120.935 333.151 143.942 358.935 167.941 356.952C190.353 355.167 207.211 330.177 212.368 295.865C214.352 284.163 214.748 271.272 213.36 257.983L213.359 257.984ZM163.379 304.79C157.23 305.384 151.082 302.013 146.124 295.865C139.183 287.734 134.224 274.842 132.836 259.967C130.456 233.985 140.175 212.169 154.653 210.979C169.131 209.788 182.816 229.821 185.394 255.802C186.981 272.264 183.61 286.94 177.263 295.865C173.297 301.021 168.735 304.394 163.38 304.79H163.379Z" fill="#AE0F0A"/>
<path d="M256.396 467.027H255.404C236.96 467.027 217.126 464.25 200.268 460.284C229.621 409.708 234.382 359.927 234.382 359.927V196.5L137.793 111.811C99.7124 142.553 75.7138 187.773 75.7138 237.952C75.7138 306.576 120.141 365.481 184.004 391.462L163.774 448.384C83.8451 415.262 28.114 341.284 28.114 255.406C28.3122 153.66 106.257 68.7738 210.184 48.7417C211.176 48.5436 212.168 48.5436 213.158 48.5436C221.687 48.5436 228.628 54.494 228.628 62.0307C228.628 67.5837 224.662 72.5422 218.91 74.526C200.266 78.2944 182.615 84.6411 166.549 93.1698L255.402 171.115L345.247 93.1698C329.182 84.6411 311.729 78.2944 292.887 74.526C287.136 72.5422 283.168 67.783 283.168 62.0307C283.168 54.6921 290.109 48.5436 298.638 48.5436C299.63 48.5436 300.622 48.5436 301.613 48.7417C405.341 68.972 483.682 153.858 483.682 255.406C483.682 341.482 427.95 415.262 348.022 448.384L327.594 391.264C391.458 365.282 435.884 306.178 435.884 237.754C435.884 187.377 411.886 142.157 373.806 111.613L277.416 196.5V359.927C277.416 359.927 282.176 409.708 311.53 460.284C294.672 464.052 274.838 466.829 256.393 467.027H256.396Z" fill="#AE0F0A"/>
<path d="M397.412 241.324C403.957 275.834 381.148 323.236 337.119 355.564C329.978 360.72 328.392 363.695 323.235 366.273L313.12 337.118C319.269 334.143 321.451 332.953 329.384 327.003C350.01 311.929 361.316 291.501 357.944 274.445C355.762 262.743 346.638 251.24 331.565 262.347C320.061 270.677 313.318 277.222 303.6 287.734L303.798 203.838L373.412 144.139L372.818 181.426L335.928 210.581L336.324 235.174C339.1 232.596 341.282 230.612 346.637 226.844C371.032 209.192 392.651 215.737 397.411 241.322L397.412 241.324Z" fill="#AE0F0A"/>
<path d="M256 482.399C121.869 482.399 12.7441 380.927 12.7441 256.199C12.7441 131.472 121.869 29.6025 256 29.6025C390.131 29.6025 499.256 131.164 499.256 256C499.256 380.836 390.131 482.399 256 482.399ZM256 32.5772C123.508 32.5772 15.7188 132.893 15.7188 256.198C15.7188 379.503 123.508 479.423 256 479.423C388.491 479.423 496.281 379.196 496.281 256C496.281 132.804 388.491 32.5772 256 32.5772Z" fill="#AE0F0A"/>
</g>
<defs>
<clipPath id="clip0_1_23510">
<rect width="512" height="476" fill="white" transform="translate(0 18)"/>
</clipPath>
</defs>
</svg>
