<svg width="512" height="512" viewBox="0 0 512 512" fill="none" xmlns="http://www.w3.org/2000/svg">
<mask id="mask0_1_23699" style="mask-type:luminance" maskUnits="userSpaceOnUse" x="31" y="9" width="449" height="499">
<path d="M31.9578 9.33313H479.491V507.952H31.9578V9.33313Z" fill="white"/>
</mask>
<g mask="url(#mask0_1_23699)">
<path d="M32.0901 9.33323L32.0637 18.2609C32.0637 23.1375 32.0373 28.1946 32.0109 33.3288C31.9078 52.8864 31.8298 75.0246 32.3979 98.4529C33.3784 138.523 35.9327 184.995 47.234 225.756C61.2959 276.354 81.9632 320.965 110.448 362.142C144.713 411.682 191.753 459.365 250.322 503.845L255.74 507.947L261.133 503.845C319.677 459.362 366.738 411.708 400.98 362.142C429.491 320.962 450.158 276.353 464.194 225.756C476.14 182.77 478.411 135.112 479.056 98.4C479.314 82.558 479.288 67.6446 479.236 53.2213C479.183 40.9395 479.159 29.3545 479.339 18.4406L479.468 9.35832H470.386L41.0167 9.33252L32.0901 9.33323Z" fill="white"/>
</g>
<path d="M255.678 496.743C193.599 449.577 149.32 402.697 117.767 357.074C85.8502 310.915 67.6341 265.842 55.8166 223.371C44.9543 184.178 42.3222 139.801 41.3162 98.2337C40.5938 68.8713 40.929 41.9858 40.9806 18.2966H470.35C469.963 42.0082 470.582 68.868 470.066 98.2337C469.343 139.801 466.428 184.181 455.539 223.371C443.748 265.84 425.532 310.917 393.589 357.074C362.06 402.692 317.781 449.575 255.678 496.743Z" fill="#D40723"/>
<path d="M49.9242 27.2401C51.7561 140.844 25.6703 311.188 255.692 485.943C485.74 311.214 459.656 140.871 461.485 27.2665L49.9242 27.2401Z" fill="white"/>
<path d="M342.802 259.019L348.685 258.297C348.891 259.793 349.381 260.954 350.207 261.754C351.033 262.554 352.039 262.941 353.2 262.941C354.439 262.941 355.522 262.451 356.374 261.522C357.225 260.567 357.664 259.277 357.664 257.651C357.664 256.129 357.251 254.916 356.425 254.013C355.6 253.136 354.593 252.672 353.406 252.672C352.632 252.672 351.704 252.826 350.62 253.136L351.291 248.182C352.942 248.209 354.181 247.872 355.058 247.098C355.935 246.35 356.348 245.344 356.348 244.08C356.348 243.022 356.038 242.17 355.419 241.525C354.774 240.906 353.923 240.571 352.865 240.571C351.833 240.571 350.955 240.932 350.207 241.654C349.485 242.377 349.02 243.435 348.865 244.828L343.266 243.873C343.653 241.938 344.247 240.416 345.021 239.255C345.821 238.119 346.904 237.216 348.324 236.545C349.717 235.9 351.291 235.565 353.045 235.565C356.038 235.565 358.438 236.52 360.218 238.429C361.715 240.003 362.463 241.757 362.463 243.718C362.463 246.505 360.94 248.724 357.896 250.375C359.702 250.762 361.173 251.64 362.256 253.007C363.34 254.349 363.882 256 363.882 257.909C363.882 260.696 362.876 263.07 360.837 265.031C358.799 266.991 356.27 267.972 353.252 267.972C350.362 267.972 347.988 267.146 346.105 265.495C344.195 263.844 343.111 261.677 342.802 259.019ZM332.275 246.814C332.275 244.853 331.81 243.331 330.933 242.247C330.004 241.164 328.972 240.622 327.785 240.622C326.676 240.622 325.721 241.06 324.998 241.938C324.25 242.841 323.863 244.286 323.863 246.298C323.863 248.362 324.276 249.859 325.076 250.814C325.901 251.794 326.908 252.258 328.12 252.258C329.282 252.258 330.262 251.794 331.062 250.891C331.862 249.962 332.275 248.594 332.275 246.814ZM318.497 260.102L324.405 259.457C324.534 260.644 324.921 261.547 325.515 262.114C326.134 262.682 326.934 262.966 327.914 262.966C329.179 262.966 330.236 262.398 331.114 261.237C332.017 260.076 332.559 257.702 332.817 254.064C331.269 255.819 329.359 256.722 327.089 256.722C324.586 256.722 322.418 255.767 320.612 253.832C318.806 251.897 317.903 249.394 317.903 246.298C317.903 243.099 318.858 240.493 320.767 238.532C322.676 236.545 325.128 235.564 328.069 235.564C331.295 235.564 333.926 236.829 335.99 239.306C338.055 241.809 339.087 245.885 339.087 251.588C339.087 257.393 338.003 261.573 335.861 264.153C333.72 266.707 330.933 267.997 327.45 267.997C324.999 267.997 322.986 267.326 321.464 266.01C319.916 264.695 318.935 262.734 318.497 260.102ZM176.457 257.78C176.457 259.457 176.87 260.773 177.747 261.702C178.599 262.63 179.657 263.121 180.947 263.121C182.211 263.121 183.243 262.656 184.069 261.753C184.894 260.85 185.307 259.56 185.307 257.857C185.307 256.361 184.869 255.174 184.043 254.271C183.217 253.368 182.159 252.929 180.869 252.929C179.373 252.929 178.263 253.419 177.541 254.451C176.818 255.483 176.457 256.593 176.457 257.78ZM176.999 244.182C176.999 245.395 177.36 246.349 178.031 247.02C178.728 247.691 179.631 248.052 180.792 248.052C181.927 248.052 182.856 247.691 183.553 247.02C184.249 246.324 184.585 245.369 184.585 244.182C184.585 243.021 184.249 242.118 183.553 241.421C182.882 240.75 181.953 240.389 180.843 240.389C179.682 240.389 178.753 240.751 178.057 241.447C177.36 242.144 176.999 243.047 176.999 244.182ZM175.76 250.323C174.186 249.652 173.051 248.749 172.329 247.588C171.606 246.401 171.245 245.137 171.245 243.769C171.245 241.396 172.071 239.435 173.722 237.887C175.373 236.338 177.721 235.564 180.792 235.564C183.785 235.564 186.133 236.338 187.81 237.887C189.461 239.435 190.313 241.396 190.313 243.769C190.313 245.214 189.926 246.556 189.152 247.691C188.403 248.826 187.32 249.704 185.926 250.323C187.681 251.02 189.022 252.052 189.951 253.419C190.854 254.761 191.319 256.335 191.319 258.115C191.319 261.031 190.39 263.43 188.506 265.262C186.649 267.068 184.172 267.997 181.05 267.997C178.186 267.997 175.786 267.249 173.851 265.726C171.581 263.946 170.445 261.495 170.445 258.373C170.445 256.644 170.884 255.07 171.735 253.625C172.587 252.206 173.928 251.097 175.76 250.323ZM161.44 267.429H155.377V244.517C153.158 246.581 150.526 248.129 147.507 249.135V243.614C149.107 243.072 150.81 242.091 152.694 240.646C154.551 239.201 155.816 237.499 156.512 235.563H161.44V267.429Z" fill="#D40723"/>
<path d="M367.704 46.0715C351.01 39.1049 333.388 39.4921 320.487 46.923C309.108 53.5025 301.419 65.5776 301.316 82.9422C301.135 86.5029 300.258 90.1671 298.736 93.7016L298.633 93.5726C293.008 102.887 283.59 112.176 273.063 111.402C271.18 102.009 264.988 89.2118 259.027 81.0325C265.452 81.3679 275.953 88.1021 278.25 92.953C283.513 87.2508 290.996 73.0084 289.293 61.5264C278.818 61.5264 268.626 59.0753 258.151 54.5856C258.151 61.6552 245.894 78.6328 237.38 82.4777C241.638 88.7733 245.224 102.5 245.044 114.807C238.748 119.968 230.44 120.922 223.731 120.793C218.597 112.821 211.682 106.937 211.605 96.9264C211.502 86.5542 221.745 71.615 232.788 61.9389L227.292 55.1012C220.402 57.4749 214.494 61.4484 209.282 66.6861L208.998 66.2733C202.702 57.1653 191.891 40.8067 176.177 37.0397C171.688 38.5878 165.521 48.0315 160.929 57.6812C144.003 61.1386 130.585 73.3945 125.012 83.741C119.181 78.8644 115.001 73.7815 114.692 67.3308C113.866 49.7594 136.752 52.6493 147.976 57.6812L148.079 44.935C131.385 37.9684 113.737 38.3555 100.862 45.8122C89.4834 52.3659 81.7948 64.4411 81.6917 81.8057C81.6653 93.6489 74.3639 103.196 59.0119 108.201C65.6944 111.117 74.9054 108.898 87.1615 105.234C81.1755 113.645 73.9768 117.954 58.9861 121.205C68.3524 124.431 82.8787 123.14 96.0377 118.857C92.6319 126.262 81.3563 132.661 60.1732 135.112C78.6732 141.279 87.6008 139.292 106.642 133.642C133.296 125.72 150.583 147.394 119.492 154.928C111.958 156.76 102.72 153.38 93.4062 149.484L84.5821 160.321C96.7345 166.616 117.608 171.544 127.516 171.364C157.963 170.771 170.528 146.697 162.943 122.496C158.092 107.066 144.442 98.0357 132.909 89.7275C143.075 75.8717 179.662 59.9266 192.666 92.2304C186.835 106.008 184.204 120.716 184.771 131.552C185.777 150.929 205.722 169.042 193.028 178.795C189.931 180.988 181.933 184.214 175.843 186.175C149.371 184.626 133.348 171.054 113.145 170.074C97.9989 169.352 85.9495 170.693 78.1831 182.072C67.1912 198.224 77.125 225.239 101.353 225.729C101.611 216.131 103.985 210.996 105.739 207.487C98.3083 207.487 81.8983 208.751 81.8983 198.018C81.9247 192.548 86.5683 190.793 91.8576 190.664C118.382 190.071 141.655 224.877 172.977 226.967C173.209 211.46 196.147 193.27 213.924 205.655C222.516 193.064 221.071 182.098 215.653 173.196C224.89 162.978 228.992 151.342 229.173 139.008C229.226 135.912 228.864 133.177 228.219 130.7C233.947 129.849 241.197 127.991 245.068 125.23V237.209C250.28 236.487 251.776 235.61 256.549 231.765V213.395C261.813 212.724 267.619 212.492 273.166 207.847V121.668C282.996 121.23 297.729 116.147 306.992 105.722C307.069 105.697 307.121 105.697 307.172 105.671C304.36 115.811 296.439 124.997 281.474 128.222C292.594 131.783 306.038 127.396 316.384 119.991C313.701 127.396 302.761 139.678 282.635 142.129C301.135 148.296 308.643 141.794 327.685 136.143C354.339 128.222 370.232 148.528 339.141 156.062C331.607 157.894 322.344 154.514 313.056 150.618L304.206 161.429C316.358 167.75 337.232 172.678 347.166 172.472C376.606 171.93 389.326 149.38 383.237 125.977C409.477 127.861 430.532 171.853 408.599 183.386C399.723 188.056 392.035 186.663 383.262 184.857C363.885 180.935 349.41 172.033 332.794 171.259C317.648 170.537 305.599 171.827 297.832 183.206C286.815 199.357 296.775 226.372 320.977 226.862C321.261 217.239 323.634 212.129 325.389 208.595C317.932 208.595 301.522 209.859 301.548 199.151C301.548 193.681 306.192 191.901 311.481 191.798C338.031 191.204 361.305 226.011 392.627 228.101C392.833 212.594 415.771 194.403 433.575 206.788C442.373 193.888 440.644 182.664 434.865 173.659C444.489 161.068 450.423 148.141 448.746 137.304C447.508 119.011 431.382 113.36 431.227 98.0596C431.123 87.6873 441.393 72.7482 452.41 63.0721L446.94 56.2343C440.257 58.5307 433.909 62.3236 428.491 67.2004C422.17 58.0409 411.41 41.9148 395.826 38.1735C391.311 39.7216 385.144 49.1654 380.551 58.815C363.651 62.2725 350.26 74.2185 344.687 84.565C337.901 78.8886 328.999 67.0974 337.591 58.815C344.222 52.4677 359.187 55.048 367.625 58.815L367.704 46.0715ZM378.231 110.886C371.858 100.823 360.377 93.8825 351.526 88.4384C357.409 80.4143 373.148 70.661 387.055 70.9965C407 71.4609 422.997 94.9406 403.956 109.08C399.569 112.331 392.319 112.485 378.231 110.886Z" fill="#D40723"/>
<path d="M255.678 475.144C175.127 413.968 127.549 353.336 98.9814 294.608C173.139 292.312 221.747 271.103 255.678 245.275C296.187 273.27 349.935 296.182 412.375 294.582C383.838 353.307 336.236 413.939 255.678 475.144Z" fill="black"/>
<path d="M255.678 464.311C182.71 408.889 141.632 356.097 114.623 303.44C169.478 298.924 218.709 283.753 255.678 256.583C292.704 283.727 341.91 298.924 396.761 303.44C369.746 356.101 328.667 408.893 255.678 464.311Z" fill="#FFDC00"/>
<path d="M228.002 401.098C230.453 400.763 232.982 400.453 235.536 400.169C228.002 385.617 238.09 373.31 251.559 373.026C241.316 382.805 241.6 393.435 249.031 398.854C253.907 398.467 255.017 398.312 259.997 398.08C251.25 384.972 260.9 373.568 274.187 372.071C267.763 378.47 264.46 390.313 272.355 397.615C276.845 397.512 279.141 397.461 283.605 397.486C278.47 383.966 288.688 375.529 299.834 375.142C293.719 380.586 289.075 391.501 296.248 398.673C299.731 399.37 303.343 399.319 309.2 401.047C313.019 402.982 316.141 406.001 317.044 408.427C269.826 402.699 262.834 404.144 227.872 409.923C213.759 417.328 207.128 419.289 200.058 412.71C198.846 410.955 199.878 406.388 204.729 405.382C204.676 402.157 207.025 400.376 209.605 399.602C216.288 397.564 219.745 403.214 228.002 401.098ZM206.406 360.357C209.038 359.97 211.721 359.609 214.457 359.3C205.555 344.696 215.489 330.556 229.912 330.247C219.798 341.471 220.958 351.56 228.905 357.803C234.117 357.339 239.406 356.978 244.747 356.694C234.143 344.18 246.553 329.809 260.77 328.08C253.907 335.434 249.547 347.767 257.958 356.178C262.783 356.049 267.608 355.998 272.381 355.998C265.183 342.168 277.8 330.789 289.72 330.325C283.192 336.595 278.419 348.077 286.082 356.308C291.191 356.488 296.196 356.798 301.021 357.185C296.532 347.406 302.853 339.304 315.083 336.956C309.846 342.762 306.801 350.967 312.116 358.295C318.824 359.094 326.797 362.139 332.499 363.403C338.124 366.654 339.801 367.661 344.317 370.911C291.784 362.835 234.656 364.667 206.253 370.524C191.159 379.014 184.064 381.284 176.53 373.698C175.24 371.686 176.323 366.448 181.535 365.261C181.432 358.733 187.031 358.398 192.527 358.398C196.991 362.552 201.401 361.725 206.406 360.357ZM188.502 321.837C191.754 321.424 197.223 319.772 200.629 319.411C190.618 300.963 204.009 282.179 222.302 283.959C208.705 296.344 207.827 309.606 217.684 316.47C224.134 315.98 228.598 315.154 235.229 314.819C225.45 299.131 237.861 278.774 254.477 280.812C245.111 289.327 241.576 305.427 252.052 314.664C258.012 314.535 263.998 314.484 269.932 314.509C263.095 297.351 275.815 279.703 293.979 285.121C284.613 287.779 277.415 305.737 286.936 314.819C293.257 315.052 299.449 315.361 305.461 315.8C301.462 302.666 309.022 288.656 325.87 294.1C318.078 299.26 312.634 308.936 319.213 317.012C327.547 317.915 337.43 319.799 344.499 321.218C351.492 324.443 357.684 329.655 360.419 331.178C295.269 322.276 232.7 323.231 189.613 332.029C170.856 341.395 160.793 343.485 151.427 335.099C149.827 332.906 151.195 327.101 157.645 325.811C157.516 318.586 164.483 318.226 171.269 318.226C176.816 322.792 182.284 323.385 188.502 321.837Z" fill="black"/>
</svg>
