<svg width="512" height="512" viewBox="0 0 512 512" fill="none" xmlns="http://www.w3.org/2000/svg">
<g clip-path="url(#clip0_1_23720)">
<g clip-path="url(#clip1_1_23720)">
<path fill-rule="evenodd" clip-rule="evenodd" d="M256.739 0.108398L86.0722 256.11L256.739 512.11L427.404 256.11L256.739 0.108398Z" fill="#1D9053"/>
<path fill-rule="evenodd" clip-rule="evenodd" d="M256.74 11.4592L93.6418 256.109L256.74 500.757L419.838 256.109L256.74 11.4592ZM106.69 256.109L256.74 31.0321L406.79 256.109L256.74 481.186L106.69 256.109Z" fill="white"/>
<path fill-rule="evenodd" clip-rule="evenodd" d="M291.976 409.967C291.976 409.967 343.121 310.66 343.121 233.944C343.121 157.227 302.632 105.231 260.01 105.231C228.046 105.231 216.966 129.524 216.966 143.59C216.966 157.656 230.603 169.588 242.963 169.588C257.88 169.588 263.332 159.717 263.332 159.717C282.175 170.866 315.419 187.914 313.713 256.106C312.519 303.827 306.041 311.941 297.091 340.07C283.453 304.269 256.177 244.173 256.177 244.173L213.129 338.364C213.129 338.364 195.389 297.865 194.376 240.764C194.255 233.944 194.255 230.939 196.937 206.22C216.112 206.22 227.194 198.569 227.194 181.092C227.194 164.223 212.277 155.521 201.623 155.521C190.968 155.521 164.117 166.177 164.117 216.896C164.117 305.12 220.802 408.689 220.802 408.689L256.178 338.365L291.976 409.967Z" fill="white"/>
</g>
</g>
<defs>
<clipPath id="clip0_1_23720">
<rect width="504.889" height="512" fill="white" transform="translate(3.99989)"/>
</clipPath>
<clipPath id="clip1_1_23720">
<rect width="341.333" height="512" fill="white" transform="translate(86.0722 0.108398)"/>
</clipPath>
</defs>
</svg>
