<svg width="441" height="419" viewBox="0 0 441 419" fill="none" xmlns="http://www.w3.org/2000/svg">
<g clip-path="url(#clip0_1849_699)">
<path d="M293.43 123.44C293.186 123.94 292.703 124.285 292.149 124.349C279.521 125.814 266.103 124.058 260.93 123.246C252.294 114.618 242.945 105.021 236.053 96.634C235.71 96.2151 235.515 95.6946 235.499 95.1535C235.482 94.6124 235.645 94.081 235.962 93.642C245.791 79.939 254.792 69.066 258.597 64.761C269.469 62.391 280.31 60.294 287.631 59.994C287.903 59.9831 288.173 60.0397 288.418 60.1587C288.663 60.2777 288.875 60.4554 289.034 60.676C298.471 73.802 305.221 86.379 307.387 90.975C303.054 102.617 297.841 114.377 293.43 123.44ZM281.382 145.648C274.421 157.302 269.133 164.328 267.438 166.464C265.138 169.711 259.275 178.17 250.167 186.726C249.584 187.271 248.826 187.588 248.029 187.621C236.623 188.096 226.018 187.296 221.888 186.395C218.391 184.949 210.252 181.289 200.632 175.97C200.222 175.743 199.885 175.405 199.66 174.994C199.435 174.583 199.332 174.116 199.362 173.649C199.864 166.192 202.23 155.57 204.323 144.337C209.498 135.25 214.863 124.882 220.426 116.366C220.712 115.929 221.129 115.594 221.617 115.409C222.106 115.224 222.64 115.198 223.144 115.336C239.801 119.883 254.255 123.336 260.123 124.656C268.158 133.973 275.944 140.524 281.182 144.585C281.508 144.838 281.592 145.294 281.382 145.648ZM180.602 161.843C180.19 162.1 179.711 162.229 179.225 162.215C178.739 162.201 178.269 162.044 177.872 161.764C170.619 156.63 161.965 150.069 154.757 143.334C150.505 136.068 147.226 126.769 144.937 118.85C144.865 118.598 144.854 118.333 144.907 118.076C144.959 117.82 145.073 117.58 145.239 117.377C153.327 107.434 163.034 99.567 167.092 96.572C176.247 100.522 186.755 104.005 195.947 107.062C196.407 107.214 196.812 107.497 197.111 107.878C197.41 108.259 197.59 108.719 197.629 109.202C198.925 125.554 201.921 138.778 202.721 143.831C199.289 147.498 190.321 155.811 180.602 161.843ZM140.316 97.501C139.116 89.781 138.327 81.675 138.24 77.962C138.041 69.389 139.403 61.796 140.985 54.766C141.242 53.6159 141.845 52.5722 142.713 51.775C147.308 47.566 155.617 40.141 160.861 36.778C165.804 33.608 179.542 29.174 185.207 27.528C185.741 27.3747 186.311 27.406 186.825 27.6166C187.339 27.8273 187.767 28.2051 188.04 28.689C188.723 29.8935 189.439 31.0787 190.188 32.243C194.648 39.186 199.563 45.163 201.633 47.752C198.889 58.646 197.723 70.861 197.192 81.165C197.166 81.6384 197.004 82.0943 196.726 82.4782C196.448 82.8621 196.065 83.1578 195.623 83.33C181.29 88.92 170.457 93.295 166.817 94.975C156.969 95.391 147.589 97.069 141.258 98.175C141.152 98.1939 141.043 98.1913 140.938 98.1675C140.833 98.1438 140.733 98.0992 140.645 98.0366C140.558 97.9739 140.483 97.8943 140.427 97.8025C140.37 97.7107 140.333 97.6075 140.316 97.501ZM212.57 22.685C212.764 22.3842 213.021 22.1293 213.324 21.9378C213.626 21.7463 213.967 21.6228 214.322 21.576C229.061 19.629 242.546 19.343 247.729 19.486C257.161 25.758 266.378 34.033 273.734 41.881C274.249 42.431 274.326 43.259 273.919 43.895C268.67 52.103 261.036 59.985 257.683 63.417C245.247 66.36 232.063 70.644 221.362 74.156C220.854 74.3211 220.307 74.318 219.801 74.1472C219.296 73.9764 218.859 73.6471 218.555 73.208C210.435 61.414 205.275 51.303 203.252 47.552C205.448 37.719 208.519 28.962 212.57 22.687V22.685ZM311.025 119.502C310.964 119.529 310.897 119.541 310.83 119.537C310.763 119.533 310.698 119.512 310.641 119.477C310.583 119.442 310.536 119.394 310.501 119.337C310.467 119.279 310.447 119.214 310.443 119.147C309.825 107.04 308.711 95.276 308.128 90.974C308.175 80.518 306.441 69.668 304.711 61.668C304.697 61.6011 304.699 61.5317 304.718 61.466C304.738 61.4004 304.773 61.3405 304.821 61.2919C304.869 61.2433 304.929 61.2074 304.994 61.1875C305.06 61.1676 305.129 61.1644 305.196 61.178C315.09 63.198 318.266 66.903 318.266 66.903C313.028 55.162 305.481 46.313 297.278 39.627C290.265 24.947 282.193 18.157 282.193 18.157C282.846 21.404 282.396 25.076 281.239 28.866C281.221 28.9227 281.191 28.9749 281.151 29.0189C281.111 29.0629 281.062 29.0978 281.007 29.1212C280.953 29.1446 280.894 29.1558 280.834 29.1542C280.775 29.1527 280.716 29.1382 280.663 29.112C267.221 22.541 253.341 19.54 247.972 18.789C239.949 14.89 231.186 12.31 224.06 10.355C224.017 10.3428 223.978 10.3191 223.947 10.2864C223.917 10.2537 223.896 10.2132 223.887 10.1694C223.878 10.1257 223.881 10.0802 223.895 10.038C223.91 9.99576 223.936 9.95842 223.971 9.93C233.429 2.083 242.129 0.0860029 242.129 0.0860029C226.727 -0.530997 213.47 2.254 202.385 6.512C185.823 5.186 175.273 8.065 175.273 8.065C175.273 8.065 179.846 13.535 181.624 16.581C181.726 16.7598 181.757 16.9705 181.711 17.1711C181.665 17.3718 181.545 17.5477 181.375 17.664C170.958 24.882 163.484 32.812 160.537 36.113C157.254 36.557 151.568 37.341 146.602 38.565C146.557 38.5759 146.511 38.5743 146.467 38.5601C146.423 38.546 146.384 38.5199 146.355 38.485C146.325 38.45 146.306 38.4074 146.299 38.362C146.292 38.3166 146.298 38.2702 146.316 38.228C151.289 26.39 156.71 19.837 156.71 19.837C156.71 19.837 124.746 42.517 118.687 83.275C118.687 83.275 121.319 76.05 130.219 65.1C130.246 65.0673 130.281 65.042 130.32 65.0264C130.359 65.0108 130.402 65.0055 130.444 65.0109C130.486 65.0163 130.526 65.0322 130.56 65.0573C130.594 65.0823 130.621 65.1156 130.639 65.154C133.161 70.734 136.044 75.688 137.493 77.962C132.598 85.836 129.219 94.422 127.138 101.447C127.102 101.568 127.039 101.679 126.953 101.771C126.867 101.863 126.76 101.933 126.642 101.977C119.239 104.785 117.353 107.464 117.353 107.464C118.504 111.392 120.764 115.221 123.619 118.83C123.867 119.142 123.993 119.532 123.976 119.93C123.19 137.324 128.806 148.773 128.806 148.773C130.074 142.698 132.557 136.797 135.693 131.259C135.723 131.207 135.763 131.162 135.812 131.128C135.86 131.093 135.916 131.069 135.974 131.058C136.033 131.046 136.093 131.048 136.151 131.062C136.209 131.076 136.263 131.103 136.31 131.14C143.616 136.938 151.184 142.007 154.187 143.807C155.736 147.759 160.171 158.014 166.097 168.535C166.126 168.587 166.144 168.645 166.149 168.704C166.154 168.764 166.146 168.824 166.126 168.88C166.105 168.936 166.072 168.987 166.03 169.029C165.988 169.072 165.937 169.104 165.881 169.125C158.785 171.708 151.505 172.877 144.83 171.253C144.83 171.253 152.88 181.273 177.712 185.546C184.601 193.68 192.985 200.416 202.776 202.756C202.776 202.756 199.906 199.604 199.197 187.858C199.193 187.802 199.201 187.745 199.22 187.692C199.24 187.638 199.27 187.59 199.309 187.549C199.348 187.508 199.395 187.475 199.447 187.453C199.499 187.431 199.555 187.42 199.612 187.421C205.743 187.513 214.06 187.646 221.673 187.094C224.371 189.219 230.259 193.884 236.002 196.857C236.288 197.005 236.306 197.407 236.031 197.574C225.936 203.671 219.219 204.202 219.219 204.202C264.946 205.175 292.401 175.387 292.401 175.387C284.869 180.337 276.171 183.413 267.513 185.247C267.446 185.262 267.376 185.259 267.31 185.239C267.244 185.22 267.184 185.184 267.136 185.136C267.087 185.087 267.052 185.027 267.033 184.961C267.013 184.895 267.011 184.825 267.026 184.758C268.634 176.989 268.183 169.478 268.07 166.83C278.919 164.142 288.383 159.3 295.39 154.35C295.531 154.25 295.72 154.25 295.863 154.348C298.78 156.375 301.276 158.649 303.767 162.435C303.767 162.435 308.511 155.731 310.143 140.198C321.889 124.882 323.635 109.205 323.635 109.205C320.688 113.808 316.238 117.125 311.025 119.502ZM220.495 270.732C200.882 270.732 183.088 279.489 172.234 292.437L175.677 296.679C185.534 284.439 202.303 276.023 220.495 276.023C238.689 276.023 255.457 284.439 265.314 296.679L268.757 292.437C257.902 279.489 240.109 270.732 220.495 270.732ZM174.618 273.481C173.328 274.528 171.828 275.039 170.504 274.882C168.826 274.69 167.807 274.004 166.137 271.947L156.519 260.148L151.333 264.354L161.808 277.214C164.034 279.937 166.572 281.395 169.563 281.669C169.917 281.702 170.267 281.72 170.613 281.723C173.513 281.748 176.206 280.728 178.816 278.621C181.723 276.251 183.319 273.5 183.693 270.21C184.033 267.229 183.122 264.452 180.902 261.722L170.429 248.866L165.243 253.072L174.857 264.877V264.879C176.533 266.928 176.996 268.065 176.841 269.746C176.725 271.069 175.915 272.431 174.618 273.481ZM210.088 236.309L193.288 239.712C192.521 239.867 191.914 240.25 191.537 240.822C191.156 241.393 191.039 242.098 191.194 242.863L194.542 259.324C195.087 262.001 196.29 263.929 198.118 265.055C199.327 265.799 200.777 266.171 202.448 266.17C203.3 266.169 204.207 266.071 205.17 265.876L215.67 263.75L214.407 257.536L204.192 259.606C202.101 260.028 201.422 259.797 200.945 257.455L200.586 255.689L212.401 253.296L211.152 247.153L199.336 249.545L198.439 245.138L211.352 242.522L210.088 236.309ZM242.756 245.291L252.823 247.893L254.414 241.767L244.062 239.091C238.388 237.624 234.502 239.744 233.122 245.059L228.895 261.337C228.7 262.093 228.779 262.802 229.126 263.392C229.473 263.981 230.056 264.395 230.813 264.591L234.656 265.584L237.38 255.056L249.031 258.068L250.605 252.013L238.95 248.999L239.403 247.259C240.002 244.951 240.692 244.757 242.756 245.291ZM294.993 260.158L298.547 255.779C296.772 254.005 294.932 252.297 293.031 250.659C273.144 233.528 247.383 224.095 220.495 224.095C193.607 224.095 167.848 233.528 147.959 250.659C146.059 252.298 144.219 254.005 142.443 255.778L145.997 260.157C147.804 258.331 149.682 256.577 151.627 254.899C170.497 238.647 194.954 229.697 220.495 229.697C246.036 229.697 270.493 238.647 289.362 254.899C291.308 256.577 293.186 258.331 294.993 260.158ZM267.863 281.89L269.016 277.921L264.056 274.223L268.05 271.368L270.363 273.102L272.99 264.263L257.746 274.099L251.497 270.571L275.408 255.13C276.33 254.534 277.591 254.009 279.187 255.234L280.209 256.02C281.82 257.258 281.59 258.676 281.275 259.635L273.338 286.891L267.863 281.89ZM155.333 410.97H137.699V397.457H148.208L152.51 401.118H152.654V387.323H152.51L148.208 390.984H137.699V379.229H154.699L159.637 384.509H159.777L159.213 372.823H122.955V372.966L126.274 376.977V413.294L122.955 417.304V417.445H160.765L161.682 404.003H161.539L155.333 410.97ZM161.995 321.154L174.482 352.967H181.465L193.034 320.804L195.007 348.812L190.633 352.823V352.967H209.607V352.823L205.942 348.812L203.258 312.495L206.152 308.484V308.345H190.353L179.63 338.113L168.061 308.345H152.05V308.484L155.296 312.495L153.389 348.812L149.513 352.823V352.967H165.098V352.823L161.221 348.812L161.995 321.154ZM109.491 410.899H94.186V376.977L98.35 372.966V372.823H79.442V372.966L82.762 376.977V413.294L79.442 417.233V417.445H114.922L116.618 403.442H116.473L109.491 410.899ZM75.321 352.823V352.967H93.31V352.823L89.991 348.812V312.495L93.31 308.484V308.345H75.321V308.484L78.567 312.495V326.009H62.556V312.495L65.801 308.484V308.345H47.813V308.484L51.129 312.495V348.812L47.813 352.823V352.967H65.801V352.823L62.556 348.812V333.118H78.566V348.812L75.321 352.823ZM356.261 410.97H338.626V397.457H349.134L353.437 401.118H353.58V387.323H353.437L349.134 390.984H338.626V379.229H355.627L360.563 384.509H360.703L360.141 372.823H323.883V372.966L327.201 376.977V413.294L323.883 417.304V417.445H361.692L362.61 404.003H362.466L356.261 410.97ZM194.381 399.638L189.093 381.906L182.884 399.638H194.381ZM210.181 413.294L213.849 417.304V417.445H194.736V417.304L198.404 413.294L196.359 406.327H180.559L178.158 413.294L181.615 417.304V417.445H166.662V417.304L170.19 413.294L183.944 376.977L181.333 372.966V372.823H196.498L210.181 413.294ZM26.941 347.054C17.769 347.054 11.915 337.762 11.915 329.737C11.915 319.885 17.275 313.482 24.964 313.482C27.009 313.482 28.986 313.693 30.75 314.182L37.661 322.701H37.804L37.31 308.624C35.333 307.851 31.033 306.793 25.74 306.793C9.37897 306.793 -0.00402832 317.915 -0.00402832 330.724C-0.00402832 343.394 9.02397 354.511 24.542 354.511C28.704 354.511 34.841 353.106 39.072 349.939L39.707 342.549H39.567C35.971 345.363 30.817 347.054 26.941 347.054ZM283.791 352.823L280.546 348.812V312.495L283.791 308.484V308.345H265.803V308.484L269.119 312.495V348.812L265.803 352.823V352.967H283.791V352.823ZM244.333 396.542L248.775 400.557V408.932C247.363 410.549 244.895 411.885 241.582 411.885C233.681 411.885 229.519 402.244 229.519 394.15C229.519 385.352 233.965 377.963 243.133 377.963C245.672 377.963 248.353 378.175 250.538 378.946L257.593 386.546H257.733L257.309 374.302C253.219 372.19 248.281 371.279 243.273 371.279C228.25 371.279 217.598 380.498 217.598 395.699C217.598 408.435 225.781 418.996 238.547 418.996C244.121 418.996 249.198 417.727 253.924 414.281L259.494 418.996H259.638V400.557L263.163 396.542V396.402H244.333V396.542ZM232.658 331.289C234.07 331.711 235.69 331.921 237.384 331.921C243.593 331.921 246.273 328.543 246.273 323.545C246.273 317.632 242.816 314.819 236.395 314.819H232.658V331.289ZM221.233 348.812V312.495L217.915 308.484V308.345H239.078C251.916 308.345 257.77 314.182 257.77 323.056C257.77 332.274 250.787 337.974 241.265 337.974C238.162 337.974 234.987 337.762 232.658 337.201V348.812L237.313 352.823V352.967H217.915V352.823L221.233 348.812ZM327.803 333.891C327.803 326.151 324.912 313.833 315.034 313.833C307.134 313.833 304.877 321.715 304.877 327.063C304.877 334.877 308.123 347.475 317.647 347.475C324.486 347.475 327.803 340.998 327.803 333.891ZM315.952 354.511C301.986 354.511 292.958 343.039 292.958 330.023C292.958 316.578 303.326 306.793 316.306 306.793C330.623 306.793 339.794 317.986 339.794 330.795C339.794 345.434 328.72 354.511 315.952 354.511ZM301.035 372.966L304.704 376.977V402.387C304.704 409.705 301.107 411.535 295.252 411.535C289.326 411.535 285.73 409.844 285.73 402.387V376.977L289.398 372.966V372.823H270.986V372.966L274.303 376.977V402.387C274.303 414.559 280.51 418.996 293.769 418.996C305.832 418.996 311.969 414.842 311.969 402.737V376.977L315.211 372.966V372.823H301.035V372.966ZM386.226 378.449C386.226 375.277 383.815 372.879 380.773 372.879C377.698 372.879 375.291 375.277 375.291 378.449C375.291 381.686 377.698 384.068 380.773 384.068C383.815 384.068 386.226 381.686 386.226 378.449ZM387.579 378.449C387.579 382.343 384.436 385.183 380.773 385.183C377.078 385.183 373.94 382.343 373.94 378.449C373.94 374.602 377.078 371.758 380.773 371.758C384.436 371.758 387.579 374.602 387.579 378.449ZM380.763 377.985C381.755 377.985 382.648 377.931 382.648 376.736C382.648 375.773 381.776 375.599 380.949 375.599H379.346V377.985H380.763ZM381.865 378.932L384.055 382.342H382.749L380.71 378.987H379.346V382.342H378.179V374.602H381.133C382.967 374.602 383.87 375.277 383.87 376.801C383.87 378.187 382.998 378.785 381.865 378.932ZM378.933 308.484L383.237 312.495V336.143L365.107 308.345H348.813V308.484L352.13 312.495V348.812L348.813 352.823V352.967H363.696V352.823L359.325 348.812V319.251L381.964 352.967H390.43V312.495L393.744 308.484V308.345H378.933V308.484ZM424.417 325.518C416.305 323.266 413.837 322.28 413.837 318.551C413.837 314.258 419.411 313.411 422.937 313.411C425.9 313.411 428.651 313.761 431.12 314.537L437.891 321.858H438.031L437.468 309.257C433.233 307.641 428.791 306.793 423.714 306.793C413.062 306.793 402.834 310.454 402.834 321.014C402.834 327.839 407.56 331.921 417.788 334.738C425.689 336.919 429.569 338.325 429.569 342.338C429.569 346.982 423.643 347.966 419.691 347.966C416.377 347.966 413.414 347.475 410.873 346.7L404.034 338.255H403.891L404.385 351.626C409.043 353.738 414.685 354.511 419.973 354.511C431.4 354.511 440.994 349.728 440.994 340.086C440.994 331.006 434.717 328.403 424.417 325.518ZM114.737 335.159H126.234L120.946 317.422L114.737 335.159ZM113.469 352.967H98.515V352.823L102.045 348.812L115.798 312.495L113.188 308.484V308.345H128.351L142.035 348.812L145.703 352.823V352.967H126.59V352.823L130.26 348.812L128.213 341.845H112.413L110.013 348.812L113.47 352.823L113.469 352.967Z" fill="white"/>
</g>
<defs>
<clipPath id="clip0_1849_699">
<rect width="441" height="419" fill="white"/>
</clipPath>
</defs>
</svg>
