<svg width="512" height="512" viewBox="0 0 512 512" fill="none" xmlns="http://www.w3.org/2000/svg">
<path fill-rule="evenodd" clip-rule="evenodd" d="M256 2.70669C323.443 2.70669 388.123 29.4315 435.813 77.0019C483.502 124.572 510.293 189.092 510.293 256.366C510.293 306.536 495.379 355.578 467.437 397.292C439.495 439.006 399.78 471.519 353.314 490.718C306.848 509.916 255.718 514.94 206.39 505.152C157.062 495.365 111.751 471.206 76.1874 435.731C40.6239 400.256 16.4048 355.058 6.59283 305.853C-3.21913 256.648 1.81673 205.645 21.0636 159.295C40.3104 112.945 72.9039 73.3286 114.722 45.4561C156.541 17.5836 205.706 2.70669 256 2.70669Z" fill="#0232A0"/>
<path fill-rule="evenodd" clip-rule="evenodd" d="M256 9.44261C321.656 9.44261 384.623 35.4577 431.049 81.7649C477.475 128.072 503.557 190.878 503.557 256.366C503.557 305.203 489.038 352.944 461.836 393.55C434.634 434.156 395.971 465.805 350.736 484.494C305.501 503.183 255.725 508.073 207.704 498.546C159.682 489.018 115.572 465.501 80.9504 430.968C46.3289 396.435 22.7513 352.437 13.1992 304.539C3.64718 256.64 8.54965 206.992 27.2867 161.873C46.0237 116.753 77.7538 78.1891 118.464 51.0568C159.175 23.9244 207.038 9.44261 256 9.44261Z" fill="white"/>
<path fill-rule="evenodd" clip-rule="evenodd" d="M256.121 16.1786C319.879 16.1786 381.026 41.463 426.109 86.4694C471.193 131.476 496.521 192.518 496.521 256.166C496.521 303.632 482.422 350.031 456.006 389.497C429.591 428.962 392.045 459.722 348.118 477.886C304.191 496.05 255.855 500.803 209.222 491.543C162.589 482.283 119.753 459.426 86.133 425.863C52.5125 392.301 29.6166 349.539 20.3408 302.986C11.0649 256.433 15.8256 208.179 34.0209 164.327C52.2162 120.475 83.0288 82.9941 122.562 56.6239C162.096 30.2537 208.575 16.1786 256.121 16.1786Z" fill="#0232A0"/>
<path fill-rule="evenodd" clip-rule="evenodd" d="M256.174 88.8486C300.654 88.8486 343.312 106.478 374.764 137.858C406.216 169.238 423.885 211.799 423.885 256.177C423.885 289.271 414.049 321.623 395.621 349.14C377.193 376.657 351 398.103 320.355 410.768C289.709 423.433 255.988 426.746 223.456 420.29C190.923 413.834 161.04 397.897 137.585 374.496C114.13 351.095 98.1571 321.28 91.686 288.821C85.2148 256.363 88.536 222.718 101.23 192.143C113.923 161.568 135.419 135.435 162.999 117.048C190.579 98.6622 223.004 88.8486 256.174 88.8486Z" fill="white"/>
<path fill-rule="evenodd" clip-rule="evenodd" d="M255.828 95.8738C298.429 95.8738 339.286 112.756 369.41 142.805C399.533 172.855 416.457 213.611 416.457 256.108C416.457 287.799 407.036 318.779 389.386 345.129C371.736 371.479 346.649 392.017 317.298 404.144C287.947 416.272 255.65 419.445 224.491 413.263C193.332 407.08 164.711 391.819 142.246 369.41C119.782 347.001 104.484 318.45 98.2857 287.368C92.0878 256.285 95.2688 224.068 107.426 194.789C119.584 165.51 140.172 140.485 166.588 122.878C193.003 105.271 224.059 95.8737 255.828 95.8738Z" fill="#0232A0"/>
<path fill-rule="evenodd" clip-rule="evenodd" d="M255.832 102.092C296.749 102.092 335.99 118.318 364.922 147.202C393.855 176.085 410.109 215.26 410.109 256.108C410.109 286.569 401.061 316.347 384.109 341.674C367.157 367.002 343.062 386.743 314.871 398.4C286.681 410.057 255.661 413.107 225.734 407.164C195.807 401.222 168.317 386.553 146.741 365.013C125.165 343.474 110.472 316.031 104.519 286.155C98.5661 256.279 101.621 225.311 113.298 197.168C124.975 169.025 144.749 144.971 170.12 128.048C195.491 111.124 225.319 102.092 255.832 102.092Z" fill="white"/>
<path fill-rule="evenodd" clip-rule="evenodd" d="M291.734 325.155C271.586 331.528 252.24 340.14 234.328 351.437C211.922 365.57 194.616 380.357 179.685 402.555L171.716 414.403L71.9316 162.129L79.7814 159.785C113.992 149.567 150.495 147.361 185.889 151.298C211.543 154.151 236.556 160.295 260.671 169.487L263.678 170.634L267.606 179.997C283.855 185.105 300.392 189.587 317.085 192.939C332.236 195.981 347.967 198.212 363.439 198.397C387.995 198.691 404.35 195.109 415.953 182.206C421.421 176.125 425.394 169.254 428.864 156.977C435.522 170.826 439.249 185.204 439.562 201.198C439.939 220.53 434.971 240.474 425.918 256.66C415.792 274.764 401.655 289.207 384.811 301.158C360.834 318.171 332.105 329.515 304.001 337.622L297.464 339.507L291.734 325.155Z" fill="white"/>
<path fill-rule="evenodd" clip-rule="evenodd" d="M81.9316 166.984L173.451 398.362C189.4 374.649 207.559 359.439 230.32 345.082C249.53 332.966 271.374 323.158 296.155 315.965L301.919 330.403C333.217 321.374 359.68 309.777 380.464 295.031C397.149 283.192 410.13 269.496 419.361 252.992C431.206 231.813 436.173 201.976 428.178 177.027C417.717 198.357 394.297 206.28 363.35 205.91C334.278 205.563 298.881 197.911 262.022 186.107L257.995 176.508C233.821 167.293 209.533 161.487 185.059 158.765C151.108 154.988 115.509 156.955 81.9316 166.984Z" fill="#0232A0"/>
<path fill-rule="evenodd" clip-rule="evenodd" d="M413.879 200.546C408.893 205.01 402.424 207.729 394.429 209.639C385.036 211.883 374.04 212.774 363.269 212.646C346.901 212.45 329.165 210.271 313.136 207.052C293.718 203.153 277.29 199.471 256.296 193.006L251.763 181.506C229.605 173.301 207.818 169.361 184.314 166.747C153.259 163.293 120.961 166.365 94.3752 173.598L112.568 219.17C128.284 213.327 146.955 209.737 168.591 208.026C195.656 205.886 227.234 206.781 263.602 211.457L267.515 221.45C306.969 225.733 341.096 226.311 367.384 221.27C387.19 217.471 405.287 210.867 413.879 200.546ZM146.865 305.086L176.268 378.741C190.228 361.909 203.306 350.855 224.438 337.526C248.496 322.352 277.654 311.257 300.922 305.85L306.285 319.267C331.368 312.757 354.31 304.409 375.271 289.537C390.373 278.822 404.141 265.555 413.223 249.316C417.022 242.522 420.197 235.17 422.276 227.266C407.776 243.117 389.645 254.528 370.868 263.027C346.922 273.866 320.612 280.241 292.115 283.537L287.934 272.999C256.553 272.543 233.564 274.647 208.221 280.343C186.571 285.21 162.82 293.704 146.865 305.086Z" fill="white"/>
<path fill-rule="evenodd" clip-rule="evenodd" d="M273.934 198.093C268.324 196.589 262.51 194.919 256.296 193.006L267.552 221.455C273.321 222.081 278.974 222.626 284.507 223.088L273.934 198.093ZM292.116 283.537L306.285 319.267C312.02 317.779 317.642 316.194 323.155 314.457L309.07 281.159C303.509 282.084 297.857 282.873 292.116 283.537Z" fill="#D9E0E7"/>
<path fill-rule="evenodd" clip-rule="evenodd" d="M267.544 221.454L292.115 283.537C297.856 282.873 303.508 282.084 309.07 281.159L284.507 223.088C278.971 222.626 273.315 222.08 267.544 221.454Z" fill="#082E86"/>
<path fill-rule="evenodd" clip-rule="evenodd" d="M475.808 244.39H471.986L466.016 246.349L466.934 250.155L471.061 249.014V268.626H475.808V244.39Z" fill="white"/>
<path fill-rule="evenodd" clip-rule="evenodd" d="M44.4469 244.261H40.6241L34.6543 246.219L35.572 250.026L39.699 248.885V268.497H44.4469V244.261Z" fill="white"/>
<path fill-rule="evenodd" clip-rule="evenodd" d="M69.7349 255.864C69.7334 252.342 69.2007 249.516 67.5421 247.286C65.9845 245.192 63.4259 243.783 59.8683 243.783C55.0124 243.783 50.917 247.373 50.9172 252.472C50.9172 257.34 55.042 260.043 59.5993 260.049C61.9666 260.052 63.7891 259.152 64.9083 257.97C64.7462 261.611 62.7764 264.481 59.611 264.629C57.5006 264.728 55.7414 263.85 54.0435 262.196L51.6099 265.784C54.2313 267.697 56.4412 268.733 59.6493 268.73C62.2655 268.727 64.771 267.46 66.5159 265.545C68.8605 262.972 69.7365 259.174 69.7349 255.864ZM60.247 256.247C58.0141 256.157 55.7425 254.876 55.6233 252.333C55.4938 249.569 57.2565 247.95 59.9558 247.938C63.2109 247.924 64.849 249.926 64.7534 252.12C64.6578 254.317 62.9518 256.356 60.247 256.247Z" fill="white"/>
<path fill-rule="evenodd" clip-rule="evenodd" d="M452.047 264.331C454.946 261.716 459.033 259.134 461.168 255.798C461.924 254.617 462.52 253.084 462.513 251.685C462.496 248.795 460.951 246.326 458.657 245.074C457.282 244.323 455.551 244.01 453.954 244.042C452.403 244.072 450.63 244.678 449.244 245.513C447.722 246.43 446.611 247.781 445.513 249.453L448.815 251.964C450.133 250.021 451.713 248.246 454.076 248.252C456.092 248.257 457.678 249.732 457.696 251.929C457.712 253.803 456.424 255.429 455.092 256.548L445.132 264.914V268.497H462.699V264.331H452.047Z" fill="white"/>
<path fill-rule="evenodd" clip-rule="evenodd" d="M251.104 68.4982L258.971 68.7793L259.357 57.9845L265.148 58.1419L272.083 69.2477L281.318 69.5775L273.234 57.0012C277.621 55.8104 280.77 51.8015 280.968 46.6253C281.121 42.6094 279.7 39.7099 277.679 37.8393C274.908 35.2757 270.784 34.5192 265.998 34.3482L252.341 33.8604L251.104 68.4982ZM266.139 41.4878C269.788 41.6182 273.066 42.6092 272.924 46.5742C272.782 50.5539 269.438 51.2936 265.793 51.1634L259.608 50.9424L259.954 41.2669L266.139 41.4878Z" fill="white"/>
<path fill-rule="evenodd" clip-rule="evenodd" d="M173.04 88.5783L180.304 85.5417L176.287 75.9345L180.178 74.2541C186.395 71.5694 188.835 68.9458 189.954 66.0511C191.073 63.1569 190.921 60.1035 189.629 56.9359C188.111 53.2163 185.124 51.0955 182.507 50.2429C178.92 49.0744 175.212 49.9631 170.795 51.8095L159.621 56.4808L173.04 88.5783ZM174.797 58.0048C178.167 56.5963 180.921 56.9529 182.252 60.1354C183.638 63.4509 182.111 65.7217 178.512 67.2263L173.519 69.3136L169.685 60.1421L174.797 58.0048Z" fill="white"/>
<path fill-rule="evenodd" clip-rule="evenodd" d="M111.437 136.879L120.007 128.109C122.797 125.253 125.159 122.214 126.061 118.216C127.329 112.598 126.094 106.614 121.364 101.992C116.842 97.5737 111.617 96.302 106.435 97.1784C101.862 97.9514 98.5982 100.425 95.4661 103.63L86.6465 112.657L111.437 136.879ZM101.3 107.72C105.307 103.619 111.496 103.634 115.688 107.731C119.932 111.877 120.051 117.932 115.998 122.08L111.875 126.3L97.1775 111.94L101.3 107.72Z" fill="white"/>
<path fill-rule="evenodd" clip-rule="evenodd" d="M215.892 37.5495C226.15 35.0967 235.81 41.0806 238.123 50.7541C240.437 60.4275 234.442 70.0809 224.27 72.5868C214.098 75.0928 204.352 69.0557 202.039 59.3822C199.726 49.7087 205.634 40.0022 215.892 37.5495ZM217.6 44.6929C223.346 43.3192 228.589 46.9507 229.951 52.6488C231.314 58.3467 228.232 63.925 222.535 65.3307C216.838 66.7365 211.547 63.073 210.184 57.3751C208.822 51.677 211.855 46.0666 217.6 44.6929Z" fill="white"/>
<path fill-rule="evenodd" clip-rule="evenodd" d="M416.774 98.8643C423.578 106.923 422.578 118.243 414.978 124.659C407.378 131.075 396.061 130.062 389.248 122.104C382.435 114.146 383.444 102.726 391.044 96.3096C398.643 89.8934 409.97 90.8052 416.774 98.8643ZM411.162 103.602C414.973 108.116 414.087 114.432 409.611 118.212C405.134 121.991 398.766 121.748 394.948 117.291C391.131 112.835 392.023 106.462 396.5 102.682C400.976 98.9028 407.351 99.0888 411.162 103.602Z" fill="white"/>
<path fill-rule="evenodd" clip-rule="evenodd" d="M323.919 43.5597L295.942 36.9107L294.265 43.9663L304.351 46.3634L298.014 73.0287L305.77 74.8718L312.107 48.2066L322.242 50.6152L323.919 43.5597Z" fill="white"/>
<path fill-rule="evenodd" clip-rule="evenodd" d="M346.428 52.1366L339.139 49.1607L326.038 81.249L333.327 84.225L346.428 52.1366Z" fill="white"/>
<path fill-rule="evenodd" clip-rule="evenodd" d="M144.246 64.621L122.396 79.1745L141.609 108.022L163.748 93.276L159.823 87.3829L144.236 97.7642L140.455 92.0868L153.952 83.097L150.076 77.2768L136.578 86.2667L132.873 80.7033L148.171 70.5141L144.246 64.621Z" fill="white"/>
<path fill-rule="evenodd" clip-rule="evenodd" d="M390.515 76.4229L383.155 71.9125L363.225 87.666L368.145 62.713L360.676 58.135L354.371 95.0745L360.38 98.7575L390.515 76.4229Z" fill="white"/>
<path fill-rule="evenodd" clip-rule="evenodd" d="M350.308 418.016C347.335 419.977 345.024 422.589 344.481 425.917C344.109 428.194 344.474 430.797 346.169 433.483C347.653 435.831 349.89 437.196 352.331 437.588C354.384 437.917 356.452 437.503 358.648 437.026C361.481 436.409 367.491 433.633 369.198 436.593C370.294 438.494 368.606 440.399 367.109 441.386C363.566 443.723 359.225 443.735 355.659 443.267L354.383 450.293C361.281 451.693 367.521 449.694 371.004 447.228C373.79 445.255 376.004 442.961 376.828 439.83C377.468 437.395 377.26 434.394 375.29 431.39C373.276 428.319 370.303 427.21 367.238 427.247C364.45 427.28 361.449 428.259 358.845 428.948C357.158 429.395 352.983 430.872 351.988 427.964C351.387 426.204 352.711 424.695 354.038 423.815C356.997 421.852 360.103 421.802 363.943 422.103L364.39 415.011C359.325 414.213 353.987 415.591 350.308 418.016Z" fill="white"/>
<path fill-rule="evenodd" clip-rule="evenodd" d="M331.959 428.312L307.152 436.905L318.497 469.656L343.632 460.949L341.314 454.259L323.618 460.388L321.385 453.943L336.709 448.635L334.421 442.027L319.097 447.335L316.909 441.019L334.277 435.003L331.959 428.312Z" fill="white"/>
<path fill-rule="evenodd" clip-rule="evenodd" d="M315.708 431.391L321.409 429.416L326.329 422.292L318.763 421.858L315.708 431.391Z" fill="white"/>
<path fill-rule="evenodd" clip-rule="evenodd" d="M298.547 439.4L289.98 440.451L284.188 465.187L272.506 442.595L263.81 443.662L281.87 476.496L288.866 475.638L298.547 439.4Z" fill="white"/>
<path fill-rule="evenodd" clip-rule="evenodd" d="M254.62 478.235L246.325 477.441L243.974 469.57L229.761 468.208L225.893 475.483L217.849 474.712L236.059 441.508L243.077 442.181L254.62 478.235ZM241.825 462.374L238.602 451.582L233.298 461.557L241.825 462.374Z" fill="white"/>
<path fill-rule="evenodd" clip-rule="evenodd" d="M165.659 458.389L158.397 454.304L159.435 446.156L146.99 439.155L140.507 444.24L133.465 440.278L163.56 417.292L169.705 420.748L165.659 458.389ZM160.383 438.706L161.806 427.533L152.917 434.505L160.383 438.706Z" fill="white"/>
<path fill-rule="evenodd" clip-rule="evenodd" d="M198.697 433.409L191.188 431.043L180.774 464.102L204.649 471.622L206.776 464.869L190.411 459.714L198.697 433.409Z" fill="white"/>
<path fill-rule="evenodd" clip-rule="evenodd" d="M156.13 228.569L162.031 243.448L170.642 241.391L167.34 233.037L172.557 232.119C175.095 231.655 178.07 231.29 180.646 231.683C183.41 232.105 185.865 233.105 187.829 234.396C192.956 237.767 196.973 245.097 195.097 251.3C194.221 254.198 192.074 256.519 188.165 257.772L178.361 260.914L174.628 251.472L166.172 253.891L172.706 270.369L191.552 264.649C197.726 262.776 203.114 257.607 203.239 250.752L203.583 231.912L215.323 245.056L210.318 245.614V252.179L220.185 250.919L226.062 257.797L232.587 256.926L203.324 224.19L197.304 224.762L197.004 234.263C193.975 229.973 189.738 227.679 184.667 226.544C176.755 224.773 166.683 226.264 156.13 228.569Z" fill="white"/>
</svg>
