<svg width="512" height="512" viewBox="0 0 512 512" fill="none" xmlns="http://www.w3.org/2000/svg">
<g clip-path="url(#clip0_1_2826)">
<g clip-path="url(#clip1_1_2826)">
<path d="M262.579 28.6935C272.2 27.0496 282.749 30.211 289.272 37.5878C298.989 48.1893 298.472 66.1886 288.335 76.3264C277.701 87.6128 257.774 87.4969 247.077 76.4317C238.288 67.7377 236.729 53.1528 242.788 42.4986C246.93 35.1113 254.222 30.0319 262.579 28.6935ZM262.4 37.9566C249.059 41.645 245.054 60.6455 254.549 70.1931C260.767 76.9586 272.316 77.6858 279.303 71.6895C287.323 65.0504 288.356 51.8882 281.801 43.8791C277.111 38.1885 269.471 35.849 262.4 37.9566Z" fill="white"/>
<path d="M200.857 35.4801C205.989 34.1207 211.595 33.4357 216.664 35.3326C226.591 38.9367 230.416 53.1738 223.767 61.3199C222.091 63.1957 220.226 64.8924 218.192 66.3677C224.705 71.6368 231.049 77.1167 237.424 82.565C233.704 83.5239 229.984 84.4724 226.264 85.4103C220.342 80.373 214.493 75.262 208.507 70.2985C204.735 71.3101 200.952 72.2797 197.158 73.1965C198.591 79.3719 200.235 85.4946 201.805 91.6384C198.654 92.4604 195.493 93.2507 192.321 94.02C187.842 76.4001 183.405 58.7696 178.832 41.1708C186.103 39.1685 193.48 37.4297 200.857 35.4801ZM190.603 47.1354C191.836 53.0895 193.564 58.9172 194.934 64.8397C199.729 63.6594 204.535 62.5318 209.287 61.1724C212.386 60.2766 215.442 58.3797 216.748 55.3131C218.909 50.1599 215.157 43.173 209.224 43.31C202.785 43.3733 196.81 46.1027 190.561 47.1565L190.603 47.1354Z" fill="white"/>
<path d="M318.969 36.534L327.221 39.8746C331.763 54.9127 335.314 70.2669 340.33 85.189C345.062 73.7656 349.414 62.1946 354.409 50.8871C357.286 52.12 360.195 53.3003 363.093 54.4911C356.296 71.3523 349.393 88.2135 342.628 105.075C340.056 104.137 337.516 103.136 334.998 102.05C330.54 86.4431 326.42 70.72 321.667 55.1972C316.946 67.1054 312.067 78.9504 307.272 90.827C304.321 89.6467 301.37 88.4453 298.43 87.2124C305.238 70.288 312.088 53.3952 318.969 36.534Z" fill="white"/>
<path d="M147.291 56.2405C150.147 54.7652 153.002 53.2898 155.837 51.7828C164.373 67.8958 172.635 84.1668 180.96 100.396L172.403 104.832C163.973 88.635 155.605 72.4378 147.291 56.2405Z" fill="white"/>
<path d="M98.13 101.808C98.8255 86.3482 113.579 73.8183 128.744 73.9236C128.744 77.0851 128.828 80.2466 128.965 83.408C120.534 83.5029 111.514 88.0765 108.658 96.4228C104.379 108.7 115.37 123.053 128.238 122.568C137.206 122.147 144.625 114.633 146.774 106.192C144.519 103.768 142.359 101.26 140.283 98.6569C136.552 101.502 133.148 104.737 129.523 107.73C127.669 105.623 125.824 103.42 124.043 101.207C130.008 96.2436 135.772 91.0483 141.695 86.0321C146.532 92.0599 152.307 97.4766 156.596 103.842C154.615 118.353 142.138 131.642 127.089 132.2C111.145 132.822 97.034 117.584 98.13 101.808Z" fill="white"/>
<path d="M349.446 108.352C367.677 100.048 385.845 91.6068 404.108 83.3659C406.279 85.3682 408.491 87.3388 410.705 89.2989C404.55 108.268 398.206 127.237 392.062 146.205C389.322 144.161 386.793 141.821 384.317 139.535C385.834 135.024 387.415 130.524 388.943 126.014C382.62 120.334 376.202 114.801 370.027 108.995C365.527 110.755 361.249 113.01 356.854 115.002C354.346 112.82 351.88 110.597 349.446 108.352ZM378.278 104.874C382.82 109.09 387.447 113.115 392.041 117.225C394.507 109.848 396.994 102.472 399.418 95.0001C392.347 98.267 385.286 101.555 378.247 104.874H378.278Z" fill="white"/>
<path d="M236.17 96.2014C324.523 85.3787 404.919 148.239 415.742 236.592C426.565 324.944 363.704 405.34 275.351 416.163C186.999 426.986 106.603 364.125 95.78 275.773C90.9745 236.507 100.775 196.831 123.327 164.321C149.051 127.015 191.088 101.407 236.17 96.2014ZM204.018 112.778C202.933 113.179 201.963 113.832 201.173 114.675C173.257 142.612 145.331 170.528 117.394 198.443C115.529 200.435 113.073 202.132 112.272 204.872C106.54 221.164 103.568 238.288 103.462 255.561C154.088 204.977 204.672 154.394 255.213 103.81C237.762 103.863 220.447 106.887 204.018 112.778ZM277.449 125.424C284.825 132.516 291.896 139.998 299.336 147.069C307.872 138.123 316.84 129.608 325.44 120.724C315.47 115.592 304.985 111.535 294.162 108.626C288.587 114.19 282.928 119.702 277.491 125.435L277.449 125.424ZM239.68 132.189V132.39C229.352 142.327 219.372 152.634 209.192 162.719C198.559 173.162 188.021 183.7 177.578 194.333C167.387 204.577 157.123 214.735 147.017 225C136.573 235.106 126.467 245.56 116.098 255.74C126.235 266.204 136.637 276.426 146.975 286.701C157.313 296.976 167.324 307.251 177.694 317.325C188.021 328.021 198.675 338.402 209.192 348.94C219.583 359.215 229.679 369.816 240.343 379.817C245.075 385.328 250.587 390.176 255.634 395.413C260.904 390.218 266.078 384.875 271.442 379.743V379.522C280.652 370.617 289.557 361.407 298.694 352.428C300.043 351.248 301.244 349.888 302.256 348.402C302.256 341.279 302.171 334.155 302.256 327.041C291.981 327.452 281.695 327.263 271.41 327.178C269.945 327.389 268.249 327.031 266.974 327.979C262.99 330.856 259.597 334.387 255.708 337.464C251.893 334.408 248.532 330.814 244.58 327.979C243.4 327.031 241.756 327.505 240.365 327.326C230.005 327.2 219.646 327.558 209.308 327.105C198.559 325.145 189.707 315.228 190.171 304.11C190.171 268.017 190.013 231.913 190.266 195.83H209.308H240.322C240.322 195.83 261.041 195.83 271.4 195.83H302.213C308.652 195.956 315.102 195.651 321.53 196.02C321.361 229.247 321.53 262.474 321.456 295.701C321.361 301.581 322.099 307.778 319.623 313.31C316.461 320.402 310.064 325.524 302.456 327.063C302.456 334.207 302.361 341.352 302.508 348.497C313.194 338.159 323.585 327.537 334.123 316.998C344.271 306.776 354.683 296.776 364.6 286.332C375.054 276.416 385.076 266.057 395.245 255.856C385.002 245.707 374.927 235.401 364.6 225.295C354.272 215.189 344.229 204.819 333.933 194.734C323.585 183.974 312.941 173.457 302.266 163.014C292.065 152.665 281.685 142.485 271.463 132.158C266.267 126.815 260.925 121.62 255.655 116.351C250.313 121.588 245.001 126.868 239.722 132.2L239.68 132.189ZM320.993 168.673C328.085 176.05 335.546 183.152 342.659 190.55C353.092 180.412 363.261 170.001 373.589 159.747C367.066 151.801 359.773 144.519 351.817 137.996C341.5 148.239 331.383 158.598 320.993 168.673ZM364.484 212.248C371.713 219.53 378.974 226.791 386.266 234.01C391.799 228.509 397.268 222.945 402.854 217.486C400.061 206.547 396.014 195.977 390.798 185.966C381.977 194.713 373.241 203.512 364.452 212.248H364.484ZM195.503 201.131C195.293 235.422 195.503 269.713 195.419 304.005C195.124 312.857 202.458 321.119 211.321 321.751C221.512 322.162 231.734 321.751 241.882 321.962C247.836 321.635 251.366 327.231 255.582 330.393C259.091 327.747 261.999 324.122 266.12 322.352C278.018 321.056 290.105 322.721 302.024 321.467C310.212 319.738 316.061 312.488 316.018 304.11C316.018 269.808 316.018 235.496 316.018 201.194C275.91 201.078 235.707 201.236 195.503 201.131ZM255.877 408.007C273.36 407.975 290.706 404.94 307.166 399.049C308.431 398.607 309.569 397.837 310.454 396.836C339.213 367.94 368.025 339.097 396.868 310.317C397.511 309.706 398.038 309 398.438 308.21C404.887 291.517 407.259 273.613 408.091 255.845C357.286 306.502 306.724 357.392 255.877 408.007ZM108.447 294.394C111.303 305.28 115.36 315.818 120.545 325.819C129.334 317.041 138.112 308.252 146.89 299.473C139.64 292.213 132.379 284.962 125.118 277.701L108.447 294.394ZM137.796 351.985C144.277 359.994 151.58 367.287 159.589 373.757C169.832 363.493 180.086 353.239 190.361 342.986C183.174 335.609 175.881 328.401 168.578 321.182C158.356 331.51 148.092 341.774 137.796 351.985ZM185.829 390.977C195.767 396.278 206.315 400.356 217.233 403.117C222.681 397.479 228.383 392.083 233.778 386.393C226.57 379.174 219.309 372.008 212.164 364.726C203.28 373.325 194.681 382.251 185.829 390.935V390.977Z" fill="white"/>
<path d="M201.025 206.474H310.423C310.423 207.907 310.539 209.34 310.591 210.773C305.997 209.34 300.243 211.5 298.999 216.453C297.945 222.544 299.199 228.804 298.335 234.916C296.839 239.658 291.096 238.931 287.196 238.763C284.572 238.826 282.264 237.024 281.674 234.463C280.831 228.224 282.401 221.733 280.821 215.6C278.429 208.739 267.448 208.708 265.013 215.6C263.264 222.07 265.393 229.015 263.823 235.527C262.115 239.542 257.152 238.952 253.6 238.868C251.071 239.121 248.669 237.719 247.636 235.39C246.234 228.825 248.384 221.817 246.392 215.368C243.737 208.665 232.924 208.95 230.585 215.789C229.183 221.838 230.585 228.161 229.837 234.305C229.299 237.077 226.791 239.016 223.978 238.857C220.142 239.026 214.493 239.606 213.134 234.937C212.196 228.888 213.408 222.692 212.512 216.622C211.311 211.585 205.493 209.372 200.836 210.847L201.025 206.474Z" fill="white"/>
<path d="M200.983 234.748C204.787 234.927 210.141 233.641 212.249 237.846C214.156 244.506 211.49 251.862 213.777 258.48C216.59 265.077 227.381 264.581 229.5 257.689C230.922 251.493 229.384 245.043 230.343 238.721C231.08 236.002 233.968 234.505 236.666 234.727C239.574 234.811 243.073 234.094 245.412 236.297C248.121 238.826 246.919 242.873 247.183 246.139C247.488 250.945 245.918 256.678 249.564 260.608C253.611 265.108 262.063 263.464 263.854 257.594C265.161 251.524 263.854 245.223 264.571 239.089C265.193 236.444 267.616 234.632 270.325 234.758C274.108 234.6 279.63 233.968 281.147 238.51C282.296 244.833 280.673 251.345 282.033 257.616C284.14 264.444 294.731 265.108 297.692 258.669C300.095 252.072 297.408 244.706 299.231 237.993C301.265 233.662 306.661 234.916 310.496 234.737C310.591 243.168 310.496 251.546 310.549 259.955C306.07 258.659 300.527 260.535 299.126 265.308C297.914 271.378 299.126 277.659 298.441 283.782C297.745 286.374 295.332 288.134 292.655 287.997C288.819 288.176 283.171 288.724 281.79 284.035C280.821 277.765 282.359 271.284 280.968 265.066C278.745 257.837 267.184 257.795 264.929 265.066C263.538 271.273 265.119 277.765 264.076 284.035C263.211 286.68 260.619 288.356 257.858 288.061C254.328 288.134 249.491 288.714 247.752 284.773C246.234 278.302 248.3 271.41 246.603 264.971C244.369 258.153 233.62 257.826 230.891 264.423C229.015 270.62 230.764 277.29 229.837 283.656C229.215 286.322 226.77 288.166 224.041 288.029C220.247 288.198 214.736 288.798 213.218 284.267C212.048 277.944 213.703 271.431 212.343 265.161C210.836 260.482 205.357 258.69 200.92 260.008C201.004 251.567 200.952 243.157 200.983 234.748Z" fill="white"/>
<path d="M200.973 283.993C204.84 284.13 210.373 282.844 212.354 287.281C213.924 293.762 211.774 300.717 213.555 307.177C215.937 314.058 226.949 314.09 229.363 307.23C230.975 301.096 229.363 294.584 230.227 288.356C230.764 285.384 233.862 283.719 236.708 283.961C240.27 283.845 245.223 283.424 246.761 287.534C247.815 293.667 246.466 300 247.499 306.144C248.595 310.254 252.568 312.92 256.783 312.383C260.608 311.94 263.643 308.958 264.16 305.143C264.676 299.6 264.002 294.025 264.455 288.482C265.024 285.753 267.49 283.856 270.272 284.003C273.939 283.93 279.092 283.139 280.905 287.291C282.644 293.983 280.03 301.307 282.412 307.883C285.289 314.206 295.574 313.763 297.914 307.24C299.674 300.759 297.534 293.804 299.115 287.291C301.096 282.897 306.597 284.13 310.465 283.982C310.465 291.738 310.549 299.505 310.465 307.272C310.475 311.993 306.745 315.871 302.034 316.04C290.937 316.282 279.82 315.839 268.733 316.271C263.791 316.345 259.449 318.906 255.74 321.93C251.714 318.147 246.371 316.082 240.849 316.166C230.364 315.945 219.868 316.25 209.382 316.029C204.745 315.787 201.088 311.972 201.046 307.324C200.857 299.547 201.015 291.77 200.973 283.993Z" fill="white"/>
<path d="M101.671 405.193C107.878 398.385 114.317 391.788 120.703 385.17C125.719 389.955 130.683 394.802 135.794 399.492C134.582 400.957 133.328 402.369 132.063 403.791C128.469 400.409 124.876 397.026 121.377 393.538L117.341 397.416C120.323 400.661 123.664 403.581 126.826 406.647C125.508 407.996 124.212 409.356 122.895 410.704C119.733 407.712 116.646 404.687 113.41 401.757C110.955 404.266 108.531 406.816 106.107 409.366L101.671 405.193Z" fill="white"/>
<path d="M390.756 385.55C395.719 382.82 401.905 387.931 400.482 393.327C406.194 390.461 413.065 396.973 410.093 402.748C407.121 408.523 401.557 412.074 397.374 416.753C390.84 410.336 384.559 403.665 377.973 397.3C382.114 393.306 385.739 388.511 390.756 385.55ZM386.129 396.805L389.965 400.82C391.957 398.817 394.36 397.068 395.645 394.497C396.457 392.336 393.538 389.976 391.662 391.609C389.649 393.158 387.805 394.897 386.129 396.805ZM400.419 398.248C397.879 399.977 395.877 402.358 393.654 404.455C395.013 405.867 396.415 407.248 397.869 408.618C399.976 406.426 402.432 404.487 404.192 401.958C405.857 399.766 402.59 396.488 400.419 398.248Z" fill="white"/>
<path d="M366.591 406.12C368.267 404.93 369.953 403.749 371.65 402.58C374.811 407.227 378.236 411.737 381.313 416.48C383.579 419.904 384.275 424.668 381.935 428.24C379.564 431.855 375.791 434.31 371.523 435.006C367.54 435.512 363.851 433.119 361.596 430.021C358.287 425.563 355.273 420.906 351.964 416.448C353.64 415.215 355.326 414.003 357.023 412.802C359.721 416.638 362.408 420.473 365.074 424.32C366.296 425.953 367.519 427.808 369.5 428.598C373.62 430.127 378.868 425.342 376.75 421.116C373.852 415.816 369.9 411.168 366.591 406.12Z" fill="white"/>
<path d="M140.957 403.865L146.068 407.332C142.823 412.443 138.86 417.112 136.068 422.497C134.065 426.775 139.345 431.496 143.444 429.874C145.32 429.094 146.458 427.302 147.66 425.743C150.336 421.822 153.013 417.902 155.69 413.982C157.386 415.12 159.083 416.258 160.79 417.386C157.808 421.917 154.741 426.396 151.611 430.833C149.419 433.994 145.91 436.534 141.916 436.281C134.708 435.786 127.047 428.472 130.008 420.863C132.78 414.688 137.364 409.587 140.957 403.865Z" fill="white"/>
<path d="M166.333 420.61C173.268 423.772 180.16 427.091 187.083 430.337L184.565 435.49C182.067 434.247 179.538 433.077 176.956 432.023C174.069 438.652 170.802 445.101 167.83 451.698C165.922 450.834 164.036 449.928 162.181 448.979C165.343 442.488 168.346 435.88 171.487 429.368C169.01 428.135 166.502 426.954 163.994 425.816C164.763 424.078 165.543 422.349 166.333 420.61Z" fill="white"/>
<path d="M329.36 427.808C331.151 426.976 332.922 426.069 334.798 425.405C338.191 431.781 341.258 438.336 344.419 444.848C348.634 442.951 352.649 440.833 356.78 438.863C357.602 440.549 358.414 442.235 359.236 443.932C353.282 446.808 347.391 449.812 341.416 452.647C337.464 444.364 333.122 436.207 329.36 427.808Z" fill="white"/>
<path d="M193.564 432.771C198.97 434.626 204.872 435.343 209.867 438.22C214.683 441.244 213.239 448.758 208.117 450.613C212.733 454.238 211.089 462.711 204.956 463.427C198.359 463.933 192.194 460.687 185.882 459.212C188.464 450.349 190.961 441.529 193.564 432.771ZM197.779 439.653C197.263 441.476 196.726 443.299 196.22 445.133C198.76 445.965 201.373 446.555 204.018 446.893C205.451 446.829 206.558 445.618 206.495 444.195C206.463 443.542 206.2 442.93 205.736 442.467C203.439 440.802 200.446 440.507 197.801 439.611L197.779 439.653ZM194.713 450.096C194.218 451.951 193.659 453.827 193.174 455.692C196.009 456.641 198.907 457.41 201.847 457.979C204.197 458.485 206.063 455.113 204.261 453.479C201.573 451.319 197.916 451.076 194.734 450.054L194.713 450.096Z" fill="white"/>
<path d="M303.931 439.885C307.915 433.341 317.041 431.159 323.817 434.405C323.048 436.228 322.278 438.051 321.519 439.885C318.137 438.757 314.027 437.988 311.097 440.591C305.997 444.732 308.378 453.964 314.596 455.576C318.811 456.778 322.71 453.88 324.734 450.413C326.43 451.203 328.106 452.035 329.781 452.889C326.557 460.076 317.315 463.796 310.128 460.392C302.624 457.083 299.579 446.787 303.931 439.885Z" fill="white"/>
<path d="M229.5 442.382C236.876 439.548 246.361 443.289 248.795 451.003C251.314 457.99 247.541 466.557 240.438 469.002C233.251 471.826 223.914 468.37 221.217 460.898C218.308 453.848 222.186 444.848 229.5 442.382ZM231.67 447.831C225.347 450.36 225.063 460.645 231.312 463.406C236.16 466.072 242.556 462.352 243.01 456.967C244.358 450.802 237.435 445.038 231.67 447.831Z" fill="white"/>
<path d="M258.469 443.215C260.514 443.057 262.569 442.92 264.624 442.783C265.035 450.065 265.583 457.347 265.983 464.639C270.546 464.428 275.099 464.091 279.683 463.849C279.756 465.693 279.851 467.548 279.957 469.402C273.37 469.834 266.784 470.33 260.187 470.593C259.628 461.467 259.059 452.341 258.469 443.215Z" fill="white"/>
<path d="M236.918 0.640797C241.355 -0.107417 245.876 0.271958 250.365 0.145499C259.249 0.303573 268.175 -0.318184 277.016 0.819945C311.961 3.55989 345.947 13.5185 376.845 30.0635C423.466 55.0918 461.256 93.8726 485.062 141.137C498.825 168.325 507.509 197.79 510.681 228.098C511.123 232.387 511.429 236.687 511.956 240.965C512.114 250.334 512.03 259.713 512.008 269.092C510.66 291.011 507.066 312.889 500.279 333.828C490.879 363.535 476.073 391.262 456.62 415.605C439.453 437.145 418.966 455.808 395.919 470.888C361.175 493.63 321.361 507.456 279.999 511.144C276.363 511.334 272.791 512.198 269.144 512.082C260.008 512.125 250.882 512.125 241.745 512.082C230.195 511.26 218.708 509.785 207.327 507.677C178.357 502.145 150.589 491.575 125.266 476.453C102.63 462.848 82.1434 445.944 64.5024 426.291C56.3142 416.574 48.2209 406.732 41.4448 395.962C18.1553 360.332 4.21321 319.422 0.893662 276.985C-0.318234 266.268 0.408899 255.403 0.229749 244.601C1.29411 221.006 5.59371 197.664 12.9915 175.238C23.7405 142.802 40.9284 112.862 63.5118 87.2229C84.093 63.7648 108.742 44.2375 136.289 29.5788C167.472 13.0759 201.731 3.21213 236.918 0.640797ZM239.964 8.55501C236.602 8.94492 233.198 8.70255 229.879 9.36645C207.77 11.7902 186.082 17.1015 165.364 25.1738C128.954 39.3688 96.2857 62.6583 70.2985 91.7965C56.8517 107.14 45.2596 124.022 35.7647 142.074C22.9713 166.808 14.4458 193.533 10.5467 221.111C8.50227 237.013 7.38522 253.084 8.43904 269.123C9.98816 294.932 15.0254 320.666 24.4361 344.82C29.1045 356.833 34.6687 368.478 41.097 379.648C81.0158 449.527 152.476 495.579 232.598 503.083C236.318 503.652 240.122 503.336 243.853 504.021C251.777 504.368 259.723 504.284 267.658 504.084C272.011 503.346 276.458 503.662 280.821 502.925C337.474 497.455 390.461 472.459 430.706 432.213C448.811 414.245 464.091 393.633 476.02 371.091C490.964 342.522 500.142 311.287 503.009 279.177C503.588 275.594 503.314 271.937 503.957 268.365C504.927 245.391 502.861 222.397 497.813 199.971C491.396 172.14 480.172 145.647 464.639 121.683C433.024 72.5432 383.568 35.006 327.463 18.4083C307.535 12.4963 286.965 9.02923 266.194 8.08079C257.457 8.16509 248.658 7.61711 239.964 8.55501Z" fill="#CE142C"/>
<path d="M248.574 7.78572C293.804 6.45791 338.539 17.5652 377.899 39.8852C430.327 69.4871 471.268 118.806 490.468 175.892C534.571 305.512 465.24 446.345 335.62 490.437C230.975 526.035 115.402 488.066 52.2675 397.332C-1.84631 319.686 -7.04167 218.002 38.8734 135.246C81.3319 58.6748 161.064 10.2095 248.584 7.78572H248.574ZM234.073 16.7327C102.356 28.6936 5.26698 145.173 17.2384 276.89C29.1993 408.607 145.678 505.696 277.396 493.725C409.113 481.764 506.202 365.285 494.23 233.567C486.538 148.808 434.426 74.5033 357.37 38.3888C318.927 20.3368 276.363 12.8546 234.073 16.7327Z" fill="white"/>
<path d="M234.073 16.7326C366.033 4.80336 482.67 102.113 494.599 234.063C506.529 366.012 409.219 482.66 277.269 494.589C145.31 506.518 28.6725 409.208 16.7432 277.259C8.76576 189.054 50.044 103.62 124.107 55.0496C157.06 33.4463 194.829 20.2946 234.073 16.7326ZM262.526 28.1561C254.159 29.4944 246.877 34.5844 242.736 41.9717C236.676 52.6259 238.236 67.2635 247.025 75.9048C257.763 86.9699 277.649 87.0859 288.282 75.7994C298.42 65.6616 298.936 47.6623 289.22 37.0609C282.749 29.642 272.201 26.5543 262.579 28.1561H262.526ZM200.857 34.9638C193.48 36.8923 186.103 38.6416 178.832 40.6544C183.405 58.2533 187.842 75.8837 192.321 93.5037C195.482 92.7344 198.644 91.944 201.805 91.122C200.235 84.9782 198.644 78.8555 197.158 72.6801C200.951 71.7633 204.735 70.8043 208.507 69.7821C214.493 74.7456 220.342 79.8566 226.264 84.8939C229.984 83.956 233.704 83.0076 237.424 82.0486C231.049 76.6003 224.705 71.131 218.192 65.8513C220.215 64.3654 222.081 62.6582 223.746 60.7719C230.364 52.6575 226.57 38.4203 216.664 34.8162C211.553 32.9194 205.947 33.6043 200.857 34.9638ZM319.011 35.9438C312.119 52.805 305.269 69.6872 298.472 86.58C301.412 87.813 304.363 89.0249 307.314 90.1947C312.109 78.3181 316.988 66.4731 321.709 54.5649C326.462 70.0877 330.582 85.8107 335.04 101.418C337.559 102.493 340.098 103.504 342.67 104.442C349.425 87.5812 356.369 70.72 363.135 53.8588C360.237 52.668 357.328 51.4877 354.451 50.2548C349.456 61.5623 345.104 73.1333 340.372 84.5567C335.356 69.6767 331.805 54.3225 327.263 39.2423L319.011 35.9438ZM147.291 55.703C155.658 71.8581 164.015 88.0554 172.351 104.295L180.96 99.8582C172.635 83.6293 164.373 67.3583 155.837 51.2453C153.003 52.7523 150.147 54.2277 147.291 55.703ZM98.13 101.27C97.0762 117.078 111.145 132.284 127.1 131.631C142.138 131.072 154.615 117.784 156.607 103.273C152.318 96.9496 146.543 91.4909 141.706 85.463C135.783 90.4792 130.019 95.6745 124.054 100.638C125.835 102.851 127.679 105.011 129.534 107.161C133.159 104.168 136.563 100.933 140.293 98.0878C142.359 100.691 144.519 103.199 146.785 105.623C144.677 114.053 137.216 121.577 128.248 121.999C115.381 122.484 104.39 108.131 108.668 95.8537C111.524 87.5074 120.534 82.9338 128.975 82.839C128.838 79.6775 128.796 76.516 128.754 73.3546C113.579 73.2808 98.8255 85.8107 98.13 101.27ZM349.446 107.815C351.891 110.059 354.346 112.283 356.823 114.485C361.217 112.494 365.495 110.27 369.995 108.478C376.171 114.285 382.641 119.818 388.911 125.498C387.383 130.008 385.803 134.508 384.285 139.018C386.804 141.305 389.291 143.645 392.031 145.689C398.175 126.72 404.519 107.751 410.673 88.7825C408.46 86.8224 406.247 84.8518 404.076 82.8495C385.813 91.0693 367.645 99.5105 349.446 107.815ZM236.17 95.664C191.088 100.87 149.051 126.478 123.327 163.783C85.031 218.951 85.0099 292.086 123.264 347.275C173.931 420.379 274.266 438.557 347.37 387.889C420.473 337.221 438.652 236.887 387.984 163.783C353.935 114.675 295.49 88.4453 236.17 95.664ZM101.671 404.656L106.118 408.818C108.542 406.268 110.966 403.718 113.421 401.21C116.582 404.139 119.744 407.164 122.905 410.156C124.223 408.808 125.519 407.448 126.836 406.099C123.675 403.033 120.355 400.114 117.352 396.868L121.388 392.99C124.887 396.478 128.48 399.861 132.074 403.243C133.338 401.821 134.592 400.409 135.804 398.944C130.693 394.254 125.73 389.459 120.713 384.622C114.306 391.251 107.878 397.848 101.671 404.656ZM390.756 385.012C385.739 387.963 382.125 392.768 377.973 396.762C384.559 403.085 390.84 409.798 397.374 416.216C401.589 411.537 407.1 407.849 410.093 402.211C413.086 396.573 406.194 389.923 400.482 392.789C401.905 387.394 395.719 382.283 390.756 385.012ZM366.591 405.583C369.9 410.631 373.852 415.278 376.75 420.579C378.858 424.794 373.589 429.589 369.5 428.061C367.519 427.271 366.339 425.416 365.074 423.782C362.387 419.936 359.699 416.1 357.023 412.264C355.326 413.465 353.64 414.677 351.964 415.91C355.252 420.368 358.287 425.026 361.596 429.484C363.852 432.582 367.54 434.974 371.523 434.468C375.791 433.773 379.564 431.317 381.935 427.703C384.275 424.13 383.579 419.367 381.313 415.942C378.236 411.2 374.843 406.689 371.65 402.042C369.953 403.212 368.267 404.392 366.591 405.583ZM140.957 403.328C137.364 409.018 132.78 414.15 129.987 420.305C127.026 427.913 134.687 435.227 141.895 435.722C145.889 435.975 149.398 433.404 151.59 430.274C154.72 425.848 157.776 421.369 160.769 416.827C159.062 415.7 157.365 414.561 155.669 413.423C152.981 417.344 150.305 421.264 147.639 425.184C146.479 426.744 145.341 428.535 143.423 429.315C139.303 430.959 134.023 426.238 136.047 421.938C138.839 416.553 142.802 411.885 146.047 406.774L140.957 403.328ZM166.333 420.126C165.543 421.854 164.763 423.593 163.994 425.332C166.502 426.47 169.01 427.65 171.487 428.883C168.325 435.396 165.385 442.003 162.181 448.495C164.036 449.443 165.922 450.349 167.83 451.213C170.802 444.616 174.068 438.167 176.956 431.539C179.538 432.592 182.067 433.762 184.565 435.006L187.083 429.852C180.16 426.554 173.268 423.287 166.333 420.126ZM329.36 427.323C333.122 435.754 337.464 443.847 341.416 452.162C347.391 449.327 353.282 446.324 359.236 443.447C358.414 441.75 357.602 440.064 356.78 438.378C352.649 440.349 348.592 442.467 344.419 444.364C341.258 437.851 338.191 431.296 334.798 424.921C332.922 425.532 331.151 426.449 329.36 427.271V427.323ZM193.564 432.245C190.961 441.044 188.464 449.865 185.903 458.674C192.226 460.16 198.38 463.406 204.977 462.89C211.089 462.173 212.733 453.7 208.139 450.075C213.26 448.242 214.704 440.707 209.888 437.682C204.872 434.763 198.97 434.047 193.564 432.192V432.245ZM303.931 439.4C299.579 446.303 302.624 456.598 310.128 459.907C317.315 463.311 326.557 459.591 329.781 452.404C328.106 451.551 326.43 450.718 324.734 449.928C322.71 453.395 318.79 456.251 314.596 455.091C308.378 453.479 305.997 444.248 311.097 440.106C314.027 437.503 318.137 438.272 321.519 439.4C322.278 437.566 323.047 435.743 323.817 433.92C317.041 430.664 307.915 432.772 303.931 439.347V439.4ZM229.5 441.898C222.186 444.364 218.308 453.332 221.217 460.413C223.914 467.885 233.251 471.341 240.438 468.517C247.541 466.072 251.314 457.505 248.795 450.518C246.34 442.751 236.834 439.01 229.5 441.845V441.898ZM258.469 442.73C259.049 451.867 259.618 460.993 260.176 470.13C266.773 469.866 273.36 469.371 279.946 468.939C279.841 467.084 279.746 465.229 279.672 463.385C275.099 463.627 270.546 463.965 265.972 464.175C265.572 456.883 265.024 449.601 264.613 442.319C262.569 442.382 260.514 442.519 258.469 442.677V442.73Z" fill="#CF0C29"/>
<path d="M262.4 37.9566C269.471 35.8595 277.122 38.2095 281.801 43.9107C288.356 51.9198 287.323 65.082 279.303 71.7211C272.316 77.7174 260.767 76.9902 254.549 70.2247C245.054 60.6454 249.059 41.645 262.4 37.9566Z" fill="#CF0C29"/>
<path d="M190.561 47.1565C196.81 46.1027 202.785 43.3733 209.182 43.3311C215.115 43.1941 218.866 50.181 216.706 55.3342C215.399 58.4008 212.343 60.2977 209.245 61.1934C204.492 62.5529 199.687 63.6805 194.892 64.8608C193.48 58.9383 191.794 53.1106 190.561 47.1565Z" fill="#CF0C29"/>
<path d="M378.247 104.874C385.276 101.555 392.326 98.2669 399.407 95.0001C396.963 102.377 394.476 109.817 392.031 117.225C387.383 113.115 382.789 109.037 378.247 104.874Z" fill="#CF0C29"/>
<path d="M204.018 112.778C220.437 106.877 237.751 103.831 255.202 103.768C204.703 154.446 154.12 205.03 103.452 255.518C103.557 238.246 106.529 221.122 112.262 204.83C113.063 202.09 115.518 200.393 117.383 198.401C145.32 170.496 173.246 142.57 201.162 114.633C201.953 113.8 202.933 113.168 204.018 112.778Z" fill="#CF0C29"/>
<path d="M277.491 125.435C282.928 119.702 288.587 114.19 294.204 108.637C305.027 111.545 315.513 115.602 325.482 120.734C316.883 129.618 307.915 138.133 299.379 147.08C291.939 140.009 284.91 132.527 277.491 125.435Z" fill="#CF0C29"/>
<path d="M271.463 132.084C281.685 142.412 292.065 152.592 302.266 162.94C302.171 173.879 302.266 184.817 302.266 195.756H271.379C271.463 174.585 271.315 153.308 271.463 132.084Z" fill="#CF0C29"/>
<path d="M209.287 162.729C219.467 152.644 229.447 142.338 239.774 132.4C240.66 136.521 240.312 140.747 240.322 144.93V195.746C229.984 195.746 219.646 195.746 209.308 195.746C209.287 184.754 209.287 173.742 209.287 162.729Z" fill="#CF0C29"/>
<path d="M320.993 168.673C331.415 158.598 341.532 148.197 351.817 137.996C359.773 144.519 367.066 151.801 373.589 159.747C363.261 170.001 353.092 180.412 342.659 190.55C335.514 183.152 328.053 176.092 320.993 168.673Z" fill="#CF0C29"/>
<path d="M364.452 212.248C373.241 203.512 381.977 194.713 390.798 185.966C396.014 195.977 400.061 206.547 402.854 217.486C397.268 222.945 391.799 228.509 386.266 234.01C378.942 226.802 371.671 219.551 364.452 212.248Z" fill="#CF0C29"/>
<path d="M147.038 224.989C157.197 214.725 167.461 204.566 177.599 194.323C177.683 235.317 177.599 276.321 177.662 317.315C167.292 307.24 157.155 296.923 146.943 286.691C147.175 266.12 147.112 245.549 147.038 224.989Z" fill="#CF0C29"/>
<path d="M333.902 194.66C344.198 204.787 354.346 215.052 364.568 225.221V286.216C354.652 296.66 344.24 306.66 334.092 316.883C334.007 276.173 334.387 235.401 333.902 194.66Z" fill="#CF0C29"/>
<path d="M195.503 201.131C235.707 201.236 275.91 201.078 316.113 201.204C316.05 235.506 316.113 269.819 316.113 304.121C316.155 312.499 310.307 319.749 302.119 321.477C290.2 322.731 278.112 321.066 266.215 322.362C262.126 324.133 259.217 327.758 255.677 330.403C251.409 327.242 247.889 321.635 241.977 321.973C231.776 321.73 221.554 322.173 211.416 321.762C202.553 321.129 195.219 312.868 195.514 304.015C195.461 269.713 195.293 235.422 195.503 201.131ZM201.025 206.474L200.899 210.773C205.557 209.298 211.374 211.511 212.575 216.548C213.471 222.618 212.259 228.815 213.197 234.863C214.599 239.532 220.205 238.952 224.041 238.784C226.855 238.942 229.363 237.003 229.9 234.231C230.617 228.087 229.247 221.764 230.648 215.716C232.946 208.876 243.758 208.592 246.456 215.294C248.447 221.754 246.298 228.762 247.699 235.317C248.732 237.646 251.135 239.047 253.664 238.794C257.215 238.879 262.179 239.469 263.886 235.454C265.456 228.941 263.327 221.996 265.077 215.526C267.511 208.687 278.492 208.718 280.884 215.526C282.465 221.659 280.884 228.172 281.738 234.389C282.328 236.95 284.636 238.752 287.26 238.689C291.159 238.857 296.902 239.585 298.399 234.842C299.263 228.73 297.988 222.471 299.062 216.379C300.285 211.426 306.039 209.266 310.655 210.699C310.602 209.266 310.539 207.833 310.486 206.4C273.981 206.484 237.498 206.505 201.025 206.474ZM201.025 234.748V259.976C205.462 258.659 210.942 260.45 212.449 265.129C213.808 271.4 212.154 277.954 213.323 284.235C214.841 288.767 220.352 288.166 224.146 287.997C226.876 288.134 229.32 286.29 229.942 283.624C230.827 277.301 229.078 270.588 230.996 264.392C233.725 257.795 244.474 258.069 246.709 264.94C248.405 271.378 246.34 278.27 247.857 284.741C249.596 288.682 254.433 288.103 257.963 288.029C260.724 288.324 263.317 286.648 264.181 284.003C265.235 277.744 263.643 271.252 265.035 265.034C267.29 257.805 278.85 257.847 281.074 265.034C282.465 271.241 280.926 277.68 281.896 284.003C283.276 288.693 288.925 288.145 292.761 287.966C295.437 288.103 297.851 286.343 298.546 283.75C299.273 277.628 298.019 271.347 299.231 265.277C300.633 260.503 306.176 258.627 310.655 259.923C310.655 251.493 310.655 243.115 310.602 234.705C306.766 234.885 301.37 233.652 299.336 237.962C297.513 244.675 300.201 252.041 297.798 258.638C294.837 265.098 284.193 264.434 282.138 257.584C280.779 251.314 282.402 244.759 281.253 238.478C279.735 233.936 274.213 234.568 270.43 234.727C267.722 234.6 265.298 236.413 264.676 239.058C263.96 245.191 265.266 251.493 263.96 257.563C262.168 263.433 253.716 265.077 249.67 260.577C246.024 256.667 247.562 250.913 247.288 246.108C247.025 242.841 248.226 238.794 245.518 236.265C243.178 234.063 239.68 234.779 236.771 234.695C234.084 234.495 231.196 235.97 230.448 238.689C229.489 245.012 231.028 251.44 229.605 257.658C227.497 264.55 216.696 265.034 213.882 258.448C211.595 251.83 214.261 244.474 212.354 237.814C210.141 233.599 204.787 234.927 200.983 234.748H201.025ZM201.025 283.993C201.025 291.77 200.941 299.547 201.025 307.324C201.067 311.972 204.724 315.787 209.361 316.029C219.847 316.25 230.343 315.945 240.828 316.166C246.35 316.082 251.693 318.147 255.719 321.93C259.428 318.906 263.77 316.345 268.712 316.271C279.799 315.839 290.916 316.271 302.013 316.039C306.724 315.871 310.454 311.993 310.444 307.272C310.57 299.505 310.444 291.738 310.444 283.982C306.576 284.109 301.075 282.928 299.094 287.291C297.513 293.804 299.653 300.759 297.893 307.24C295.553 313.763 285.247 314.185 282.391 307.883C280.009 301.307 282.623 293.983 280.884 287.291C279.071 283.139 273.918 283.93 270.251 284.003C267.469 283.856 265.003 285.753 264.434 288.482C263.981 294.025 264.655 299.6 264.139 305.143C263.622 308.958 260.587 311.94 256.762 312.383C252.547 312.92 248.574 310.254 247.478 306.144C246.424 300 247.826 293.667 246.74 287.534C245.202 283.424 240.249 283.845 236.687 283.961C233.841 283.719 230.743 285.384 230.206 288.356C229.384 294.605 230.954 301.096 229.342 307.23C226.907 314.09 215.895 314.058 213.534 307.177C211.753 300.717 213.903 293.762 212.333 287.281C210.341 282.844 204.84 284.182 200.973 283.993H201.025Z" fill="#CF0C29"/>
<path d="M255.877 408.007C306.724 357.423 357.286 306.502 408.112 255.877C407.28 273.644 404.951 291.549 398.459 308.241C398.059 309.032 397.532 309.738 396.889 310.349C368.046 339.15 339.234 367.993 310.475 396.868C309.58 397.869 308.452 398.617 307.187 399.06C290.716 404.951 273.37 407.975 255.877 408.007Z" fill="#CF0C29"/>
<path d="M108.447 294.394L125.118 277.712C132.39 284.962 139.651 292.223 146.89 299.484C138.101 308.252 129.323 317.03 120.545 325.829C115.36 315.829 111.303 305.29 108.447 294.394Z" fill="#CF0C29"/>
<path d="M137.796 351.985C148.123 341.795 158.388 331.541 168.578 321.224C175.881 328.443 183.174 335.683 190.361 343.028C180.086 353.271 169.832 363.525 159.589 373.8C151.58 367.319 144.266 360.005 137.796 351.985Z" fill="#CF0C29"/>
<path d="M209.287 327.042C219.625 327.495 229.984 327.136 240.343 327.263C240.343 344.777 240.238 362.292 240.343 379.806C229.679 369.806 219.583 359.204 209.192 348.929C209.361 341.626 209.287 334.334 209.287 327.042Z" fill="#CF0C29"/>
<path d="M271.379 327.168C281.664 327.252 291.949 327.442 302.224 327.031C302.15 334.144 302.224 341.268 302.224 348.392C301.212 349.878 300.011 351.237 298.662 352.417C289.536 361.396 280.631 370.596 271.463 379.511C271.336 362.06 271.463 344.619 271.379 327.168Z" fill="#CF0C29"/>
<path d="M185.829 390.935C194.681 382.251 203.28 373.325 212.175 364.684C219.32 371.966 226.58 379.132 233.789 386.351C228.393 392.041 222.692 397.437 217.244 403.075C206.315 400.314 195.767 396.235 185.829 390.935Z" fill="#CF0C29"/>
<path d="M386.129 396.804C387.805 394.897 389.649 393.158 391.662 391.609C393.485 389.976 396.457 392.336 395.645 394.497C394.36 397.068 391.957 398.817 389.965 400.82L386.129 396.804Z" fill="#CF0C29"/>
<path d="M400.419 398.248C402.59 396.488 405.857 399.766 404.16 401.958C402.411 404.487 399.945 406.426 397.837 408.618C396.404 407.248 395.003 405.867 393.622 404.455C395.877 402.358 397.922 399.977 400.419 398.248Z" fill="#CF0C29"/>
<path d="M197.801 439.611C200.446 440.507 203.439 440.802 205.768 442.467C206.779 443.478 206.779 445.122 205.778 446.134C205.314 446.598 204.703 446.861 204.05 446.893C201.394 446.545 198.781 445.944 196.241 445.091C196.757 443.31 197.284 441.434 197.801 439.611Z" fill="#CF0C29"/>
<path d="M231.67 447.831C237.435 445.038 244.316 450.802 243.01 456.967C242.556 462.394 236.16 466.072 231.312 463.406C225.095 460.645 225.379 450.36 231.67 447.831Z" fill="#CF0C29"/>
<path d="M194.734 450.054C197.895 451.108 201.573 451.319 204.282 453.437C206.084 455.07 204.218 458.443 201.868 457.937C198.928 457.368 196.03 456.598 193.195 455.65C193.722 453.785 194.239 451.909 194.734 450.054Z" fill="#CF0C29"/>
<path d="M239.722 132.2C245.012 126.868 250.323 121.556 255.645 116.266C260.914 121.535 266.236 126.741 271.452 132.074C271.336 153.298 271.452 174.522 271.4 195.746C261.041 195.746 250.681 195.746 240.322 195.746C240.322 178.811 240.322 161.865 240.322 144.93C240.322 140.715 240.66 136.5 239.774 132.4L239.722 132.2Z" fill="#FFB700"/>
<path d="M177.673 194.323C188.148 183.732 198.686 173.194 209.287 162.708C209.34 173.721 209.287 184.733 209.287 195.746C202.964 195.746 196.62 195.746 190.245 195.746C189.992 231.829 190.181 267.932 190.15 304.026C189.686 315.144 198.58 325.102 209.287 327.02C209.287 334.313 209.361 341.605 209.213 348.908C198.675 338.37 188.042 327.99 177.715 317.294C177.599 276.321 177.736 235.317 177.673 194.323Z" fill="#FFB700"/>
<path d="M302.234 162.993C312.91 173.436 323.553 183.953 333.902 194.713C334.387 235.454 334.007 276.226 334.092 316.956C323.553 327.495 313.173 338.117 302.477 348.455C302.329 341.31 302.382 334.165 302.424 327.02C310.033 325.482 316.429 320.36 319.591 313.268C322.067 307.735 321.33 301.539 321.425 295.659C321.477 262.432 321.33 229.205 321.498 195.977C315.07 195.609 308.621 195.914 302.182 195.788C302.213 184.817 302.14 173.879 302.234 162.993Z" fill="#FFB700"/>
<path d="M116.119 255.729C126.488 245.549 136.595 235.095 147.038 224.989C147.101 245.549 147.175 266.088 147.038 286.691C136.658 276.416 126.257 266.194 116.119 255.729Z" fill="#FFB700"/>
<path d="M364.568 225.263C374.896 235.327 384.97 245.634 395.213 255.824C385.044 266.025 375.022 276.384 364.568 286.301C364.61 265.92 364.61 245.57 364.568 225.263Z" fill="#FFB700"/>
<path d="M240.343 327.263C241.724 327.442 243.368 326.968 244.559 327.916C248.511 330.793 251.872 334.387 255.687 337.401C259.523 334.334 262.969 330.804 266.952 327.916C268.217 326.968 269.924 327.326 271.389 327.115V379.459V379.68C266.12 384.833 260.904 390.155 255.582 395.35C250.534 390.081 245.044 385.265 240.291 379.754C240.238 362.292 240.301 344.777 240.343 327.263Z" fill="#FFB700"/>
</g>
</g>
<defs>
<clipPath id="clip0_1_2826">
<rect width="512" height="512" fill="white"/>
</clipPath>
<clipPath id="clip1_1_2826">
<rect width="512" height="512" fill="white" transform="translate(0.113892 0.113892)"/>
</clipPath>
</defs>
</svg>
