<svg width="370" height="512" viewBox="0 0 370 512" fill="none" xmlns="http://www.w3.org/2000/svg">
<rect width="369.149" height="512" fill="white"/>
<path d="M52.2772 432.616C52.0152 432.354 51.7532 431.699 52.1462 431.306L58.1719 424.364C58.4339 423.971 58.9578 423.971 59.3508 424.233C62.8876 427.115 67.7344 429.735 73.498 429.735C79.1307 429.735 82.2746 427.115 82.2746 423.316C82.2746 420.172 80.3097 418.207 73.891 417.29L71.0092 416.897C60.0058 415.325 53.9801 410.217 53.9801 400.785C53.9801 390.83 61.4467 384.28 73.1051 384.28C80.1787 384.28 86.8593 386.376 91.4441 389.913C91.9681 390.175 91.9681 390.568 91.5751 391.092L86.7283 398.296C86.4664 398.689 86.0734 398.82 85.6804 398.558C81.6196 395.807 77.5588 394.498 73.1051 394.498C68.3893 394.498 65.9005 396.986 65.9005 400.392C65.9005 403.536 68.1273 405.501 74.284 406.287L77.1658 406.68C88.3003 408.252 94.1949 413.229 94.1949 423.054C94.1949 432.747 86.9903 440.083 72.9741 440.083C64.5905 439.952 56.469 436.677 52.2772 432.616Z" fill="#1A1659"/>
<path d="M100.483 385.983C100.483 385.459 100.745 385.197 101.269 385.197H135.851C136.375 385.197 136.637 385.459 136.637 385.983V394.498C136.637 395.022 136.375 395.284 135.851 395.284H112.534C112.272 395.284 112.01 395.415 112.01 395.808V406.549C112.01 406.811 112.141 407.073 112.534 407.073H131.921C132.445 407.073 132.707 407.335 132.707 407.859V416.242C132.707 416.766 132.445 417.028 131.921 417.028H112.534C112.272 417.028 112.01 417.159 112.01 417.552V428.687C112.01 428.949 112.141 429.211 112.534 429.211H135.72C136.244 429.211 136.506 429.473 136.506 429.997V438.511C136.506 439.035 136.244 439.297 135.72 439.297H101.269C100.745 439.297 100.483 439.035 100.483 438.511V385.983Z" fill="#1A1659"/>
<path d="M173.446 439.035C172.791 439.035 172.529 438.773 172.267 438.249L162.967 418.469H155.762C155.5 418.469 155.238 418.6 155.238 418.993V438.249C155.238 438.773 154.976 439.035 154.452 439.035H144.366C143.842 439.035 143.58 438.773 143.58 438.249V385.852C143.58 385.328 143.842 385.066 144.366 385.066H165.848C176.852 385.066 184.187 392.009 184.187 401.833C184.187 408.776 180.52 414.146 174.625 416.766L185.235 437.987C185.497 438.511 185.235 438.904 184.711 438.904H173.446V439.035ZM172.66 401.964C172.66 397.903 169.778 395.283 165.324 395.283H155.762C155.5 395.283 155.238 395.415 155.238 395.807V408.252C155.238 408.514 155.369 408.776 155.762 408.776H165.324C169.778 408.645 172.66 406.025 172.66 401.964Z" fill="#1A1659"/>
<path d="M191.523 385.983C191.523 385.459 191.785 385.197 192.309 385.197H202.395C202.919 385.197 203.181 385.459 203.181 385.983V438.38C203.181 438.904 202.919 439.166 202.395 439.166H192.44C191.916 439.166 191.654 438.904 191.654 438.38V385.983H191.523Z" fill="#1A1659"/>
<path d="M211.958 385.983C211.958 385.459 212.22 385.197 212.743 385.197H247.326C247.85 385.197 248.112 385.459 248.112 385.983V394.498C248.112 395.022 247.85 395.284 247.326 395.284H224.14C223.878 395.284 223.616 395.415 223.616 395.808V406.549C223.616 406.811 223.747 407.073 224.14 407.073H243.527C244.051 407.073 244.313 407.335 244.313 407.859V416.242C244.313 416.766 244.051 417.028 243.527 417.028H224.14C223.878 417.028 223.616 417.159 223.616 417.552V428.687C223.616 428.949 223.747 429.211 224.14 429.211H247.326C247.85 429.211 248.112 429.473 248.112 429.997V438.511C248.112 439.035 247.85 439.297 247.326 439.297H212.743C212.22 439.297 211.958 439.035 211.958 438.511V385.983Z" fill="#1A1659"/>
<path d="M286.886 385.983C287.017 385.459 287.41 385.197 287.933 385.197H297.889C298.413 385.197 298.806 385.459 298.937 385.983L317.145 438.38C317.276 438.904 317.145 439.166 316.621 439.166H306.273C305.749 439.166 305.356 438.904 305.225 438.38L302.081 428.949H283.218L280.205 438.38C280.074 438.904 279.681 439.166 279.157 439.166H268.809C268.285 439.166 268.154 438.904 268.285 438.38L286.886 385.983ZM298.937 418.993L292.78 400.13H292.518L286.362 418.993H298.937Z" fill="#1A1659"/>
<path d="M53.1179 275.606H133.548L184.504 358.918L53.1179 275.606Z" fill="#1A1659"/>
<path d="M316.021 275.606H235.46L184.504 358.918L316.021 275.606Z" fill="#1A1659"/>
<path d="M133.547 275.606H184.504H235.46L184.504 141.076L133.547 275.606Z" fill="#1A1659"/>
<path d="M184.504 358.918L235.46 275.606H133.547L184.504 358.918Z" fill="url(#paint0_linear_2_1524)"/>
<path d="M184.504 141.077L206.511 199.106H178.74L159.877 249.146H225.505L235.46 275.606H316.021L220.789 53.9662C196.555 53.9662 172.453 53.9662 148.219 53.9662L53.1179 275.606H133.679L184.504 141.077Z" fill="url(#paint1_linear_2_1524)"/>
<path d="M140.96 465.445H53.7405V485.247H140.96V465.445Z" fill="#00A346"/>
<path d="M228.179 465.445H140.96V485.247H228.179V465.445Z" fill="#E2E2E2"/>
<path d="M315.398 465.445H228.179V485.247H315.398V465.445Z" fill="#DB052B"/>
<defs>
<linearGradient id="paint0_linear_2_1524" x1="133.6" y1="317.209" x2="235.463" y2="317.209" gradientUnits="userSpaceOnUse">
<stop stop-color="#31ECFF"/>
<stop offset="0.049371" stop-color="#2DE2FF"/>
<stop offset="0.2964" stop-color="#1BB2FF"/>
<stop offset="0.5147" stop-color="#0E90FF"/>
<stop offset="0.694" stop-color="#067BFF"/>
<stop offset="0.8118" stop-color="#0373FF"/>
</linearGradient>
<linearGradient id="paint1_linear_2_1524" x1="260.022" y1="68.2749" x2="169.196" y2="317.817" gradientUnits="userSpaceOnUse">
<stop stop-color="#31ECFF"/>
<stop offset="0.0488274" stop-color="#2DE2FF"/>
<stop offset="0.2932" stop-color="#1BB2FF"/>
<stop offset="0.5091" stop-color="#0E90FF"/>
<stop offset="0.6863" stop-color="#067BFF"/>
<stop offset="0.8028" stop-color="#0373FF"/>
</linearGradient>
</defs>
</svg>
