<svg width="370" height="512" viewBox="0 0 370 512" fill="none" xmlns="http://www.w3.org/2000/svg">
<path d="M43.3536 454.033C43.0741 453.753 42.7945 453.054 43.2138 452.635L49.6434 445.227C49.923 444.808 50.4821 444.808 50.9014 445.087C54.6753 448.162 59.8469 450.958 65.997 450.958C72.0073 450.958 75.3618 448.162 75.3618 444.109C75.3618 440.754 73.2652 438.658 66.4163 437.679L63.3413 437.26C51.6003 435.583 45.1707 430.132 45.1707 420.068C45.1707 409.445 53.1378 402.456 65.5777 402.456C73.1255 402.456 80.2539 404.693 85.146 408.467C85.7051 408.746 85.7051 409.165 85.2858 409.725L80.1142 417.412C79.8346 417.831 79.4153 417.971 78.996 417.692C74.663 414.756 70.33 413.359 65.5777 413.359C60.5458 413.359 57.8901 416.014 57.8901 419.649C57.8901 423.003 60.2663 425.1 66.8356 425.938L69.9107 426.358C81.7914 428.035 88.0813 433.346 88.0813 443.829C88.0813 454.173 80.3937 462 65.4379 462C56.4924 461.86 47.8264 458.366 43.3536 454.033Z" fill="white"/>
<path d="M94.7908 404.273C94.7908 403.714 95.0703 403.435 95.6294 403.435H132.53C133.089 403.435 133.368 403.714 133.368 404.273V413.359C133.368 413.918 133.089 414.197 132.53 414.197H107.65C107.37 414.197 107.091 414.337 107.091 414.757V426.218C107.091 426.498 107.231 426.777 107.65 426.777H128.337C128.896 426.777 129.175 427.057 129.175 427.616V436.561C129.175 437.12 128.896 437.4 128.337 437.4H107.65C107.37 437.4 107.091 437.54 107.091 437.959V449.84C107.091 450.119 107.231 450.399 107.65 450.399H132.39C132.949 450.399 133.229 450.678 133.229 451.238V460.323C133.229 460.882 132.949 461.161 132.39 461.161H95.6294C95.0703 461.161 94.7908 460.882 94.7908 460.323V404.273Z" fill="white"/>
<path d="M172.645 460.882C171.946 460.882 171.666 460.602 171.387 460.043L161.463 438.937H153.775C153.496 438.937 153.216 439.077 153.216 439.496V460.043C153.216 460.602 152.937 460.882 152.378 460.882H141.615C141.056 460.882 140.776 460.602 140.776 460.043V404.134C140.776 403.575 141.056 403.295 141.615 403.295H164.538C176.279 403.295 184.106 410.703 184.106 421.186C184.106 428.594 180.193 434.325 173.903 437.12L185.225 459.764C185.504 460.323 185.225 460.742 184.665 460.742H172.645V460.882ZM171.806 421.326C171.806 416.993 168.731 414.197 163.979 414.197H153.775C153.496 414.197 153.216 414.337 153.216 414.756V428.035C153.216 428.315 153.356 428.594 153.775 428.594H163.979C168.731 428.454 171.806 425.659 171.806 421.326Z" fill="white"/>
<path d="M191.934 404.273C191.934 403.714 192.213 403.435 192.772 403.435H203.535C204.094 403.435 204.373 403.714 204.373 404.273V460.183C204.373 460.742 204.094 461.022 203.535 461.022H192.912C192.353 461.022 192.073 460.742 192.073 460.183V404.273H191.934Z" fill="white"/>
<path d="M213.738 404.273C213.738 403.714 214.018 403.435 214.577 403.435H251.477C252.036 403.435 252.316 403.714 252.316 404.273V413.359C252.316 413.918 252.036 414.197 251.477 414.197H226.737C226.457 414.197 226.178 414.337 226.178 414.757V426.218C226.178 426.498 226.318 426.777 226.737 426.777H247.424C247.983 426.777 248.262 427.057 248.262 427.616V436.561C248.262 437.12 247.983 437.4 247.424 437.4H226.737C226.457 437.4 226.178 437.54 226.178 437.959V449.84C226.178 450.119 226.318 450.399 226.737 450.399H251.477C252.036 450.399 252.316 450.678 252.316 451.238V460.323C252.316 460.882 252.036 461.161 251.477 461.161H214.577C214.018 461.161 213.738 460.882 213.738 460.323V404.273Z" fill="white"/>
<path d="M293.689 404.273C293.829 403.714 294.248 403.435 294.807 403.435H305.43C305.989 403.435 306.408 403.714 306.548 404.273L325.977 460.183C326.116 460.742 325.977 461.022 325.418 461.022H314.375C313.816 461.022 313.397 460.742 313.257 460.183L309.903 450.119H289.775L286.56 460.183C286.421 460.742 286.001 461.022 285.442 461.022H274.4C273.841 461.022 273.701 460.742 273.841 460.183L293.689 404.273ZM306.548 439.496L299.979 419.369H299.699L293.13 439.496H306.548Z" fill="white"/>
<path d="M184.444 375.394L238.816 286.498H130.072L184.444 375.394Z" fill="white"/>
<path d="M184.444 142.95L207.926 204.87H178.294L158.167 258.263H228.193L238.816 286.498H324.777L223.161 50C197.303 50 171.585 50 145.727 50L44.2507 286.498H130.212L184.444 142.95Z" fill="white"/>
</svg>
