<svg width="512" height="512" viewBox="0 0 512 512" fill="none" xmlns="http://www.w3.org/2000/svg">
<g clip-path="url(#clip0_2_1367)">
<g clip-path="url(#clip1_2_1367)">
<path d="M173.506 412.045L186.187 419.007C186.187 419.007 200.914 423.545 201.286 423.619C201.658 423.688 214.08 427.933 214.08 427.933L234.311 431.727L258.262 433.14L275.816 432.024L295.75 427.933L310.403 424.437L330.932 415.958L351.461 404.056L367.23 392.676L381.437 379.734L396.76 362.328L414.239 332.799L420.487 317.03L427.405 290.849L430.38 274.782L431.198 253.435L429.338 232.088L425.842 214.98L422.123 202.261L413.272 181.434L406.652 168.045L393.114 149.004L381.065 134.128L361.204 117.095L341.27 103.483L317.543 93.2932L293.815 86.3758L272.393 82.3592L246.137 81.8386L223.004 84.1444L201.954 89.4255L180.681 97.8305L159.78 109.285L138.878 125.649L127.721 135.542L116.713 148.632L106.968 162.393L98.0431 178.161L91.0512 192.442L85.6215 210.294L81.0842 229.186L79.0759 247.707L80.1172 271.732L81.6048 284.898L85.9933 305.352L92.6132 323.947L101.093 340.832L115.076 364.039L137.316 387.32L154.796 401.675L173.506 412.045Z" fill="#B2B3B5"/>
<path opacity="0.96" d="M182.11 268.855L250.064 179.444L255.136 177.478L255.938 177.137L257.844 178.194L313.009 237.03L333.555 282.473L333.887 284.645L336.394 314.131L322.256 326.796L319.519 327.544L314.207 326.481L192.527 327.492L175.723 309.05L178.431 282.47L182.11 268.855Z" fill="#312C28"/>
<mask id="mask0_2_1367" style="mask-type:luminance" maskUnits="userSpaceOnUse" x="-9" y="0" width="531" height="513">
<path d="M-9 512.388H521.32V0.388489H-9V512.388Z" fill="white"/>
</mask>
<g mask="url(#mask0_2_1367)">
<path d="M95.3763 251.395C96.0107 247.389 97.1405 246.502 101.999 247.276L125.333 250.996C137.414 252.916 141.481 244.886 142.498 238.481C143.88 229.755 139.96 223.237 130.452 221.725L106.666 217.936C101.877 217.171 101.025 215.911 101.616 212.157L100.521 211.991L98.5484 224.402L99.6522 224.576C100.313 220.378 101.486 219.631 106.275 220.395L129.8 224.141C137.553 225.366 141.437 230.555 140.412 237.021C139.604 242.07 136.058 246.468 127.715 245.147L102.963 241.201C98.2443 240.445 97.297 239.307 97.9314 235.3L96.8451 235.118L94.2726 251.222L95.3763 251.395Z" fill="white"/>
<path d="M118.581 191.855C122.101 184.755 130.044 183.399 139.795 188.231C149.39 192.985 153.005 199.755 149.563 206.699C148.755 208.35 147.704 209.697 146.591 210.584L117.295 196.07C117.573 194.28 117.886 193.245 118.581 191.855ZM117.929 202.232L141.272 213.79C145.166 215.728 145.435 216.797 143.662 220.387L144.514 220.821L151.093 207.516C155.604 198.425 152.962 187.788 142.411 182.556C133.572 178.176 122.726 179.088 116.877 190.89L110.42 203.935L111.272 204.352C112.975 200.78 114.027 200.294 117.929 202.232Z" fill="white"/>
<path d="M137.266 168.529L157.854 184.459C161.131 186.979 161.409 188.257 159.001 191.273L159.758 191.846L168.7 180.296L167.944 179.714C165.798 182.495 164.729 183.147 161.07 180.314L140.473 164.383C137.075 161.75 137.04 160.525 139.369 157.613L138.622 157.022L129.679 168.581L130.435 169.163C132.72 166.208 133.868 165.896 137.266 168.529Z" fill="white"/>
<path d="M147.869 150.183L150.424 150.791L168.553 172.275C170.56 174.664 170.612 176.012 168.005 178.28L168.613 179.01L177.6 171.423L177 170.693C173.837 173.517 172.55 173.726 169.639 170.276L154.022 151.773L154.109 151.703L190.54 161.315L191.131 160.811L169.37 135.026C167.501 132.818 167.588 131.358 169.804 129.481L169.187 128.76L160.792 135.843L161.409 136.564C164.442 133.931 165.702 133.966 168.44 137.207L182.284 153.615L182.197 153.685L149.763 145.159L143.454 150.487L144.062 151.199C145.34 150.13 146.2 149.765 147.869 150.183Z" fill="white"/>
<path d="M183.588 127.526L194.851 151.008C196.754 154.98 196.268 156.014 192.678 157.683L193.087 158.534L215.709 147.68L214.223 137.885L213.249 138.033C214.006 143.864 212.789 146.732 208.609 148.74L203.681 151.095C201.621 152.086 201.048 151.808 199.892 149.392L194.008 137.129L200.344 134.087C203.264 132.679 204.872 133.34 206.627 137.138L207.487 136.712L201.743 124.745L200.882 125.171C202.794 129.012 202.342 130.776 198.527 132.61L193.087 135.217L186.647 121.79L193.591 118.461C197.51 116.575 199.335 116.384 202.273 121.095L203.177 120.66L199.11 113.464L176.626 124.249L177.044 125.101C180.815 123.163 181.85 123.902 183.588 127.526Z" fill="white"/>
<path d="M216.786 125.005C219.95 126.944 226.19 128.829 228.684 130.35C231.1 131.836 232.213 133.349 232.751 135.573C233.577 139.041 231.804 142.161 228.502 142.961C224.33 143.96 218.968 141.744 216.882 134.73L215.856 134.982L218.837 147.402L219.863 147.158C219.776 145.803 220.28 145.046 221.366 144.786C222.992 144.395 225.634 145.829 229.371 144.933C235.124 143.552 238.513 138.094 237.149 132.393C236.471 129.568 234.533 127.004 231.978 125.431C228.145 123.085 221.983 121.573 218.89 119.678C216.804 118.4 215.622 116.793 215.144 114.846C214.483 112.074 216.256 109.414 219.341 108.675C222.714 107.867 228.432 109.475 230.492 116.61L231.413 116.393L228.51 104.295L227.589 104.513C227.546 105.79 226.998 106.607 226.077 106.824C224.938 107.102 222.375 105.764 218.307 106.737C212.997 108.024 210.216 112.699 211.528 118.175C212.276 121.268 214.101 123.354 216.786 125.005Z" fill="white"/>
<path d="M242.772 109.206L243.45 135.243C243.554 139.649 242.694 140.397 238.731 140.44L238.748 141.388L263.838 140.744L266.498 131.193L265.542 130.941C263.847 136.555 261.553 138.676 256.92 138.806L251.463 138.945C249.177 139.006 248.777 138.511 248.699 135.834L248.351 122.233L255.374 122.051C258.606 121.964 259.823 123.215 259.867 127.404L260.814 127.378L260.475 114.107L259.519 114.133C259.693 118.427 258.554 119.843 254.322 119.956L248.299 120.104L247.917 105.225L255.608 105.025C259.954 104.904 261.7 105.477 262.456 110.979L263.465 110.952L262.691 102.722L237.766 103.365L237.792 104.313C242.024 104.095 242.668 105.19 242.772 109.206Z" fill="white"/>
<path d="M293.092 148.036C299.332 150.017 305.024 148.123 310.056 142.448L309.222 141.622C304.52 146.454 300.461 147.984 295.534 146.402C288.051 144.021 285.079 136.964 289.268 123.797C293.743 109.762 299.853 103.539 307.579 105.999C313.515 107.885 316.2 113.89 314.428 121.373L315.549 121.729L319.277 107.45L318.217 107.111C317.356 108.971 316.757 109.536 315.948 109.284C314.384 108.78 312.724 105.364 307.675 103.756C297.385 100.48 286.608 107.971 282.324 121.451C277.909 135.304 284.357 145.255 293.092 148.036Z" fill="white"/>
<path d="M332.2 134.895L332.287 134.956L328.585 148.679L321.589 144.186L332.2 134.895ZM306.215 150.148L305.702 150.956L314.384 156.527L314.897 155.736C312.516 154.267 312.194 153.129 312.976 151.912C313.193 151.582 313.585 151.173 314.123 150.652L319.929 145.637L327.994 150.826L326.256 157.457C325.839 158.925 325.7 159.351 325.361 159.873C324.509 161.176 323.44 161.22 321.467 159.951L320.954 160.751L331.879 167.773L332.4 166.973C330.149 165.522 329.619 165 331.01 159.847L339.857 126.691L339.109 126.205L313.228 148.418C309.943 151.278 308.518 151.625 306.215 150.148Z" fill="white"/>
<path d="M333.33 168.059L332.626 168.694L349.399 187.136L358.655 182.399L358.264 181.556C351.728 184.563 349.651 184.268 345.593 179.818L342.933 176.881C341.36 175.151 341.438 174.491 343.29 172.796L363.174 154.71C366.468 151.712 367.598 151.964 370.266 154.971L370.97 154.337L360.758 143.117L360.063 143.751C362.766 146.637 362.905 147.871 359.646 150.834L340.378 168.355C337.371 171.093 336.215 171.31 333.33 168.059Z" fill="white"/>
<path d="M357.49 202.353C360.219 207.22 364.869 209.349 371.317 208.741L371.256 207.733C365.529 208.02 362.114 206.594 359.958 202.753C356.682 196.913 358.942 190.795 369.197 185.033C380.147 178.897 387.578 178.558 390.958 184.589C393.557 189.213 391.732 194.523 386.291 198.156L386.787 199.033L397.398 192.298L396.938 191.472C395.321 192.124 394.617 192.133 394.261 191.499C393.583 190.282 394.53 187.188 392.323 183.251C387.821 175.221 376.749 173.63 366.242 179.531C355.439 185.589 353.666 195.54 357.49 202.353Z" fill="white"/>
<path d="M395.121 205.925L370.527 214.477C366.616 215.833 365.39 215.372 364.182 211.722L363.287 212.026L368.093 225.836L368.98 225.523C367.824 222.203 367.867 220.952 372.239 219.431L396.842 210.879C400.901 209.471 401.952 210.106 403.126 213.66L404.021 213.347L399.223 199.538L398.328 199.85C399.554 203.388 399.18 204.517 395.121 205.925Z" fill="white"/>
<path d="M407.375 234.735C408.271 240.853 403.36 244.225 390.932 246.042C380.13 247.624 372.969 246.815 371.952 239.915C371.065 233.788 375.984 230.425 388.395 228.608C399.98 226.913 406.437 228.278 407.375 234.735ZM387.491 222.429C377.123 223.95 368.632 230.598 370.031 240.202C371.5 250.239 382.024 253.664 391.845 252.221C401.5 250.813 410.782 244.556 409.305 234.448C407.827 224.358 397.146 221.021 387.491 222.429Z" fill="white"/>
<path d="M440.4 398.609C446.597 394.507 447.77 393.229 447.77 393.229C447.77 393.229 440.756 388.666 423.323 393.698C423.323 393.698 412.798 396.384 401.448 406.091C390.107 415.808 372.212 428.792 357.238 433.702C357.238 433.702 370.804 436.744 393.618 427.262C416.422 417.789 434.195 402.693 440.4 398.609Z" fill="#A0834A"/>
<path d="M330.288 435.718C303.616 431.338 270.548 455.133 270.548 455.133C313.871 457.636 330.288 435.718 330.288 435.718Z" fill="#A0834A"/>
<path d="M390.863 394.724C390.863 394.724 368.215 395.08 346.21 434.449C346.21 434.449 375.923 428.166 390.863 394.724Z" fill="#A0834A"/>
<path d="M331.939 464.085C361.557 459.435 385.674 452.231 385.674 452.231C385.674 452.231 378.531 442.766 356.899 444.47C335.268 446.182 323.483 453.004 316.044 455.168C308.605 457.35 293.248 459.974 288.442 460.061C288.442 460.061 302.321 468.743 331.939 464.085Z" fill="#A0834A"/>
<path d="M361.575 91.6415C378.948 117.905 412.894 123.563 412.894 123.563C393.905 92.4497 361.575 91.6415 361.575 91.6415Z" fill="#A0834A"/>
<path d="M467.429 99.437C467.429 99.437 450.89 122.841 459.007 154.163C459.007 154.163 477.727 134.183 467.429 99.437Z" fill="#A0834A"/>
<path d="M432.057 66.9856C432.057 66.9856 428.016 96.0824 452.055 124.371C452.055 124.371 452.672 87.183 432.057 66.9856Z" fill="#A0834A"/>
<path d="M464.821 197.13C467.637 212 470.957 237.395 470.444 242.279C470.444 242.279 484.175 226.366 478.978 187.04C475.589 161.463 474.911 152.086 475.328 149.687C475.328 149.687 467.107 151.669 463.465 172.996C463.465 172.996 462.005 182.252 464.821 197.13Z" fill="#A0834A"/>
<path d="M405.985 390.935C405.985 390.935 430.98 373.657 433.265 334.557C433.265 334.557 411.59 346.238 405.985 390.935Z" fill="#A0834A"/>
<path d="M492.632 235.604C492.632 235.604 481.421 239.541 474.903 250.761C468.385 261.972 465.499 280.301 463.231 291.521C460.954 302.741 455.653 318.193 455.653 318.193C455.653 318.193 473.234 302.436 479.448 283.795C485.662 265.162 491.12 239.393 492.632 235.604Z" fill="#A0834A"/>
<path d="M515.836 234.692C515.836 234.692 492.954 242.566 484.315 286.967C484.315 286.967 512.96 262.58 515.836 234.692Z" fill="#A0834A"/>
<path d="M453.176 186.927C443.92 149.27 415.727 137.616 415.727 137.616C416.866 162.793 453.176 186.927 453.176 186.927Z" fill="#A0834A"/>
<path d="M487.852 192.654C487.852 192.654 500.132 165.087 488.373 129.194C488.373 129.194 479.318 138.763 480.465 162.167C481.612 185.58 487.852 192.654 487.852 192.654Z" fill="#A0834A"/>
<path d="M485.158 226.887C516.367 190.577 504.512 175.803 504.512 175.803C483.394 197.035 485.158 226.887 485.158 226.887Z" fill="#A0834A"/>
<path d="M452.48 173.474C452.48 173.474 456.921 166 450.456 142.961C443.99 119.93 432.683 104.365 427.625 98.1074C422.575 91.8414 421.767 84.967 421.767 84.967C421.767 84.967 412.277 106.998 427.833 129.429C443.39 151.851 450.056 162.158 452.48 173.474Z" fill="#A0834A"/>
<path d="M455.522 358.813C455.522 358.813 463.257 351.235 470.531 338.955C477.797 326.684 484.011 318.349 485.984 316.985C485.984 316.985 475.989 313.352 457.799 329.873C439.61 346.386 444.007 360.934 419.456 383.973C419.456 383.973 434.308 382.305 455.522 358.813Z" fill="#A0834A"/>
<path d="M307.344 44.6417C308.187 41.6173 308.787 39.827 309.83 37.4196C312.898 35.7597 315.635 35.3165 318.225 36.0378C323.753 37.5848 325.169 45.5281 321.936 57.1043C319.685 65.1345 315.818 68.9933 311.151 67.6896C305.102 65.9949 303.72 57.5996 307.344 44.6417ZM309.317 70.2534C319.781 73.1735 328.341 63.1791 331.218 52.8892C333.799 43.6509 330.027 35.1427 322.423 33.0221C318.616 31.9531 314.836 32.4833 311.281 34.5604L311.16 34.3431C318.112 20.4552 329.515 12.6509 340.074 14.8497L340.517 13.294C326.003 8.21862 305.954 18.6302 299.696 41.0176C295.594 55.7051 299.47 67.4984 309.317 70.2534Z" fill="#A0834A"/>
<path d="M445.702 325.467C445.702 325.467 464.187 297.891 452.828 268.334C452.828 268.334 435.09 286.976 445.702 325.467Z" fill="#A0834A"/>
<path d="M398.163 37.4805C398.163 37.4805 388.664 58.9033 411.703 93.6577C411.703 93.6577 417.161 60.1113 398.163 37.4805Z" fill="#A0834A"/>
<path d="M274.406 35.7076C268.688 35.2296 265.803 27.7034 266.793 15.7275C267.489 7.4104 270.565 2.8912 275.389 3.29097C281.646 3.82111 284.496 11.7906 283.375 25.2091C283.115 28.4247 282.967 30.2063 282.393 32.7788C279.69 34.9776 277.083 35.9335 274.406 35.7076ZM277.7 55.6095C286.513 48.1528 290.867 37.9759 291.753 27.3384C293.013 12.1469 286.904 1.2834 276.71 0.431705C266.072 -0.446064 259.389 10.6086 258.476 21.6025C257.685 31.1623 262.987 38.8015 270.852 39.462C274.789 39.7836 278.396 38.5582 281.498 35.8553L281.672 36.0465C277.448 51.0816 267.732 60.8066 256.938 60.6328L256.808 62.2405C265.255 63.4833 271.982 60.4416 277.7 55.6095Z" fill="#A0834A"/>
<path d="M447.527 196.296C438.262 218.353 461.893 252.786 461.893 252.786C468.645 220.43 447.527 196.296 447.527 196.296Z" fill="#A0834A"/>
<path d="M408.245 109.623C408.245 109.623 406.419 89.2167 388.647 74.4598C370.865 59.7115 351.468 43.5467 347.626 39.5055C347.626 39.5055 342.977 51.0294 359.959 68.2024C376.923 85.3754 396.92 95.2742 408.245 109.623Z" fill="#A0834A"/>
<path d="M391.645 68.1937C391.645 68.1937 384.171 36.2725 351.233 19.8991C351.233 19.8991 355.683 45.9714 391.645 68.1937Z" fill="#A0834A"/>
<path d="M379.043 439.003C379.043 439.003 402.317 452.604 439.436 439.786C439.436 439.786 416.813 424.655 379.043 439.003Z" fill="#A0834A"/>
<path d="M47.4032 197.13C50.219 182.252 48.759 172.996 48.759 172.996C45.1176 151.669 36.8961 149.687 36.8961 149.687C37.3132 152.086 36.6354 161.463 33.2546 187.04C28.0489 226.366 41.7803 242.279 41.7803 242.279C41.2675 237.395 44.5874 212 47.4032 197.13Z" fill="#A0834A"/>
<path d="M42.4493 400.129C63.5071 424.577 102.45 427.618 102.45 427.618C73.6753 396.966 42.4493 400.129 42.4493 400.129Z" fill="#A0834A"/>
<path d="M103.198 460.774C120.171 477.321 170.143 469.908 170.143 469.908C123.708 450.267 103.198 460.774 103.198 460.774Z" fill="#A0834A"/>
<path d="M133.181 439.003C95.4111 424.655 72.7803 439.786 72.7803 439.786C109.916 452.604 133.181 439.003 133.181 439.003Z" fill="#A0834A"/>
<path d="M49.9234 362.298C33.098 322.59 6.87793 319.409 6.87793 319.409C12.9441 342.449 49.9234 362.298 49.9234 362.298Z" fill="#A0834A"/>
<path d="M7.77332 175.803C7.77332 175.803 -4.08091 190.577 27.1277 226.887C27.1277 226.887 28.8919 197.035 7.77332 175.803Z" fill="#A0834A"/>
<path d="M148.129 486.49C148.129 486.49 178.365 494.711 205.575 471.75C205.575 471.75 173.715 466.336 148.129 486.49Z" fill="#A0834A"/>
<path d="M31.8464 162.176C32.9936 138.772 23.9378 129.194 23.9378 129.194C12.1792 165.087 24.4593 192.663 24.4593 192.663C24.4593 192.663 30.6993 185.58 31.8464 162.176Z" fill="#A0834A"/>
<path d="M-9 273.192C6.31316 301.68 38.2779 307.59 38.2779 307.59C17.3678 274.556 -9 273.192 -9 273.192Z" fill="#A0834A"/>
<path d="M27.9358 286.975C19.2884 242.574 -3.58569 234.692 -3.58569 234.692C-0.709045 262.572 27.9358 286.975 27.9358 286.975Z" fill="#A0834A"/>
<path d="M73.3885 384.573C50.3579 360.63 18.0803 364.723 18.0803 364.723C37.6259 386.998 73.3885 384.573 73.3885 384.573Z" fill="#A0834A"/>
<path d="M462.301 362.298C462.301 362.298 499.28 342.449 505.347 319.409C505.347 319.409 479.118 322.59 462.301 362.298Z" fill="#A0834A"/>
<path d="M438.836 384.573C438.836 384.573 474.599 386.998 494.153 364.723C494.153 364.723 461.867 360.63 438.836 384.573Z" fill="#A0834A"/>
<path d="M474.034 307.59C474.034 307.59 506.007 301.68 521.32 273.192C521.32 273.192 494.944 274.548 474.034 307.59Z" fill="#A0834A"/>
<path d="M409.809 427.61C409.809 427.61 448.752 424.568 469.81 400.121C469.81 400.121 438.593 396.966 409.809 427.61Z" fill="#A0834A"/>
<path d="M256.156 463.068C256.156 463.059 256.165 463.033 256.165 463.033C256.156 463.033 256.138 463.042 256.13 463.051C256.112 463.042 256.104 463.033 256.095 463.033C256.095 463.033 256.095 463.059 256.104 463.068C225.538 480.154 222.766 512.388 222.766 512.388C246.874 504.08 255.539 465.945 256.13 463.198C256.721 465.945 265.385 504.08 289.485 512.388C289.485 512.388 286.713 480.154 256.156 463.068Z" fill="#A0834A"/>
<path d="M328.984 496.562C319.737 488.384 292.918 461.408 256.851 460.643C256.851 460.643 268.818 465.953 283.219 478.981C297.611 492.017 318.529 512.632 345.054 503.532C345.054 503.532 338.231 504.74 328.984 496.562Z" fill="#A0834A"/>
<path d="M255.461 460.643C219.394 461.399 192.574 488.376 183.327 496.562C174.089 504.74 167.267 503.532 167.267 503.532C193.782 512.632 214.692 492.017 229.093 478.981C243.493 465.945 255.461 460.643 255.461 460.643Z" fill="#A0834A"/>
<path d="M342.108 469.908C342.108 469.908 392.08 477.321 409.053 460.774C409.053 460.774 388.56 450.266 342.108 469.908Z" fill="#A0834A"/>
<path d="M306.649 471.759C333.86 494.72 364.095 486.498 364.095 486.498C338.518 466.327 306.649 471.759 306.649 471.759Z" fill="#A0834A"/>
<path d="M241.729 455.125C241.729 455.125 208.661 431.329 181.989 435.71C181.989 435.71 198.406 457.628 241.729 455.125Z" fill="#A0834A"/>
<path d="M44.7959 99.437C34.4973 134.183 53.2173 154.163 53.2173 154.163C61.3345 122.841 44.7959 99.437 44.7959 99.437Z" fill="#A0834A"/>
<path d="M71.911 398.609C78.1163 402.693 95.8889 417.789 118.694 427.262C141.498 436.744 155.073 433.702 155.073 433.702C140.099 428.792 122.205 415.808 110.863 406.091C99.513 396.384 88.9884 393.698 88.9884 393.698C71.5547 388.666 64.5413 393.229 64.5413 393.229C64.5413 393.229 65.7058 394.507 71.911 398.609Z" fill="#A0834A"/>
<path d="M126.576 452.222C126.576 452.222 150.693 459.427 180.311 464.076C209.921 468.735 223.8 460.052 223.8 460.052C218.985 459.974 203.646 457.341 196.207 455.168C188.75 452.996 176.965 446.173 155.334 444.461C133.711 442.758 126.576 452.222 126.576 452.222Z" fill="#A0834A"/>
<path d="M106.327 390.935C100.712 346.238 79.0463 334.557 79.0463 334.557C81.3146 373.657 106.327 390.935 106.327 390.935Z" fill="#A0834A"/>
<path d="M50.3581 252.786C50.3581 252.786 73.971 218.353 64.7153 196.296C64.7153 196.296 43.588 220.43 50.3581 252.786Z" fill="#A0834A"/>
<path d="M26.2844 316.985C28.2485 318.349 34.4624 326.684 41.7366 338.964C49.0195 351.235 56.7456 358.813 56.7456 358.813C77.9598 382.305 92.8124 383.973 92.8124 383.973C68.2609 360.934 72.6584 346.386 54.4686 329.864C36.2875 313.352 26.2844 316.985 26.2844 316.985Z" fill="#A0834A"/>
<path d="M66.6097 325.467C77.2211 286.976 59.4833 268.334 59.4833 268.334C48.1244 297.891 66.6097 325.467 66.6097 325.467Z" fill="#A0834A"/>
<path d="M228.78 3.46479C233.777 2.93465 237.705 6.86288 238.348 13.016C238.931 18.5433 237.166 23.245 232.804 27.2254C224.652 21.7589 221.931 17.3527 221.514 13.3375C220.958 8.0709 223.965 3.96885 228.78 3.46479ZM243.824 50.6036C244.406 56.1396 241.182 60.6241 236.184 61.1542C230.031 61.7973 225.625 56.8436 224.747 48.457C224.087 42.2083 225.521 37.7238 229.293 34.178C239.947 41.0872 243.224 44.8068 243.824 50.6036ZM227.12 32.4138C220.637 38.5147 217.812 44.3115 218.464 50.4732C219.359 59.0423 226.737 64.8478 235.576 63.9179C244.319 63.014 250.385 55.427 249.455 46.5884C248.734 39.714 244.788 34.8037 235.237 28.8679C242.52 22.6801 245.11 18.0827 244.545 12.7292C243.937 6.92372 238.513 0.00585938 229.067 0.996609C220.228 1.92652 214.762 8.36639 215.648 16.753C216.256 22.5584 219.628 27.1646 227.12 32.4138Z" fill="#A0834A"/>
<path d="M37.3218 250.761C30.8125 239.55 19.5927 235.604 19.5927 235.604C21.1135 239.393 26.5627 265.162 32.7766 283.803C38.9905 302.436 56.5632 318.201 56.5632 318.201C56.5632 318.201 51.2619 302.741 48.9849 291.529C46.7166 280.31 43.8312 261.972 37.3218 250.761Z" fill="#A0834A"/>
<path d="M121.362 394.724C136.301 428.166 166.015 434.449 166.015 434.449C144.01 395.08 121.362 394.724 121.362 394.724Z" fill="#A0834A"/>
<path d="M150.737 91.6415C150.737 91.6415 118.407 92.4497 99.4176 123.563C99.4176 123.563 133.364 117.905 150.737 91.6415Z" fill="#A0834A"/>
<path d="M114.148 37.4805C95.1502 60.1113 100.617 93.6577 100.617 93.6577C123.647 58.9033 114.148 37.4805 114.148 37.4805Z" fill="#A0834A"/>
<path d="M59.0488 186.927C59.0488 186.927 95.3589 162.793 96.4974 137.616C96.4974 137.616 68.3132 149.27 59.0488 186.927Z" fill="#A0834A"/>
<path d="M84.426 129.42C99.9825 106.989 90.4921 84.967 90.4921 84.967C90.4921 84.967 89.6839 91.8327 84.6259 98.0987C79.5765 104.365 68.2611 119.921 61.7952 142.961C55.3292 166 59.7789 173.474 59.7789 173.474C62.2037 162.15 68.8695 151.851 84.426 129.42Z" fill="#A0834A"/>
<path d="M80.1674 66.9856C59.5529 87.183 60.1699 124.371 60.1699 124.371C84.1999 96.0824 80.1674 66.9856 80.1674 66.9856Z" fill="#A0834A"/>
<path d="M160.992 19.9077C128.062 36.2725 120.579 68.2024 120.579 68.2024C156.551 45.9714 160.992 19.9077 160.992 19.9077Z" fill="#A0834A"/>
<path d="M177.33 19.5513C179.303 18.9517 180.572 20.3422 181.824 24.4703L193.608 63.2573C194.877 67.4636 194.069 70.0622 189.81 71.444L190.254 72.9041L209.13 67.1768L208.687 65.7081C204.394 67.0204 202.169 65.5343 200.752 60.9021L185.152 9.48742L183.683 9.93065L173.724 20.6464L174.715 21.7501C175.305 20.9158 176.383 19.8381 177.33 19.5513Z" fill="#A0834A"/>
<path d="M152.301 68.1938C169.274 51.0208 164.624 39.5055 164.624 39.5055C160.792 43.538 141.394 59.7029 123.613 74.4598C105.823 89.2081 104.015 109.614 104.015 109.614C115.322 95.2742 135.328 85.358 152.301 68.1938Z" fill="#A0834A"/>
<path d="M255.808 83.5243C351.407 83.5243 429.259 161.376 429.259 257.079C429.259 297.013 415.692 333.854 392.931 363.22L333.521 282.543C334.121 276.66 333.955 273.174 333.955 273.174V177.141H255.895L333.495 282.474C333.486 282.604 333.469 282.752 333.451 282.891C333.399 283.395 333.347 283.908 333.286 284.438C333.278 284.49 333.269 284.542 333.26 284.603C333.182 285.22 333.104 285.863 333.008 286.532C333 286.584 332.991 286.637 332.982 286.706C332.687 288.818 332.296 291.138 331.774 293.633C331.765 293.693 331.748 293.737 331.739 293.78C331.574 294.589 331.392 295.423 331.201 296.257C331.183 296.309 331.174 296.379 331.157 296.431C330.966 297.265 330.757 298.126 330.531 298.995C330.514 299.064 330.497 299.134 330.47 299.212C330.253 300.072 330.027 300.942 329.767 301.828C329.723 302.002 329.671 302.184 329.628 302.358C329.384 303.149 329.158 303.949 328.915 304.774C328.845 304.991 328.767 305.217 328.698 305.426C328.446 306.217 328.202 307.008 327.941 307.807C327.855 308.033 327.776 308.268 327.689 308.503C327.42 309.302 327.151 310.102 326.846 310.919C326.716 311.275 326.568 311.649 326.438 312.014C326.169 312.709 325.917 313.404 325.638 314.108C325.456 314.569 325.256 315.055 325.047 315.516C324.804 316.142 324.561 316.75 324.3 317.376C324.083 317.88 323.848 318.393 323.622 318.897C323.361 319.496 323.109 320.096 322.831 320.696C322.466 321.487 322.075 322.286 321.693 323.086C321.528 323.416 321.38 323.746 321.215 324.076C320.659 325.206 320.068 326.345 319.459 327.492L255.912 241.245L255.886 241.218L192.47 327.492C192.452 327.483 192.443 327.474 192.443 327.474C191.861 326.397 191.314 325.319 190.784 324.25C190.618 323.92 190.453 323.581 190.288 323.242C189.932 322.512 189.576 321.782 189.245 321.061C189.054 320.661 188.88 320.279 188.706 319.879C188.402 319.218 188.107 318.558 187.82 317.906C187.646 317.497 187.472 317.098 187.307 316.698C187.038 316.055 186.777 315.42 186.516 314.795C186.36 314.386 186.204 313.995 186.047 313.595C185.795 312.961 185.552 312.318 185.317 311.683C185.178 311.318 185.039 310.945 184.917 310.588C184.657 309.884 184.413 309.189 184.179 308.503C184.083 308.216 183.987 307.929 183.892 307.66C183.579 306.704 183.266 305.756 182.988 304.826C182.918 304.618 182.866 304.409 182.805 304.209C182.579 303.488 182.371 302.767 182.171 302.071C182.075 301.706 181.971 301.359 181.884 301.002C181.736 300.464 181.589 299.916 181.458 299.395C181.354 299.012 181.25 298.63 181.163 298.239C181.041 297.761 180.928 297.283 180.815 296.813C180.728 296.422 180.633 296.031 180.546 295.649C180.45 295.214 180.355 294.762 180.259 294.328C180.181 293.945 180.094 293.563 180.024 293.189C179.929 292.772 179.859 292.372 179.781 291.955C179.703 291.582 179.633 291.208 179.572 290.852C179.494 290.46 179.433 290.078 179.373 289.713C179.199 288.661 179.025 287.645 178.886 286.68L178.895 286.689C178.677 285.194 178.503 283.786 178.364 282.508L118.815 363.42C95.9498 334.019 82.3313 297.118 82.3313 257.079C82.3313 161.376 160.183 83.5243 255.808 83.5243ZM255.808 430.643C214.031 430.643 175.644 415.773 145.661 391.056L192.417 327.518C195.711 333.654 199.735 339.981 204.68 346.299C228.215 376.317 255.912 387.432 255.912 387.432C255.912 387.432 283.714 376.317 307.205 346.299C312.142 339.989 316.165 333.671 319.459 327.544L366.111 390.909C336.102 415.721 297.654 430.643 255.808 430.643ZM78.5856 257.07C78.5856 354.937 158.115 434.545 255.912 434.545C353.77 434.545 433.343 354.937 433.343 257.07C433.343 159.195 353.77 79.6221 255.912 79.6221C158.115 79.6221 78.5856 159.195 78.5856 257.07Z" fill="white"/>
<path d="M177.939 177.141V273.183C177.939 273.183 177.774 276.633 178.365 282.474L255.869 177.141H234.681H177.939Z" fill="white"/>
</g>
</g>
</g>
<defs>
<clipPath id="clip0_2_1367">
<rect width="512" height="512" fill="white"/>
</clipPath>
<clipPath id="clip1_2_1367">
<rect width="530.32" height="512" fill="white" transform="translate(-9 0.388428)"/>
</clipPath>
</defs>
</svg>
