<svg width="320" height="160" viewBox="0 0 320 160" fill="none" xmlns="http://www.w3.org/2000/svg">
<g clip-path="url(#clip0_1876_700)">
<path d="M54.56 60.912H65.76V102H54.56V60.912ZM77.408 78.896V86.256H59.424V78.896H77.408ZM79.2 60.912V68.912H58.528V60.912H79.2ZM99.6435 78.064V70.32C99.6435 69.8507 99.5155 69.5093 99.2595 69.296C99.0035 69.04 98.5982 68.912 98.0435 68.912H95.9315V60.912H101.436C104.849 60.912 107.26 61.6373 108.668 63.088C110.118 64.5387 110.844 66.4587 110.844 68.848V78.064H99.6435ZM99.6435 92.592V77.232H110.844V94.064C110.844 96.4533 110.118 98.3733 108.668 99.824C107.26 101.275 104.849 102 101.436 102H95.9315V94H98.0435C98.5982 94 99.0035 93.8933 99.2595 93.68C99.5155 93.424 99.6435 93.0613 99.6435 92.592ZM93.7555 70.32V78.064H82.5555V68.848C82.5555 66.4587 83.2595 64.5387 84.6675 63.088C86.1182 61.6373 88.5502 60.912 91.9635 60.912H97.4675V68.912H95.3555C94.8008 68.912 94.3955 69.04 94.1395 69.296C93.8835 69.5093 93.7555 69.8507 93.7555 70.32ZM93.7555 77.232V92.592C93.7555 93.0613 93.8835 93.424 94.1395 93.68C94.3955 93.8933 94.8008 94 95.3555 94H97.4675V102H91.9635C88.5502 102 86.1182 101.275 84.6675 99.824C83.2595 98.3733 82.5555 96.4533 82.5555 94.064V77.232H93.7555ZM132.644 78.064V70.32C132.644 69.8507 132.516 69.5093 132.26 69.296C132.004 69.04 131.598 68.912 131.044 68.912H128.932V60.912H134.436C137.849 60.912 140.26 61.6373 141.668 63.088C143.118 64.5387 143.844 66.4587 143.844 68.848V78.064H132.644ZM132.644 92.592V77.232H143.844V94.064C143.844 96.4533 143.118 98.3733 141.668 99.824C140.26 101.275 137.849 102 134.436 102H128.932V94H131.044C131.598 94 132.004 93.8933 132.26 93.68C132.516 93.424 132.644 93.0613 132.644 92.592ZM126.756 70.32V78.064H115.556V68.848C115.556 66.4587 116.26 64.5387 117.668 63.088C119.118 61.6373 121.55 60.912 124.964 60.912H130.468V68.912H128.356C127.801 68.912 127.396 69.04 127.14 69.296C126.884 69.5093 126.756 69.8507 126.756 70.32ZM126.756 77.232V92.592C126.756 93.0613 126.884 93.424 127.14 93.68C127.396 93.8933 127.801 94 128.356 94H130.468V102H124.964C121.55 102 119.118 101.275 117.668 99.824C116.26 98.3733 115.556 96.4533 115.556 94.064V77.232H126.756ZM154.38 64.752H165.58V102H154.38V64.752ZM173.516 60.912V68.912H146.508V60.912H173.516ZM176.373 60.912H187.573V102H176.373V60.912ZM180.085 102V94H200.309V102H180.085ZM228.025 87.92V95.856H207.481V87.92H228.025ZM235.065 102H223.801L217.657 73.136L211.321 102H200.312L210.873 60.912H224.505L235.065 102ZM237.623 60.912H256.439C259.852 60.912 262.263 61.6373 263.671 63.088C265.121 64.5387 265.847 66.4587 265.847 68.848V74.096C265.847 75.76 265.633 77.2107 265.207 78.448C264.823 79.6853 264.012 80.6453 262.775 81.328C264.012 81.8827 264.823 82.7147 265.207 83.824C265.633 84.9333 265.847 86.2987 265.847 87.92V94.064C265.847 96.4533 265.121 98.3733 263.671 99.824C262.263 101.275 259.852 102 256.439 102H237.623V60.912ZM254.839 93.232V86.512C254.839 86.0427 254.711 85.7013 254.455 85.488C254.199 85.232 253.793 85.104 253.239 85.104H248.631V94.64H253.239C253.793 94.64 254.199 94.5333 254.455 94.32C254.711 94.064 254.839 93.7013 254.839 93.232ZM254.839 76.336V69.68C254.839 69.2107 254.711 68.8693 254.455 68.656C254.199 68.4 253.793 68.272 253.239 68.272H248.631V77.744H253.239C253.793 77.744 254.199 77.6373 254.455 77.424C254.711 77.168 254.839 76.8053 254.839 76.336Z" fill="white"/>
<path d="M46.8712 2.98602H3V54.6781" stroke="#00FF94" stroke-width="6"/>
<path d="M3 105.308L3 157L46.8712 157" stroke="#00FF94" stroke-width="6"/>
<path d="M273.129 157L317 157L317 105.308" stroke="#00FF94" stroke-width="6"/>
<path d="M317 54.6781L317 2.98602L273.129 2.98603" stroke="#00FF94" stroke-width="6"/>
</g>
<defs>
<clipPath id="clip0_1876_700">
<rect width="320" height="160" fill="white"/>
</clipPath>
</defs>
</svg>
