<svg width="116" height="212" viewBox="0 0 116 212" fill="none" xmlns="http://www.w3.org/2000/svg">
<path d="M78.07 164.41C79.13 164.63 79.09 164.69 79.62 164.95C80.32 165.27 81.01 165.84 81.27 166.6C81.65 166.66 82 166.44 82.29 166.25C83.33 165.42 84.32 164.32 84.03 162.95C83.93 162.57 83.75 162.34 83.36 161.93C81.74 160.66 79.43 160.7 77.47 160.86C77.47 160.86 77.4 160.86 77.18 160.86C75.56 160.92 73.91 160.89 72.62 160C70.91 158.67 70.65 156.45 69.77 154.67C69.52 153.83 69.28 152.98 69.06 152.13C67.46 146.16 66.38 140.09 65.91 133.81C65.91 133.69 65.91 133.5 66.07 133.56C67.59 134.7 69.27 135.4 71.14 135.69C72.06 135.82 73.17 135.85 73.77 135.12C72.91 134.33 71.8 133.63 70.98 132.81C69.74 131.51 68.72 130.04 67.91 128.46C65.76 124.28 65.12 119.33 66.04 114.62C64.08 113.04 62.36 111.52 60.56 109.87C58.9 108.24 57.23 106.56 55.69 104.78C52.65 101.28 50.11 97.42 49.17 92.93C49.08 92.52 49.01 92.11 48.96 91.7C48.99 91.03 48.67 90.15 49.21 89.58C49.31 89.55 49.49 89.52 49.56 89.61C49.95 90.73 50.38 91.84 50.86 92.94C51.43 94.24 52.06 95.51 52.76 96.75C54.38 99.77 56.66 102.35 59.14 104.78C63.1 108.67 67.58 112.18 70.79 116.52C72.03 118.14 72.91 119.98 73.7 121.85C74.37 123.93 74.83 126.19 74.92 128.46C74.96 129.54 74.92 130.62 74.78 131.7C74.91 131.86 75.03 132.02 75.26 131.96C75.8 131.61 75.86 131.01 76.08 130.47C76.25 129.85 76.38 129.23 76.5 128.61C76.5 128.61 76.5 128.58 76.5 128.56C76.5 128.53 76.51 128.5 76.52 128.47C77.56 122.2 75.76 115.79 72.15 110.73C70.4 108.51 68.41 106.59 66.35 104.78C62.01 100.96 57.36 97.63 54.07 92.94C53.6 92.27 53.16 91.58 52.75 90.85C52.56 90.38 52.08 89.74 52.62 89.27C52.75 89.24 52.94 89.2 53.07 89.3L54.72 91.07C55.39 91.72 56.09 92.34 56.8 92.94C61.5 96.87 66.98 99.57 73.45 99.38C77.22 98.87 80.61 96.94 83.34 94.24L83.44 93.86C83.38 93.7 83.25 93.61 83.12 93.58C79.96 93.71 76.92 93.47 73.98 92.94C71.73 92.54 69.54 91.96 67.43 91.26C65.5 90.5 63.56 89.83 61.82 88.66C61.79 88.5 61.79 88.28 61.88 88.16C65.56 88.03 69.58 86.76 71.64 83.37C71.61 83.15 71.8 82.8 71.48 82.71C68.56 82.93 65.39 82.96 62.57 82.36C62.35 82.36 62.28 82.17 62.28 81.98C62.31 81.85 62.47 81.79 62.57 81.69C64.01 81.61 65.41 81.42 66.75 81.1C69.03 80.55 71.14 79.6 73 78.08C73.57 77.64 73.73 76.94 74.27 76.52C74.56 75.95 75.03 75.38 74.71 74.68C71.48 75.22 68.31 76.04 65.11 76.2C64.32 76.23 63.34 76.27 62.54 76.14C62.38 75.95 62.54 75.73 62.67 75.6C64.51 75.09 66.38 74.78 68.12 74.08C70.59 73.16 73.06 72.21 74.87 70.05C75.28 69.16 76.14 68.31 75.76 67.26C75.6 67.1 75.44 66.97 75.19 67.04C71.64 68.53 67.9 69.67 64 70.34C63.49 70.31 62.95 70.69 62.57 70.24C62.32 69.99 62.79 70.05 62.73 69.83C66.82 68.44 70.91 67.11 74.24 64.09C75.41 62.82 76.43 61.14 76.11 59.4C76.01 59.15 75.79 58.9 75.48 58.93C72.63 60.29 69.77 61.62 66.73 62.57C66.35 62.57 66 62.98 65.62 62.67C65.52 62.54 65.52 62.32 65.65 62.23C68.02 60.57 70.45 59 72.87 57.42C75.16 55.92 77.45 54.42 79.68 52.82C81.23 51.65 82.85 50.35 84.43 49.18C91.63 43.51 98.09 36.4 103.35 28.7C104.05 27.68 104.65 26.61 105.38 25.62C108.14 20.55 111.15 15.45 112.23 9.68001C112.64 6.45001 111.56 3.12001 109.41 0.61001C109.13 0.36001 108.87 0.0400098 108.46 0.0100098C108.23 0.0700098 108.2 0.33001 108.14 0.51001C108.27 2.29001 107.82 3.78001 107.66 5.30001C107.37 7.36001 106.62 9.33001 106.11 11.32C103.51 19.85 99.42 27.67 93.72 34.94C86.8 44.24 77.39 50.91 67.91 57.41C66.44 58.41 64.98 59.41 63.52 60.42C60.92 62.45 58.2 64.44 56.58 67.39C55.5 69.39 54.65 71.67 53.85 73.8C53.07 76.33 51.92 78.97 50.19 81.1C48.74 82.89 46.9 84.31 44.56 84.99C44.08 84.96 43.36 85.34 43.04 84.8C42.94 84.48 43.1 84.23 43.33 84.04C44.84 83.4 46.06 82.36 47.02 81.1C47.86 80 48.5 78.72 48.94 77.41C50.49 72.78 51.57 67.93 53.98 63.65C55.19 61.36 56.67 59.31 58.32 57.41C62.19 52.96 67.01 49.33 71.47 45.43C72.64 44.6 73.75 43.46 74.89 42.57C80.28 37.76 85.38 32.27 89.03 26.09C90.43 23.55 91.63 20.89 91.98 17.98C92.58 14.59 92.06 10.7 89.19 8.85001C88.21 8.22001 87.23 7.24001 85.99 7.39001C85.74 7.45001 85.61 7.68001 85.71 7.93001C87.26 10.15 87.67 13.41 86.88 16.01C85.04 22.6 81.18 28.4 76.67 33.73C70.84 40.99 63.14 46.41 56.32 52.78C55.43 53.73 54.32 54.58 53.63 55.66C53.15 56.17 52.59 56.84 52.15 57.41C52.15 57.41 52.11 57.47 52.09 57.5C52.06 57.53 52.04 57.56 52.01 57.6C50.22 60.01 48.94 62.73 47.93 65.46C46.66 69.29 45.84 73.29 44.79 77.19C44.63 78.14 44.09 78.9 43.78 79.76C43.44 80.26 43.02 80.86 42.47 81.1C42.24 81.2 42 81.24 41.72 81.18C41.66 81.15 41.6 81.13 41.54 81.1C40.7 80.67 40.22 79.73 40.04 78.87C38.33 71.23 41.97 64.42 46.66 58.84C47.06 58.36 47.46 57.88 47.87 57.42C50.7 54.16 53.77 51.06 55.98 47.46C57.6 44.77 58.17 40.9 56.36 38.2C55.82 36.97 54.65 36.08 53.51 35.54C53.41 35.41 53.41 35.26 53.51 35.13C54.52 34.88 55.44 35.35 56.39 35.39C58.67 35.67 61.18 35.32 63.2 34.5C64.53 33.83 66.02 32.85 66.4 31.33C66.5 30.79 66.78 30 66.18 29.59C65.7 29.4 65.83 30.03 65.61 30.22C64.56 31.33 62.95 31.78 61.39 31.78C57.62 31.4 54.19 30.22 50.74 29.08C48.23 28.32 45.83 27.46 43.26 26.99C40.53 26.7 36.83 26.04 35.02 28.61C34.64 29.24 34.8 29.94 35.12 30.58C33.6 30.74 32.01 30.68 30.43 30.83C30.05 29.69 29.7 28.58 29.2 27.53C28.31 27.72 27.46 28.03 26.47 27.91C27.23 28.89 27.83 29.97 28.02 31.17C25.83 31.84 23.39 32.6 22.09 34.6C21.84 35.26 21.26 35.9 21.42 36.63C23.54 35.71 25.76 34.98 28.23 34.86L28.36 34.96C28.36 36.16 28.04 37.43 27.66 38.57C26.65 38.85 25.63 38.7 24.65 38.79C24.71 38.95 24.49 39.11 24.55 39.29C24.71 40.43 26.1 40.34 26.7 40.84C26.1 42.04 25.34 43.31 24.39 44.3C23.47 43.44 22.23 42.71 20.97 42.78C18.53 42.56 16.69 44.43 14.5 45.03C13.99 45.22 13.42 44.87 12.98 44.78C12.79 45.38 13.2 46.01 13.71 46.39C14.12 46.55 14.47 46.96 14.91 46.86C15.51 47.18 16.37 47.15 17.13 47.12C18.81 46.96 20.04 45.76 21.6 45.22C22.27 45.13 22.96 44.68 23.63 45.09C23.5 45.53 22.96 45.79 22.62 46.14C20.5 47.69 17.87 48.42 16.47 50.86C16.12 51.81 16.09 52.95 16.5 53.9C17.2 55.01 18.4 55.65 19.7 55.46C19.7 55.3 19.61 55.17 19.54 55.05C19 53.31 20.87 52.17 21.95 51.15C22.71 50.29 23.25 49.02 22.68 47.89C23.41 47.29 24.1 46.72 24.9 46.15C25.35 47.29 25.95 48.37 26.93 49.29C28.07 50.27 29.82 50.68 31.24 50.02C32.95 49.26 34.66 47.49 34.54 45.49C33.71 46.35 32.64 46.95 31.43 47.17C30.92 46.57 30.48 46.22 29.88 45.68C28.84 44.89 27.44 44.64 26.11 44.89C27.25 43.56 28.11 42.13 28.96 40.65C30.96 40.46 32.95 40.05 34.95 39.57C37.45 39.06 40.46 39.19 42.08 41.35C42.4 41.7 42.65 42.21 42.91 42.74C43.99 45.82 42.08 48.64 40.03 50.82C37.68 53.21 35.09 55.35 32.45 57.45C26.86 61.9 21.07 66.18 17.05 72.25C16.04 73.58 15.12 75.17 14.45 76.82C13.73 78.17 13.14 79.62 12.68 81.14C11.54 84.88 11.2 89.03 11.74 92.98C12.13 95.77 12.96 98.48 14.26 100.88C14.93 102.28 15.76 103.59 16.71 104.83C20.69 109.99 26.85 113.73 32.58 116C39.08 118.7 45.86 120.47 52.9 121.33L53.03 121.46C53.9 123.66 54.48 126.08 54.63 128.52C54.77 130.8 54.54 133.1 53.82 135.28C53.72 135.54 53.5 135.82 53.6 136.14C54.68 135.76 55.75 135 56.55 134.21C57.15 133.8 57.44 133.17 57.95 132.66C58.07 132.63 58.14 132.69 58.2 132.79C59.12 139.45 60.71 146.04 63.1 152.22C63.1 152.22 63.12 152.25 63.12 152.27C63.12 152.28 63.12 152.3 63.14 152.31C63.69 153.71 64.28 155.1 64.92 156.47C65.27 157.58 66.35 158.43 66.06 159.64C65.84 159.92 65.49 160.3 65.08 160.27C64.61 160.24 64.07 160.21 63.66 160.08C62.36 159.73 61.09 159.13 59.82 158.78C57.92 158.46 55.19 157.38 53.61 159.13C53.36 159.61 53.36 160.21 53.58 160.71C53.01 160.84 52.38 160.68 51.74 160.74C50.38 160.71 49.21 161.53 48.6 162.71C48.41 163.28 48.41 164.14 48.76 164.64C48.98 165.02 49.39 165.24 49.81 165.27C49.94 165.17 49.97 165.02 50 164.83C50.82 163.24 52.69 162.99 54.37 162.96C54.5 162.99 54.66 163.12 54.59 163.28C54.12 163.69 53.51 163.91 53.13 164.42C52.65 165.09 52.4 165.88 52.81 166.7C53.16 167.37 53.83 167.87 54.65 167.87C54.95 167.87 54.93 168 55.06 167.87C54.96 167.27 55.35 166.63 55.82 166.16C57.85 164.58 60.42 164.26 63.02 164.01C67.84 163.6 73.4 163.5 78.08 164.48M30.04 38.31C30.19 37.88 30.42 37.11 30.57 36.32C30.69 35.7 30.74 35.59 30.78 34.72C33.96 34.72 35.53 34.84 35.53 35.84C35.53 37.21 32.61 37.94 30.03 38.31M40.26 33.76C39.79 33.76 39.34 33.7 38.96 33.41C38.45 32.94 38.42 32.14 38.61 31.54C38.8 31.19 39.31 31.44 39.66 31.44C41.43 31.76 43.24 32.04 44.92 32.55C45.02 32.61 44.95 32.74 44.92 32.83C43.31 33.02 41.88 33.62 40.26 33.75M43.87 107.64C41.68 106.94 39.54 105.98 37.53 104.77C34.49 102.94 31.76 100.54 29.64 97.62C28.58 96.19 27.7 94.61 27.01 92.92C25.49 89.22 24.9 85.06 25.44 81.08C25.68 79.3 26.15 77.55 26.86 75.9C27.84 73.65 29.11 71.43 30.57 69.5C31.93 67.95 33.27 66.3 35.07 65.09C35.23 65.09 35.39 65.09 35.45 65.25V65.57C34.4 67.12 33.55 68.67 32.79 70.39C31.3 73.74 30.26 77.42 30.13 81.08C30.1 81.84 30.11 82.62 30.17 83.38C30.35 86.79 31.12 89.95 32.38 92.92C33.13 94.68 34.04 96.37 35.12 97.99C35.5 98.44 35.75 99.01 36.2 99.35C37.73 101.42 39.61 103.19 41.6 104.76C42.7 105.63 43.84 106.43 44.97 107.18C45.22 107.41 45.73 107.59 45.67 107.94C45.1 108.32 44.47 107.75 43.9 107.63" fill="white"/>
<path d="M87.87 32.08C80.64 42.35 69.77 48.85 61.02 57.56C60.51 58.23 59.69 58.7 59.62 59.59C59.72 59.69 59.78 59.81 59.94 59.91C60.19 59.97 60.35 59.91 60.64 59.85C63.21 57.66 65.78 55.7 68.59 53.76C70.78 52.18 72.96 50.66 75.18 49.13C82.91 43.36 90.14 36.58 94.83 27.96C96.99 24.44 98.38 19.31 96.03 15.47C95.78 15.03 95.49 14.58 95.14 14.23C94.89 14.13 94.6 14.26 94.54 14.45C94.54 15.18 94.63 15.88 94.63 16.6C93.9 22.31 91.21 27.51 87.85 32.07" fill="white"/>
<path d="M37.91 166.37C38.32 166.5 38.7 166.24 39.05 166.05C39.11 165.99 39.15 165.97 39.3 165.83C40.25 165.07 40.57 164.02 40.57 162.91C40.54 161.84 39.52 161.11 38.67 160.79C38.48 160.71 38.42 160.69 38.22 160.63C36.13 159.99 33.81 160.25 31.56 160.28C30.93 160.18 30.1 160.31 29.81 159.62C29.69 159.21 29.87 158.73 30.07 158.38C31.52 156.28 33.03 154.2 34.55 152.13C37.03 148.74 39.53 145.37 41.83 141.93C43.63 139.23 44.81 135.91 44.9 132.74C46.17 134.01 47.69 135.05 49.34 135.72C49.75 135.82 50.26 135.94 50.64 135.82C49.17 133.59 48.16 131.09 47.55 128.46C47.1 126.51 46.86 124.48 46.81 122.45C45.96 122.2 45.01 122.16 44.15 121.94C40.89 121.18 37.75 119.88 34.8 118.45C34.68 121.77 34.09 125.24 33.12 128.5C32.62 130.19 32 131.86 31.28 133.47C34.08 133.47 36.38 131.57 38.35 129.95C37.59 133.09 36.51 135.53 35.05 138.99C32.84 144.24 30.49 148.28 28.09 152.23C27.28 153.56 26.46 154.89 25.6 156.29C25.03 157.27 24.33 158.44 23.16 158.98C19.9 159.87 17.58 157.24 14.41 157.52C12.91 157.78 12.41 158.06 11.91 158.6C11.62 159.04 11.66 159.58 11.85 160.06C10.07 159.9 8.13997 159.9 6.74997 160.95C6.14997 161.52 5.85997 162.38 6.10997 163.23C6.29997 163.77 6.64997 164.24 7.27997 164.47C8.03997 163.01 9.58997 162.35 11.15 161.96C11.81 161.87 12.51 161.74 13.15 161.99C13.31 162.09 13.18 162.27 13.05 162.37C12.42 162.69 11.72 163.07 11.21 163.64C10.7 164.31 10.26 165.13 10.51 165.99C10.97 167.09 12.1 167.51 13.17 167.38C13.26 167.25 13.14 167.13 13.14 167C13.01 165.8 14.21 165.16 15.14 164.65C18.18 163.6 21.64 163.6 24.96 163.51C27.72 163.35 30.51 163.54 33.27 163.73C34.89 163.92 36.51 164.2 37.74 165.22C38.03 165.51 38.09 166.02 37.9 166.36" fill="white"/>
<path d="M86.47 145.9C87.14 146.06 87.39 145.27 87.74 144.89C89.48 142.01 91.16 138.99 92.15 135.73C92.92 133.39 93.37 130.93 93.46 128.46C93.71 122.22 91.78 115.9 87.49 111.29C85.01 108.37 82.03 106.36 78.83 104.77C74.2 102.49 69.09 101.09 64.36 99.15C63.44 98.83 62.65 98.2 61.7 98.04C61.57 98.14 61.54 98.29 61.61 98.45C64.18 100.79 66.86 102.74 69.5 104.77C73.51 107.85 77.45 111.12 80.84 116.26C83.05 119.61 84.36 121.54 85.69 125.33C86.07 126.4 86.39 127.44 86.67 128.46C88.24 134.22 88.23 139.28 86.64 144.63C86.64 145.11 86.23 145.42 86.48 145.9" fill="white"/>
<path d="M87.46 85.29C82.86 87.89 78.04 89.92 72.66 90.59C72.63 90.69 72.57 90.81 72.66 90.91C73.68 91.1 74.69 91.32 75.77 91.38C78.46 91.54 81.13 91.63 83.72 91.19C84.96 89.92 86.04 88.5 87.05 87.07C87.24 86.53 87.88 86.09 87.75 85.45C87.72 85.32 87.56 85.32 87.46 85.29Z" fill="white"/>
<path d="M94.74 73.38C93.79 73.79 93.03 74.61 92.17 75.15C88.23 77.7 84.04 79.72 79.6 81.08C77.68 81.68 75.71 82.15 73.69 82.5L73.66 82.85C73.98 85.77 71.35 87.99 69.03 89.19V89.38L69.44 89.44C71.34 89.28 73.18 88.81 74.96 88.4C79.74 86.82 84.4 84.75 88.43 81.43C88.57 81.32 88.72 81.21 88.87 81.09C90.93 79.49 92.92 77.47 94.48 75.31C94.64 74.77 95.24 74.29 95.15 73.69C95.05 73.56 94.93 73.34 94.74 73.37" fill="white"/>
<path d="M99.82 60.57C98.33 61.55 97.41 62.82 95.89 63.77C94.02 65.23 92.12 66.5 90.15 67.73C85.84 70.2 81.41 72.39 76.71 73.94C76.87 76.28 76.04 78.57 74.17 80.12C74.2 80.31 73.89 80.25 73.89 80.41C73.89 80.47 73.89 80.57 73.95 80.63C77.91 79.9 81.62 78.28 85.27 76.41C90.18 73.46 95 70.01 98.36 65.19C99.25 63.89 100.04 62.61 100.33 61.01C100.31 60.66 100.11 60.54 99.82 60.57Z" fill="white"/>
<path d="M115.22 15.4C115.03 14.48 115.06 13.47 114.59 12.67C114.5 12.48 114.18 12.48 114.05 12.64C113.48 14.04 113 15.46 112.43 16.82C109.77 22.3 106.85 27.79 102.92 32.6C100.07 36.6 96.36 39.92 93.19 43.57C93.16 43.7 93.09 43.92 93.19 44.04C93.35 44.23 93.63 44.17 93.79 44.17L95.34 42.93C102.03 37.23 108.43 31.23 113.41 23.85C114.99 21.44 115.56 18.4 115.21 15.38" fill="white"/>
<path d="M104.89 46.27C101.03 50.43 96.77 54.13 92.24 57.4C87.65 60.71 82.78 63.56 77.76 65.99C78.3 67.7 78.01 69.6 77.06 71.16C76.84 71.54 76.43 71.83 76.33 72.24C76.43 72.43 76.62 72.27 76.77 72.27C84.88 68.74 92.94 64.11 99.28 57.41C100.23 56.41 101.13 55.36 102 54.27C103.68 51.9 105.42 49.45 105.64 46.53C105.58 46.15 105.13 46.15 104.88 46.28" fill="white"/>
<path d="M112.24 28.3C103.14 40.27 90.82 49.93 78.29 57.4C78.11 57.5 77.94 57.61 77.76 57.71C77.82 58.06 78.01 58.41 78.17 58.76C78.74 60.41 78.42 62.34 77.41 63.71C77.35 63.83 77.38 63.96 77.47 64.02C81.12 61.98 84.71 59.79 88.2 57.41C94.66 53 100.71 47.95 105.9 42C108.66 38.61 110.94 35.12 112.56 31.22C112.85 30.33 113.22 29.45 113.19 28.46C113.1 27.98 112.49 27.95 112.24 28.3Z" fill="white"/>
<path d="M94.02 202.31C93.09 203.21 92.52 203.7 91.42 204.37C89.39 205.6 87.99 205.96 85.64 206.25C84.47 206.39 83.79 206.41 82.62 206.33C81.45 206.24 80.78 206.15 79.67 205.8C77.95 205.27 76.96 204.79 75.59 203.61C74.67 202.82 74.25 202.25 73.55 201.25C73.02 200.49 72.75 200.04 72.34 199.21C71.86 198.24 71.65 197.66 71.34 196.62C71.02 195.56 70.87 194.95 70.73 193.86C70.64 193.11 70.62 192.69 70.61 191.94C70.57 188.8 70.8 186.85 72.22 184.06C72.62 183.27 72.87 182.83 73.4 182.11C73.8 181.56 74.04 181.27 74.52 180.78C75.57 179.7 76.27 179.17 77.61 178.48C80.59 176.93 82.87 176.81 86.16 177.47C89.25 178.09 90.97 179.15 93.28 181.29C93.73 181.7 93.99 182.09 94.37 182.39C94.6 182.31 94.78 182.18 94.98 182.04C94.98 181.71 94.37 174.97 94.24 174.76C93.53 174.56 92.9 174.43 92.03 174.24C88.66 173.54 86.71 173 83.27 173.17C79.38 173.36 77.04 173.79 73.59 175.58C73.23 175.76 73.03 175.87 72.68 176.08C72.29 176.31 72.07 176.45 71.7 176.71C71.02 177.19 70.66 177.49 70.05 178.06C69.78 178.31 69.64 178.46 69.38 178.73C68.69 179.45 68.3 179.87 67.7 180.67C66.2 182.68 65.63 184.07 64.89 186.46C64.61 187.36 64.48 187.87 64.31 188.79C63.92 190.97 64.07 192.26 64.19 194.48C64.21 194.77 64.21 194.93 64.23 195.21C64.4 197.14 64.79 198.22 65.55 200.01C66.04 201.17 66.37 201.82 67.06 202.87C68.26 204.68 69.17 205.59 70.89 206.92C72.51 208.18 73.57 208.74 75.47 209.52C79.61 211.22 82.44 211.32 86.88 210.76C87.87 210.63 88.43 210.54 89.41 210.3C90.07 210.14 90.43 210.03 91.08 209.83C92.41 209.43 93.44 209.03 94.45 208.66C94.48 208.55 95.04 202.26 95.16 202.11C95.01 201.97 94.86 201.79 94.65 201.72C94.42 201.87 94.29 202.11 94.05 202.34" fill="white"/>
<path d="M22.57 201.99L22.21 201.69L22.15 201.75C22.07 201.77 22.09 201.86 22.01 201.86C20.33 203.39 18.46 204.36 16.42 205.07C14.29 205.92 11.88 206.04 9.48 206.02V180.16C9.48 179.49 9.69 178.8 9.89 178.12C10.22 176.73 11.07 175.37 12.26 174.55C12.34 174.49 12.38 174.45 12.47 174.42C12.5 174.39 12.56 174.34 12.56 174.31C12.41 174.08 12.31 173.81 12.13 173.61H1.06C0.97 173.82 0.74 174.02 0.77 174.26C2.39 176.02 3.07 178.32 3.04 180.62V201.39C3.08 202.39 2.99 203.46 2.79 204.48C2.38 206.19 1.83 207.78 0.63 209.13C0.59 209.16 0.53 209.27 0.51 209.29C0.32 209.51 0.12 209.61 0 209.83C0.05 210.07 0.17 210.24 0.2 210.46H19.64C19.86 210.46 19.86 210.46 19.96 210.22C20.64 208.33 21.26 206.43 21.94 204.56C22.15 203.86 22.41 203.18 22.68 202.5C22.7 202.39 22.8 202.32 22.76 202.21C22.71 202.11 22.56 202.12 22.58 202" fill="white"/>
<path d="M52.23 195.65C52.33 195.76 52.46 195.83 52.47 195.94C52.47 195.94 53.24 195.65 53.24 195.56C53.24 193.27 53.22 188.17 53.24 186.86C53.19 186.74 52.78 186.42 52.66 186.37C52.18 187.07 51.48 187.51 50.57 188.01C49.64 188.52 49.03 188.67 48 188.9C46.87 189.15 46.2 189.14 45.03 189.18C44.44 189.2 44.02 189.15 43.53 189.18C43.53 189.18 43.5 179.27 43.55 177.83C43.64 177.85 43.7 177.74 43.79 177.74C44.31 177.82 45.47 177.79 46.53 177.89C47.73 178 48.41 178.05 49.59 178.3C50.26 178.44 50.63 178.53 51.28 178.74C51.76 178.89 52.03 178.97 52.49 179.18C53.45 179.61 54.14 179.98 54.74 180.65C54.69 180.83 54.86 180.71 54.94 180.77C55.09 180.67 55.29 180.53 55.48 180.46C55.66 180.35 55.47 180.19 55.54 180.04C55.35 178.5 55.18 176.79 55 175.23C54.91 174.7 54.96 174.19 54.89 173.66H34.95C34.81 173.87 34.65 174.07 34.56 174.31C35.21 174.7 35.74 175.32 36.15 175.98C36.92 177.37 37.27 178.91 37.36 180.57C37.38 182.14 37.33 202.43 37.36 202.54C37.3 204.71 36.84 206.72 35.74 208.44C35.5 208.71 35.3 209.01 35.04 209.27C34.93 209.5 34.63 209.61 34.53 209.84C34.64 210.03 34.67 210.31 34.8 210.52H45.8C45.94 210.27 46 209.97 46.1 209.73C45.52 209.23 45.05 208.77 44.57 208.01C44.05 207.16 43.65 206.15 43.65 205.62V193.35C45.5 193.29 47 193.45 49.05 193.98C49.3 194.04 49.45 194.08 49.7 194.16C49.95 194.25 50.08 194.31 50.32 194.42C51.12 194.79 51.61 195.02 52.21 195.67" fill="white"/>
<path d="M53.8 205.28C52.34 205.28 51.15 206.47 51.15 207.93C51.15 209.39 52.33 210.58 53.8 210.58C55.27 210.58 56.45 209.39 56.45 207.93C56.45 206.47 55.27 205.28 53.8 205.28Z" fill="white"/>
<path d="M27.14 205.28C25.68 205.28 24.49 206.47 24.49 207.93C24.49 209.39 25.68 210.58 27.14 210.58C28.6 210.58 29.79 209.39 29.79 207.93C29.79 206.47 28.6 205.28 27.14 205.28Z" fill="white"/>
<path d="M101.58 205.28C100.12 205.28 98.93 206.47 98.93 207.93C98.93 209.39 100.11 210.58 101.58 210.58C103.05 210.58 104.23 209.39 104.23 207.93C104.23 206.47 103.05 205.28 101.58 205.28Z" fill="white"/>
<path d="M78.52 132.7C77.92 133.3 77.59 134.08 77.59 134.89C77.59 135.7 77.9 136.44 78.48 137.03C79.07 137.62 79.82 137.94 80.64 137.94C81.46 137.94 82.21 137.62 82.81 137.03C83.39 136.47 83.7 135.72 83.7 134.88C83.7 134.04 83.38 133.3 82.82 132.73C82.23 132.13 81.47 131.82 80.64 131.82C79.81 131.82 79.08 132.12 78.52 132.69M82.55 133.02C83.04 133.51 83.3 134.17 83.3 134.91C83.3 135.65 83.03 136.27 82.53 136.76C82 137.27 81.35 137.54 80.63 137.54C79.95 137.54 79.28 137.26 78.78 136.75C78.28 136.24 78 135.58 78 134.89C78 134.2 78.29 133.51 78.81 132.98C79.29 132.49 79.95 132.23 80.66 132.23C81.37 132.23 82.04 132.5 82.55 133.02Z" fill="white"/>
<path d="M80.08 135.09H80.73L81.44 136.57H82.17L81.4 134.99C81.9 134.89 82.19 134.55 82.19 134.06C82.19 133.43 81.72 133.11 80.75 133.11H79.44V136.57H80.09V135.09H80.08ZM80.08 133.53H80.62C81.23 133.53 81.51 133.7 81.51 134.13C81.51 134.56 81.23 134.68 80.63 134.68H80.08V133.53Z" fill="white"/>
</svg>
