<svg width="162" height="394" viewBox="0 0 162 394" fill="none" xmlns="http://www.w3.org/2000/svg">
<g clip-path="url(#clip0_1833_1009)">
<path d="M18.05 308.44C17.2773 308.328 16.4886 308.421 15.7635 308.711C15.0384 309 14.4025 309.476 13.92 310.09C11.3 312.92 10.08 316.76 10.27 321.48C10.2916 322.458 10.481 323.426 10.83 324.34C11.0743 325.055 11.4871 325.701 12.0336 326.224C12.5801 326.746 13.2443 327.129 13.97 327.34C15.24 327.57 16.67 326.83 17.97 325.24C20.9 321.77 22.16 315.41 20.73 311.34C20.13 309.65 19.17 308.6 18.01 308.34M114.67 350.62C115.346 347.896 114.99 345.017 113.67 342.54C113.113 341.549 112.359 340.683 111.455 339.995C110.55 339.307 109.514 338.812 108.41 338.54L106.03 338.04C103.86 337.6 100.59 336.94 95.69 335.71C89.14 334.07 83.51 337.08 80.4 343.77C83.6 344.7 86.74 345.56 89.81 346.33C90.0985 344.988 90.2989 343.628 90.41 342.26C90.4594 341.778 90.6929 341.334 91.0618 341.02C91.4308 340.706 91.9067 340.546 92.3903 340.575C92.8739 340.603 93.328 340.817 93.6577 341.172C93.9874 341.527 94.1673 341.996 94.16 342.48C94.0347 344.074 93.8009 345.658 93.46 347.22L95.27 347.64L97.08 348.04C97.62 345.4 97.96 343.16 97.97 343.11C98.0845 342.657 98.3633 342.263 98.7523 342.005C99.1412 341.747 99.6123 341.642 100.074 341.712C100.536 341.782 100.955 342.021 101.25 342.383C101.545 342.745 101.695 343.204 101.67 343.67C101.67 343.85 101.3 346.1 100.75 348.79C102.01 349.03 103.2 349.25 104.33 349.44C104.584 348.078 104.758 346.702 104.85 345.32C104.899 344.842 105.13 344.401 105.495 344.087C105.859 343.774 106.33 343.612 106.81 343.635C107.29 343.658 107.743 343.865 108.076 344.211C108.409 344.558 108.597 345.019 108.6 345.5C108.506 347.01 108.322 348.512 108.05 350C110.65 350.35 112.83 350.55 114.64 350.63M79.86 355.22C81.0158 357.807 83.1419 359.836 85.78 360.87C90.5146 362.215 95.3556 363.151 100.25 363.67C106.25 364.33 110.87 361.01 113.52 354.31C111.52 354.19 109.39 353.97 107.19 353.66C106.792 355.011 106.249 356.316 105.57 357.55C105.308 357.951 104.903 358.237 104.437 358.35C103.971 358.462 103.48 358.393 103.064 358.155C102.648 357.918 102.338 357.531 102.198 357.072C102.058 356.614 102.098 356.12 102.31 355.69C102.772 354.856 103.151 353.978 103.44 353.07C102.273 352.87 101.107 352.653 99.94 352.42C99.602 353.832 99.1574 355.216 98.61 356.56C98.392 356.986 98.0198 357.313 97.5692 357.474C97.1187 357.635 96.6236 357.618 96.185 357.427C95.7464 357.236 95.3972 356.884 95.2086 356.444C95.02 356.005 95.0062 355.51 95.17 355.06C95.6207 353.956 95.9883 352.819 96.27 351.66L94.46 351.26L92.54 350.81C92.21 351.9 91.8 353.03 91.32 354.18C91.1107 354.615 90.7422 354.952 90.2909 355.123C89.8395 355.294 89.3398 355.284 88.8952 355.097C88.4506 354.909 88.0952 354.558 87.9025 354.115C87.7098 353.673 87.6946 353.173 87.86 352.72C88.26 351.78 88.6 350.84 88.86 349.93C85.7 349.13 82.45 348.24 79.15 347.27C78.49 349.916 78.7437 352.707 79.87 355.19M125.67 326.86C125.399 320.2 124.048 313.627 121.67 307.4C118.83 299.95 109.33 294.67 96.82 291.84C73.69 286.61 43.29 295.25 23.96 311.52C24.6657 314.752 24.5001 318.113 23.48 321.26C37.41 328.75 57.68 336.86 76.79 342.68C81.29 332.35 89.9 330.38 96.62 332.06C101.43 333.26 104.53 333.89 106.79 334.35L109.27 334.87C110.881 335.261 112.395 335.979 113.716 336.98C115.037 337.982 116.138 339.244 116.95 340.69C118.605 343.723 119.149 347.238 118.49 350.63C120.84 350.49 121.98 350.1 122.24 349.79C124.814 342.434 125.968 334.656 125.64 326.87M99.85 367.43C94.686 366.874 89.5801 365.87 84.59 364.43C82.8049 363.755 81.1704 362.735 79.7804 361.427C78.3905 360.12 77.2723 358.551 76.49 356.81C75.6361 354.97 75.1568 352.978 75.08 350.95C75.0251 349.361 75.1934 347.772 75.58 346.23C56.43 340.39 36.15 332.23 22.03 324.74C21.55 325.632 20.9804 326.473 20.33 327.25C19.3967 328.407 18.2047 329.328 16.85 329.94C18.201 341.805 22.2735 353.197 28.75 363.23C37.37 376.53 49.1 385.66 61.75 388.52C66.24 389.52 72.12 390.8 77.37 389.63C86.8464 387.513 95.6906 383.193 103.186 377.02C110.681 370.847 116.616 362.995 120.51 354.1C119.518 354.268 118.516 354.368 117.51 354.4C113.06 367.4 103.71 367.86 99.85 367.4M9.34001 312.49C9.94493 311.079 10.7499 309.762 11.73 308.58C12.4235 307.738 13.2472 307.012 14.17 306.43C16.46 295.73 21.26 286.2 28.27 279C17.7164 286.499 9.77784 297.116 5.57 309.36C6.68851 310.559 7.9554 311.611 9.34001 312.49ZM8.15 316.14C6.83718 315.225 5.58767 314.223 4.41001 313.14C2.75614 319.229 2.04786 325.536 2.31001 331.84C2.36334 333.173 2.45667 334.467 2.59001 335.72C3.71893 331.482 5.54375 327.46 7.99002 323.82C7.49754 321.268 7.55206 318.64 8.15 316.11M13.09 330.23C11.683 329.854 10.4583 328.985 9.64001 327.78C5.04001 334.87 3.11 341.21 4.79 346.91C8.30583 358.709 15.2665 369.19 24.7792 377.006C34.2919 384.823 45.9228 389.619 58.18 390.78C34.06 383.45 16.18 358.32 13.09 330.23Z" fill="white"/>
<path d="M18.05 308.44C17.2773 308.328 16.4886 308.421 15.7635 308.711C15.0384 309 14.4025 309.476 13.92 310.09C11.31 312.92 10.08 316.76 10.27 321.49C10.2906 322.468 10.4801 323.436 10.83 324.35C11.075 325.065 11.4881 325.71 12.0345 326.233C12.5809 326.755 13.2447 327.138 13.97 327.35C15.24 327.58 16.67 326.84 17.97 325.25C20.9 321.78 22.16 315.41 20.73 311.35C20.13 309.66 19.17 308.61 18.01 308.35M114.67 350.62C115.345 347.896 114.989 345.018 113.67 342.54C113.113 341.547 112.358 340.68 111.451 339.991C110.545 339.303 109.506 338.809 108.4 338.54L106.02 338.04C103.86 337.6 100.59 336.94 95.69 335.72C89.14 334.08 83.51 337.08 80.4 343.78C83.59 344.71 86.74 345.57 89.8 346.34C90.0879 344.998 90.2883 343.638 90.4 342.27C90.4494 341.788 90.6829 341.344 91.0518 341.03C91.4208 340.716 91.8967 340.556 92.3803 340.585C92.864 340.613 93.318 340.827 93.6477 341.182C93.9774 341.537 94.1574 342.006 94.15 342.49C94.0233 344.084 93.7894 345.667 93.45 347.23L95.26 347.65L97.07 348.05C97.61 345.41 97.95 343.17 97.96 343.12C98.0629 342.656 98.3379 342.248 98.7297 341.978C99.1214 341.708 99.6008 341.597 100.071 341.667C100.542 341.737 100.968 341.982 101.265 342.354C101.561 342.726 101.706 343.196 101.67 343.67C101.67 343.85 101.3 346.1 100.74 348.79C102 349.03 103.19 349.25 104.32 349.44C104.574 348.078 104.747 346.702 104.84 345.32C104.889 344.842 105.12 344.401 105.485 344.087C105.849 343.774 106.32 343.612 106.8 343.635C107.28 343.658 107.733 343.864 108.066 344.211C108.399 344.558 108.587 345.019 108.59 345.5C108.497 347.01 108.314 348.512 108.04 350C110.64 350.35 112.82 350.54 114.63 350.63M79.86 355.22C81.0149 357.808 83.1413 359.837 85.78 360.87C90.5152 362.212 95.356 363.149 100.25 363.67C106.25 364.33 110.86 361.01 113.52 354.31C111.52 354.2 109.39 353.97 107.19 353.66C106.793 355.012 106.25 356.316 105.57 357.55C105.308 357.951 104.903 358.237 104.437 358.35C103.971 358.462 103.48 358.393 103.064 358.155C102.648 357.918 102.338 357.531 102.198 357.072C102.058 356.614 102.098 356.12 102.31 355.69C102.772 354.856 103.15 353.978 103.44 353.07C102.28 352.87 101.11 352.65 99.94 352.43C99.6022 353.842 99.1576 355.226 98.61 356.57C98.5222 356.811 98.3859 357.032 98.2095 357.218C98.0331 357.405 97.8205 357.553 97.5846 357.654C97.3487 357.755 97.0946 357.807 96.8379 357.806C96.5812 357.806 96.3274 357.752 96.0921 357.65C95.8569 357.547 95.6451 357.398 95.4698 357.21C95.2946 357.022 95.1597 356.801 95.0733 356.559C94.9869 356.318 94.9509 356.061 94.9675 355.805C94.9842 355.548 95.0531 355.298 95.17 355.07C95.6196 353.965 95.9873 352.829 96.27 351.67L94.46 351.27L92.54 350.82C92.1904 351.96 91.7832 353.081 91.32 354.18C91.2241 354.407 91.0846 354.612 90.9093 354.785C90.7341 354.957 90.5266 355.094 90.2986 355.186C90.0706 355.278 89.8267 355.325 89.5807 355.323C89.3347 355.321 89.0916 355.271 88.865 355.175C88.6385 355.079 88.4331 354.94 88.2605 354.764C88.0879 354.589 87.9515 354.382 87.8591 354.154C87.7667 353.926 87.7201 353.682 87.722 353.436C87.7238 353.19 87.7742 352.947 87.87 352.72C88.27 351.77 88.6 350.83 88.87 349.92C85.71 349.12 82.46 348.23 79.16 347.27C78.4976 349.915 78.7514 352.707 79.88 355.19M121.67 307.4C118.83 299.95 109.33 294.67 96.81 291.84C73.68 286.61 43.29 295.25 23.95 311.52C24.6567 314.752 24.491 318.113 23.47 321.26C37.4 328.75 57.67 336.86 76.79 342.68C81.29 332.35 89.9 330.38 96.62 332.06C101.43 333.26 104.53 333.89 106.79 334.35L109.28 334.88C110.891 335.271 112.405 335.989 113.726 336.99C115.047 337.992 116.148 339.254 116.96 340.7C118.613 343.745 119.148 347.272 118.47 350.67C120.82 350.53 121.96 350.14 122.22 349.82C127.014 336.065 126.813 321.061 121.65 307.44M99.83 367.44C94.6659 366.885 89.5599 365.881 84.57 364.44C82.7849 363.765 81.1504 362.745 79.7605 361.437C78.3705 360.13 77.2523 358.561 76.47 356.82C75.6169 354.979 75.1376 352.987 75.06 350.96C75.0039 349.371 75.1723 347.782 75.56 346.24C56.41 340.4 36.13 332.24 22.01 324.75C21.5274 325.641 20.958 326.481 20.31 327.26C19.3712 328.415 18.1764 329.336 16.82 329.95C18.1741 341.816 22.25 353.208 28.73 363.24C37.35 376.55 49.08 385.67 61.73 388.53C66.22 389.53 72.1 390.81 77.35 389.64C86.8264 387.523 95.6707 383.203 103.166 377.03C110.661 370.857 116.596 363.005 120.49 354.11C119.498 354.274 118.495 354.371 117.49 354.4C113.04 367.4 103.69 367.86 99.83 367.4M9.32 312.49C9.92184 311.079 10.7234 309.763 11.7 308.58C12.395 307.739 13.2185 307.014 14.14 306.43C16.44 295.73 21.24 286.2 28.24 279C17.6893 286.502 9.75144 297.118 5.54001 309.36C6.65911 310.559 7.92591 311.61 9.31001 312.49M8.12001 316.13C6.80738 315.215 5.55789 314.213 4.38002 313.13C2.72621 319.222 2.01795 325.533 2.28001 331.84C2.33001 333.14 2.43001 334.44 2.56001 335.72C3.68753 331.481 5.51244 327.46 7.96 323.82C7.46995 321.267 7.52447 318.64 8.12001 316.11M13.06 330.23C11.6543 329.857 10.4319 328.987 9.62001 327.78C5.02001 334.87 3.08002 341.21 4.77002 346.91C8.28464 358.71 15.245 369.191 24.7579 377.008C34.2708 384.824 45.9023 389.62 58.16 390.78C34.04 383.45 16.16 358.32 13.07 330.23M42.77 37.9C42.8041 34.7549 42.4684 31.6167 41.77 28.55C41.77 28.55 47.32 28.26 47.32 21.55C47.32 15.98 43.61 12.19 42.61 12.19C41.8 12.19 41.61 13.04 39.87 13.04C35.63 13.04 35.32 7.61998 35.32 7.61998C35.9467 7.61998 36.5933 7.61998 37.26 7.61998C49.4 7.61998 60.64 11.3 60.64 37.98C60.5368 46.8022 59.9493 55.6122 58.88 64.37C58.06 72.02 57.31 79.13 57.53 86.08C57.53 86.08 36.39 83.59 36.39 67.68C36.39 57.35 42.83 54.84 42.83 37.97M76.46 214.22C76.46 235.1 67.55 252.08 62.41 257.22C46.47 273.16 33.31 261.55 33.17 277.55C25.94 284.1 20.73 294.07 18.17 305.45L18.64 305.52C20.1715 305.825 21.5239 306.714 22.41 308C42.66 291.49 73.84 282.82 97.68 288.21C105.26 289.93 111.68 292.72 116.55 297C109.182 285.089 97.9981 276.023 84.82 271.28C81.68 270.15 76.1 268.86 76.1 258.68C76.1 239.68 96.9 254.45 110.6 233.74C111.27 232.74 110.3 231.83 109.5 232.63C105.35 236.77 95.18 239.63 89.79 239.63C84.4 239.63 82.37 238.4 82.37 238.4C85.6961 231.884 89.4998 225.624 93.75 219.67C81.03 206.95 102.44 137.01 159.09 137.01C159.215 124.147 157.941 111.308 155.29 98.72C153.94 99.05 143.29 101.56 142.78 99.32C142.35 97.32 150.64 93.02 153.5 91.61C150.72 81.91 147.94 77.36 147.94 77.36C99.38 92.66 109.14 132.86 97.31 132.86C89.61 132.86 83.56 126.86 81.4 124.71C52.4 95.71 65.91 76.52 65.91 37.98C65.91 11.98 55.83 2.29999 37.21 2.29999C18.59 2.29999 11.94 10.36 11.94 10.36C11.94 10.36 37.45 11.19 37.45 37.98C37.45 65.98 5.86001 73.77 5.86001 109.36C5.86001 168.6 76.4 167.49 76.4 214.23" fill="white"/>
</g>
<defs>
<clipPath id="clip0_1833_1009">
<rect width="161.35" height="393.33" fill="white"/>
</clipPath>
</defs>
</svg>
